#N canvas 858 846 485 390 10;
#X obj 144 43 metro 300;
#X obj 144 65 random 30;
#X obj 144 109 mtof;
#X obj 144 22 tgl 15 0 empty empty empty 17 7 0 10 -262144 -1 -1 1
1;
#X floatatom 144 131 5 0 0 0 - - -, f 5;
#X obj 144 150 osc~;
#X obj 144 282 *~;
#X obj 144 304 dac~;
#X obj 250 263 line~;
#X obj 304 212 del 40;
#X obj 144 87 + 50;
#X obj 144 214 samphold~;
#X obj 204 190 phasor~;
#X floatatom 221 103 5 0 0 0 - - -, f 5;
#X obj 222 142 / 10;
#X obj 204 165 *;
#X text 267 102 resample ratio*10;
#X obj 144 259 bp~ 100 0.3;
#X obj 144 236 *~ 0.5;
#X obj 267 179 bng 15 250 50 0 empty empty empty 17 7 0 10 -262144
-1 -1;
#X msg 304 239 0.9 \, 0 100;
#X msg 250 212 0.9 10;
#X connect 0 0 1 0;
#X connect 1 0 10 0;
#X connect 2 0 4 0;
#X connect 3 0 0 0;
#X connect 4 0 5 0;
#X connect 4 0 19 0;
#X connect 4 0 15 0;
#X connect 5 0 11 0;
#X connect 6 0 7 0;
#X connect 6 0 7 1;
#X connect 8 0 6 1;
#X connect 9 0 20 0;
#X connect 10 0 2 0;
#X connect 11 0 18 0;
#X connect 12 0 11 1;
#X connect 13 0 14 0;
#X connect 14 0 15 1;
#X connect 15 0 12 0;
#X connect 17 0 6 0;
#X connect 18 0 17 0;
#X connect 19 0 21 0;
#X connect 19 0 9 0;
#X connect 20 0 8 0;
#X connect 21 0 8 0;
