#N canvas 699 395 364 390 10;
#X obj 54 55 random 30;
#X obj 54 99 mtof;
#X obj 54 12 tgl 15 0 empty empty empty 17 7 0 10 -262144 -1 -1 1 1
;
#X floatatom 54 121 5 0 0 0 - - -, f 5;
#X obj 54 140 osc~;
#X obj 54 332 *~;
#X obj 54 354 dac~;
#X obj 160 253 line~;
#X obj 54 77 + 50;
#X obj 54 204 samphold~;
#X obj 114 180 phasor~;
#X floatatom 131 116 5 0 0 0 - - -, f 5;
#X obj 132 135 / 10;
#X obj 114 155 *;
#X text 177 115 resample ratio*10;
#X obj 54 226 *~ 0.5;
#X obj 177 169 bng 15 250 50 0 empty empty empty 17 7 0 10 -262144
-1 -1;
#X msg 160 202 0.9 10;
#X obj 160 275 *~;
#X obj 160 297 *~;
#X obj 214 202 del 10;
#X msg 215 229 0.9 \, 0 250;
#X obj 134 74 tgl 15 0 empty empty empty 17 7 0 10 -262144 -1 -1 1
1;
#X obj 95 94 spigot;
#X floatatom 94 124 3 0 0 0 - - -, f 3;
#X obj 54 279 bp~ 300 0.5;
#X obj 54 33 metro 300;
#X connect 0 0 8 0;
#X connect 1 0 3 0;
#X connect 2 0 26 0;
#X connect 3 0 4 0;
#X connect 3 0 16 0;
#X connect 3 0 23 0;
#X connect 4 0 9 0;
#X connect 5 0 6 0;
#X connect 5 0 6 1;
#X connect 7 0 18 0;
#X connect 7 0 18 1;
#X connect 8 0 1 0;
#X connect 9 0 15 0;
#X connect 10 0 9 1;
#X connect 11 0 12 0;
#X connect 12 0 13 1;
#X connect 13 0 10 0;
#X connect 15 0 25 0;
#X connect 16 0 17 0;
#X connect 16 0 20 0;
#X connect 17 0 7 0;
#X connect 18 0 19 0;
#X connect 18 0 19 1;
#X connect 19 0 5 1;
#X connect 20 0 21 0;
#X connect 21 0 7 0;
#X connect 22 0 23 1;
#X connect 23 0 24 0;
#X connect 24 0 13 0;
#X connect 25 0 5 0;
#X connect 26 0 0 0;
