#N canvas 414 410 450 300 10;
#X obj 144 53 metro 300;
#X obj 144 75 random 30;
#X obj 144 119 mtof;
#X obj 144 32 tgl 15 0 empty empty empty 17 7 0 10 -262144 -1 -1 0
1;
#X floatatom 144 141 5 0 0 0 - - -, f 5;
#X obj 144 160 osc~;
#X obj 144 182 *~;
#X obj 144 204 dac~;
#X obj 201 158 line~;
#X msg 255 134 0.9 \, 0 400;
#X msg 201 107 0.9 40;
#X obj 255 107 del 40;
#X obj 144 97 + 50;
#X connect 0 0 1 0;
#X connect 0 0 11 0;
#X connect 0 0 10 0;
#X connect 1 0 12 0;
#X connect 2 0 4 0;
#X connect 3 0 0 0;
#X connect 4 0 5 0;
#X connect 5 0 6 0;
#X connect 6 0 7 0;
#X connect 6 0 7 1;
#X connect 8 0 6 1;
#X connect 9 0 8 0;
#X connect 10 0 8 0;
#X connect 11 0 9 0;
#X connect 12 0 2 0;
