#N canvas 1456 120 320 321 10;
#N canvas 1535 569 359 419 fm-blip 0;
#X obj 68 49 inlet;
#X obj 68 127 mtof;
#X obj 68 256 osc~;
#X obj 86 179 osc~;
#X obj 68 71 t f b;
#X obj 68 231 +~;
#X obj 68 278 *~;
#X obj 140 211 vline~;
#X obj 142 153 vline~;
#X obj 86 201 *~;
#X obj 68 310 outlet~;
#X obj 86 153 * 0.5;
#X msg 140 182 0.3 10 \, 0 500 20;
#X msg 142 124 100 30 \, 0 350 30;
#X connect 0 0 4 0;
#X connect 1 0 5 0;
#X connect 1 0 11 0;
#X connect 2 0 6 0;
#X connect 3 0 9 0;
#X connect 4 0 1 0;
#X connect 4 1 12 0;
#X connect 4 1 13 0;
#X connect 5 0 2 0;
#X connect 6 0 10 0;
#X connect 7 0 6 1;
#X connect 8 0 9 1;
#X connect 9 0 5 1;
#X connect 11 0 3 0;
#X connect 12 0 7 0;
#X connect 13 0 8 0;
#X restore 54 227 pd fm-blip;
#X obj 54 256 dac~;
#N canvas 1112 745 846 668 st_player 0;
#N canvas 0 23 450 300 dist_rnd 0;
#X obj 124 54 inlet;
#X obj 124 222 outlet;
#X obj 201 54 inlet;
#X obj 124 76 random 100;
#X obj 181 98 loadbang;
#X msg 181 120 1;
#X obj 124 170 * 100;
#X obj 124 192 int;
#X obj 124 98 * 0.01;
#X obj 124 148 pow;
#X connect 0 0 3 0;
#X connect 2 0 9 1;
#X connect 3 0 8 0;
#X connect 4 0 5 0;
#X connect 5 0 9 1;
#X connect 6 0 7 0;
#X connect 7 0 1 0;
#X connect 8 0 9 0;
#X connect 9 0 6 0;
#X restore 56 390 pd dist_rnd;
#X floatatom 107 169 5 0 0 0 - - -, f 5;
#X obj 56 280 metro 300;
#X obj 106 124 tgl 15 0 empty empty empty 17 7 0 10 -204800 -1 -1 1
1;
#X obj 56 437 * 0.5;
#X obj 56 592 + 30;
#X floatatom 108 193 5 0 0 0 - - -, f 5;
#X floatatom 109 237 5 0 0 0 - - -, f 5;
#X obj 86 550 int;
#X obj 56 503 pack 0 0;
#X obj 56 525 route 0 1;
#X obj 108 214 tgl 15 0 empty empty empty 17 7 0 10 -262144 -1 -1 1
1;
#X obj 56 459 t b f;
#X text 150 238 lowest note;
#X obj 56 306 random 100;
#X obj 56 334 moses 80;
#X floatatom 107 147 5 0 0 0 - - -, f 5;
#X obj 56 356 t b;
#X text 152 190 pitch range;
#X obj 56 614 outlet;
#X text 148 168 pitch prob. exponent;
#X text 128 213 quant./microtonal pitch;
#X text 126 123 play/stop;
#X obj 23 86 loadbang;
#X text 149 146 % note on probability;
#X msg 45 115 1;
#X msg 46 159 20;
#X msg 46 205 40;
#X obj 88 413 / 100;
#X connect 0 0 4 0;
#X connect 1 0 0 1;
#X connect 2 0 14 0;
#X connect 3 0 2 0;
#X connect 4 0 12 0;
#X connect 5 0 19 0;
#X connect 6 0 28 0;
#X connect 7 0 5 1;
#X connect 8 0 5 0;
#X connect 9 0 10 0;
#X connect 10 0 5 0;
#X connect 10 1 8 0;
#X connect 11 0 9 0;
#X connect 12 0 9 0;
#X connect 12 1 9 1;
#X connect 14 0 15 0;
#X connect 15 0 17 0;
#X connect 16 0 15 1;
#X connect 17 0 0 0;
#X connect 23 0 25 0;
#X connect 23 0 26 0;
#X connect 23 0 27 0;
#X connect 25 0 1 0;
#X connect 26 0 6 0;
#X connect 27 0 7 0;
#X connect 28 0 4 1;
#X coords 0 -1 1 1 200 160 1 100 100;
#X restore 54 41 pd st_player;
#X connect 0 0 1 0;
#X connect 0 0 1 1;
#X connect 2 0 0 0;
