#N canvas 1456 120 405 465 10;
#N canvas 0 23 450 300 dist_rnd 0;
#X obj 124 54 inlet;
#X obj 124 222 outlet;
#X obj 201 54 inlet;
#X obj 124 76 random 100;
#X obj 181 98 loadbang;
#X msg 181 120 1;
#X obj 124 170 * 100;
#X obj 124 192 int;
#X obj 124 98 * 0.01;
#X obj 124 148 pow;
#X connect 0 0 3 0;
#X connect 2 0 9 1;
#X connect 3 0 8 0;
#X connect 4 0 5 0;
#X connect 5 0 9 1;
#X connect 6 0 7 0;
#X connect 7 0 1 0;
#X connect 8 0 9 0;
#X connect 9 0 6 0;
#X restore 72 164 pd dist_rnd;
#X floatatom 146 138 5 0 0 0 - - -, f 5;
#X obj 72 54 metro 300;
#X obj 72 24 tgl 15 0 empty empty empty 17 7 0 10 -204800 -1 -1 1 1
;
#N canvas 1535 569 359 419 fm-blip 0;
#X obj 68 49 inlet;
#X obj 68 127 mtof;
#X obj 68 256 osc~;
#X obj 86 179 osc~;
#X obj 68 71 t f b;
#X obj 68 231 +~;
#X obj 68 278 *~;
#X obj 140 211 vline~;
#X obj 142 153 vline~;
#X obj 86 201 *~;
#X obj 68 310 outlet~;
#X msg 140 182 0.3 10 \, 0 200 20;
#X obj 86 153 * 0.5;
#X msg 142 124 100 30 \, 0 150 30;
#X connect 0 0 4 0;
#X connect 1 0 5 0;
#X connect 1 0 12 0;
#X connect 2 0 6 0;
#X connect 3 0 9 0;
#X connect 4 0 1 0;
#X connect 4 1 11 0;
#X connect 4 1 13 0;
#X connect 5 0 2 0;
#X connect 6 0 10 0;
#X connect 7 0 6 1;
#X connect 8 0 9 1;
#X connect 9 0 5 1;
#X connect 11 0 7 0;
#X connect 12 0 3 0;
#X connect 13 0 8 0;
#X restore 72 394 pd fm-blip;
#X obj 72 423 dac~;
#X obj 72 211 * 0.5;
#X obj 72 366 + 30;
#X floatatom 145 189 5 0 0 0 - - -, f 5;
#X floatatom 145 343 5 0 0 0 - - -, f 5;
#X obj 102 324 int;
#X obj 72 277 pack 0 0;
#X obj 72 299 route 0 1;
#X obj 149 245 tgl 15 0 empty empty empty 17 7 0 10 -262144 -1 -1 0
1;
#X obj 72 233 t b f;
#X text 199 344 lowest note;
#X text 195 244 quantized/microtonal pitch;
#X obj 72 80 random 100;
#X obj 72 108 moses 80;
#X floatatom 154 81 5 0 0 0 - - -, f 5;
#X obj 72 130 t b;
#X text 206 80 note on probability;
#X text 198 137 pitch probability exponent;
#X text 199 188 pitch range;
#X connect 0 0 6 0;
#X connect 1 0 0 1;
#X connect 2 0 17 0;
#X connect 3 0 2 0;
#X connect 4 0 5 0;
#X connect 4 0 5 1;
#X connect 6 0 14 0;
#X connect 7 0 4 0;
#X connect 8 0 6 1;
#X connect 9 0 7 1;
#X connect 10 0 7 0;
#X connect 11 0 12 0;
#X connect 12 0 7 0;
#X connect 12 1 10 0;
#X connect 13 0 11 0;
#X connect 14 0 11 0;
#X connect 14 1 11 1;
#X connect 17 0 18 0;
#X connect 18 0 20 0;
#X connect 19 0 18 1;
#X connect 20 0 0 0;
