#N canvas 496 186 364 395 10;
#N canvas 1535 569 359 419 fm-blip 0;
#X obj 68 49 inlet;
#X obj 68 127 mtof;
#X obj 68 256 osc~;
#X obj 86 179 osc~;
#X obj 68 71 t f b;
#X obj 68 231 +~;
#X obj 68 278 *~;
#X obj 140 211 vline~;
#X obj 142 153 vline~;
#X obj 86 201 *~;
#X obj 68 310 outlet~;
#X msg 140 182 0.3 10 \, 0 500 20;
#X msg 142 124 \$1 30 \, 0 350 30;
#X obj 142 96 random 400;
#X obj 86 153 * 2.5;
#X connect 0 0 4 0;
#X connect 1 0 5 0;
#X connect 1 0 14 0;
#X connect 2 0 6 0;
#X connect 3 0 9 0;
#X connect 4 0 1 0;
#X connect 4 1 11 0;
#X connect 4 1 13 0;
#X connect 5 0 2 0;
#X connect 6 0 10 0;
#X connect 7 0 6 1;
#X connect 8 0 9 1;
#X connect 9 0 5 1;
#X connect 11 0 7 0;
#X connect 12 0 8 0;
#X connect 13 0 12 0;
#X connect 14 0 3 0;
#X restore 54 292 pd fm-blip;
#X obj 54 320 dac~;
#N canvas 1472 386 846 668 st_player 0;
#X obj 123 124 tgl 15 0 empty empty empty 17 7 0 10 -204800 -1 -1 0
1;
#X obj 30 522 outlet;
#X text 145 123 play;
#X floatatom 230 124 5 0 0 0 - - -, f 5;
#X text 275 122 tempo;
#X obj 30 391 metro 300;
#N canvas 0 22 450 278 (subpatch) 0;
#X array sequence 16 float 3;
#A 0 75.3568 41.4289 51.7858 58.5713 60.7142 40.3572 52.8571 60.7142
41.0714 75 51.4287 40.7143 55 60.7143 39.6429 73.5714;
#X coords 0 80 16 30 200 140 1 0 0;
#X restore 116 163 graph;
#X obj 327 43 loadbang;
#X obj 30 417 f;
#X obj 60 417 + 1;
#X obj 30 440 mod 16;
#X obj 30 471 tabread sequence;
#X obj 30 493 int;
#X obj 90 364 expr 60/$f1 * 500;
#X msg 327 65 240;
#X connect 0 0 5 0;
#X connect 3 0 13 0;
#X connect 5 0 8 0;
#X connect 7 0 14 0;
#X connect 8 0 9 0;
#X connect 8 0 10 0;
#X connect 9 0 8 1;
#X connect 10 0 11 0;
#X connect 11 0 12 0;
#X connect 12 0 1 0;
#X connect 13 0 5 1;
#X connect 14 0 3 0;
#X coords 0 -1 1 1 240 240 1 100 100;
#X restore 54 41 pd st_player;
#X connect 0 0 1 0;
#X connect 0 0 1 1;
#X connect 2 0 0 0;
