#N canvas 663 460 739 450 10;
#X obj 53 122 random 100;
#N canvas 0 22 450 300 (subpatch) 0;
#X array array1 100 float 3;
#A 0 100 68 96 62 47 0 0 96 88 0 4 38 0 22 0 92 0 3 0 1 3 12 0 54 62
16 26 2 0 0 0 0 0 17 37 49 3 0 0 68 9 0 43 2 5 0 57 1 65 18 62 81 18
0 10 0 84 1 3 0 12 2 15 45 0 0 13 92 12 0 71 3 24 0 62 59 0 8 1 49
0 1 6 26 0 0 3 31 68 0 96 0 0 1 9 2 0 0 20 0;
#X coords 0 100 100 0 654 119 1;
#X restore 37 221 graph;
#X obj 53 69 until;
#X msg 53 15 100;
#X obj 140 121 f;
#X obj 170 121 + 1;
#X obj 53 176 tabwrite array1;
#X obj 53 149 pack 0 0;
#X obj 53 42 t f b;
#X msg 114 75 0;
#X obj 258 73 until;
#X obj 393 122 f;
#X obj 423 122 + 1;
#X obj 258 176 tabwrite array1;
#X obj 258 149 pack 0 0;
#X obj 258 48 t f b;
#X msg 393 93 0;
#X msg 258 19 100;
#X obj 53 96 t b b;
#X obj 258 98 t b b;
#X obj 555 390 random 10;
#X floatatom 555 412 5 0 0 0 - - -, f 5;
#X obj 625 389 random 10;
#X floatatom 625 411 5 0 0 0 - - -, f 5;
#X obj 555 356 bng 15 250 50 0 empty empty empty 17 7 0 10 -262144
-1 -1;
#X msg 625 354 seed 5498;
#N canvas 1046 45 272 503 averaged10_rnd 0;
#X obj 92 41 inlet;
#X obj 93 392 outlet;
#X obj 92 141 random 100;
#X obj 92 116 until;
#X obj 93 319 sum;
#X obj 92 63 t b b;
#X obj 93 369 int;
#X msg 92 90 10;
#X obj 93 347 * 0.1;
#X obj 92 195 list;
#X obj 93 219 list length;
#X obj 92 168 list;
#X obj 93 242 moses 10;
#X obj 93 294 list;
#X obj 146 266 t b;
#X connect 0 0 5 0;
#X connect 2 0 11 0;
#X connect 3 0 2 0;
#X connect 4 0 8 0;
#X connect 5 0 7 0;
#X connect 5 1 11 1;
#X connect 5 1 9 1;
#X connect 6 0 1 0;
#X connect 7 0 3 0;
#X connect 8 0 6 0;
#X connect 9 0 10 0;
#X connect 9 0 11 1;
#X connect 10 0 12 0;
#X connect 11 0 9 0;
#X connect 11 0 13 1;
#X connect 12 1 14 0;
#X connect 13 0 4 0;
#X connect 14 0 13 0;
#X restore 258 123 pd averaged10_rnd;
#X obj 521 67 until;
#X msg 521 21 100;
#X obj 632 114 f;
#X obj 662 114 + 1;
#X obj 521 176 tabwrite array1;
#X obj 521 145 pack 0 0;
#X obj 521 43 t f b;
#X msg 632 78 0;
#X obj 521 88 t b b;
#N canvas 0 23 450 300 dist_rnd 0;
#X obj 124 54 inlet;
#X obj 124 222 outlet;
#X obj 201 54 inlet;
#X obj 124 76 random 100;
#X obj 181 98 loadbang;
#X msg 181 120 1;
#X obj 124 170 * 100;
#X obj 124 192 int;
#X obj 124 98 * 0.01;
#X obj 124 148 pow;
#X connect 0 0 3 0;
#X connect 2 0 9 1;
#X connect 3 0 8 0;
#X connect 4 0 5 0;
#X connect 5 0 9 1;
#X connect 6 0 7 0;
#X connect 7 0 1 0;
#X connect 8 0 9 0;
#X connect 9 0 6 0;
#X restore 521 114 pd dist_rnd;
#X floatatom 595 45 5 0 0 0 - - -, f 5;
#X connect 0 0 7 0;
#X connect 2 0 18 0;
#X connect 3 0 8 0;
#X connect 4 0 5 0;
#X connect 4 0 7 1;
#X connect 5 0 4 1;
#X connect 7 0 6 0;
#X connect 8 0 2 0;
#X connect 8 1 9 0;
#X connect 9 0 4 0;
#X connect 10 0 19 0;
#X connect 11 0 12 0;
#X connect 11 0 14 1;
#X connect 12 0 11 1;
#X connect 14 0 13 0;
#X connect 15 0 10 0;
#X connect 15 1 16 0;
#X connect 16 0 11 0;
#X connect 17 0 15 0;
#X connect 18 0 0 0;
#X connect 18 1 4 0;
#X connect 19 0 26 0;
#X connect 19 1 11 0;
#X connect 20 0 21 0;
#X connect 22 0 23 0;
#X connect 24 0 20 0;
#X connect 24 0 22 0;
#X connect 25 0 22 0;
#X connect 25 0 20 0;
#X connect 26 0 14 0;
#X connect 27 0 35 0;
#X connect 28 0 33 0;
#X connect 29 0 30 0;
#X connect 29 0 32 1;
#X connect 30 0 29 1;
#X connect 32 0 31 0;
#X connect 33 0 27 0;
#X connect 33 1 34 0;
#X connect 34 0 29 0;
#X connect 35 0 36 0;
#X connect 35 1 29 0;
#X connect 36 0 32 0;
#X connect 37 0 36 1;
