#N canvas 1337 203 355 538 10;
#X obj 13 12 notein;
#X obj 13 51 poly 4 1;
#X obj 13 31 pack;
#X obj 13 72 pack 0 0 0;
#X obj 13 91 route 1 2 3 4;
#X obj 13 117 sawvoice;
#X obj 27 139 sawvoice;
#X obj 46 161 sawvoice;
#X obj 60 183 sawvoice;
#X obj 12 230 lop~ 1500;
#X obj 12 251 dac~;
#X connect 0 0 2 0;
#X connect 0 1 2 1;
#X connect 1 0 3 0;
#X connect 1 1 3 1;
#X connect 1 2 3 2;
#X connect 2 0 1 0;
#X connect 3 0 4 0;
#X connect 4 0 5 0;
#X connect 4 1 6 0;
#X connect 4 2 7 0;
#X connect 4 3 8 0;
#X connect 5 0 9 0;
#X connect 6 0 9 0;
#X connect 7 0 9 0;
#X connect 8 0 9 0;
#X connect 9 0 10 0;
#X connect 9 0 10 1;
