#N canvas 898 308 450 300 10;
#X obj 50 80 mtof;
#X floatatom 50 102 5 0 0 0 - - -, f 5;
#X msg 105 106 \$1 30;
#X obj 105 127 line~;
#X obj 50 175 *~;
#X obj 105 85 / 256;
#X obj 49 34 inlet;
#X obj 50 193 outlet~;
#X obj 49 52 unpack;
#X obj 50 127 phasor~;
#X obj 50 148 -~ 0.5;
#X connect 0 0 1 0;
#X connect 1 0 9 0;
#X connect 2 0 3 0;
#X connect 3 0 4 1;
#X connect 4 0 7 0;
#X connect 5 0 2 0;
#X connect 6 0 8 0;
#X connect 8 0 0 0;
#X connect 8 1 5 0;
#X connect 9 0 10 0;
#X connect 10 0 4 0;
