#N canvas 1337 203 355 538 10;
#X obj 12 230 dac~;
#X obj 13 12 notein;
#X obj 13 51 poly 4 1;
#X obj 13 31 pack;
#X obj 13 72 pack 0 0 0;
#X obj 13 91 route 1 2 3 4;
#X obj 13 117 sinvoice;
#X obj 27 139 sinvoice;
#X obj 46 161 sinvoice;
#X obj 60 183 sinvoice;
#X connect 1 0 3 0;
#X connect 1 1 3 1;
#X connect 2 0 4 0;
#X connect 2 1 4 1;
#X connect 2 2 4 2;
#X connect 3 0 2 0;
#X connect 4 0 5 0;
#X connect 5 0 6 0;
#X connect 5 1 7 0;
#X connect 5 2 8 0;
#X connect 5 3 9 0;
#X connect 6 0 0 1;
#X connect 6 0 0 0;
#X connect 7 0 0 1;
#X connect 7 0 0 0;
#X connect 8 0 0 1;
#X connect 8 0 0 0;
#X connect 9 0 0 1;
#X connect 9 0 0 0;
