#N canvas 505 522 412 541 12;
#X floatatom 95 185 5 0 0 0 - fm_ratio -, f 5;
#X floatatom 154 185 5 0 0 0 - fm_ind -, f 5;
#X obj 45 25 tgl 25 0 empty n_trig empty 17 7 0 10 -204786 -1 -1 0
1;
#X floatatom 194 51 5 10 10000 0 - n_rtime -, f 5;
#N canvas 1463 907 450 300 percenv 0;
#X obj 63 35 inlet~;
#X obj 63 245 outlet~;
#X obj 165 35 inlet;
#X obj 63 178 *~;
#X obj 113 138 line~;
#X obj 217 70 del 5;
#X obj 113 172 *~;
#X obj 113 206 *~;
#X msg 113 100 0.5 5;
#X msg 217 102 0 1800;
#X connect 0 0 3 0;
#X connect 2 0 8 0;
#X connect 2 0 5 0;
#X connect 3 0 1 0;
#X connect 4 0 6 0;
#X connect 4 0 6 1;
#X connect 5 0 9 0;
#X connect 6 0 7 0;
#X connect 6 0 7 1;
#X connect 7 0 3 1;
#X connect 8 0 4 0;
#X connect 9 0 4 0;
#X restore 55 286 pd percenv;
#X obj 132 256 r playnote;
#N canvas 1647 541 304 400 fm-gen 0;
#X obj 27 28 inlet;
#X obj 110 28 inlet;
#X obj 186 29 inlet;
#X obj 26 322 outlet~;
#X obj 26 79 mtof;
#X obj 26 287 osc~;
#X obj 26 254 +~;
#X obj 64 175 *~;
#X obj 64 144 osc~;
#X obj 64 112 * 1;
#X obj 111 67 / 100;
#X obj 186 66 * 10;
#N canvas 1463 907 358 353 percenv 0;
#X obj 63 35 inlet~;
#X obj 63 288 outlet~;
#X obj 165 35 inlet;
#X obj 63 248 *~;
#X obj 113 137 line~;
#X obj 217 70 del 30;
#X msg 113 101 1 30;
#X obj 113 172 *~;
#X obj 113 206 *~;
#X msg 216 100 0 800;
#X connect 0 0 3 0;
#X connect 2 0 6 0;
#X connect 2 0 5 0;
#X connect 3 0 1 0;
#X connect 4 0 7 0;
#X connect 4 0 7 1;
#X connect 5 0 9 0;
#X connect 6 0 4 0;
#X connect 7 0 8 0;
#X connect 7 0 8 1;
#X connect 8 0 3 1;
#X connect 9 0 4 0;
#X restore 64 218 pd percenv;
#X obj 161 183 r playnote;
#X connect 0 0 4 0;
#X connect 1 0 10 0;
#X connect 2 0 11 0;
#X connect 4 0 6 0;
#X connect 4 0 9 0;
#X connect 5 0 3 0;
#X connect 6 0 5 0;
#X connect 7 0 12 0;
#X connect 8 0 7 0;
#X connect 9 0 8 0;
#X connect 10 0 9 1;
#X connect 11 0 7 1;
#X connect 12 0 6 1;
#X connect 13 0 12 1;
#X restore 55 216 pd fm-gen;
#N canvas 1605 414 450 300 rand-note-gen 0;
#X obj 7 31 inlet;
#X obj 228 28 inlet;
#X obj 44 140 random 40;
#X obj 91 96 metro 1000;
#X obj 164 131 s playnote;
#X obj 225 59 * 10;
#X obj 44 172 + 50;
#X obj 95 28 inlet;
#X obj 157 28 inlet;
#X obj 44 217 s mn;
#X obj 44 73 inlet;
#X connect 0 0 3 0;
#X connect 1 0 5 0;
#X connect 2 0 6 0;
#X connect 3 0 4 0;
#X connect 3 0 2 0;
#X connect 5 0 3 1;
#X connect 6 0 9 0;
#X connect 7 0 6 1;
#X connect 8 0 2 1;
#X connect 10 0 2 0;
#X connect 10 0 4 0;
#X restore 45 96 pd rand-note-gen;
#X text 103 163 ratio index;
#X text 97 331 fmod depth offs feedb;
#X text 71 353 [0.01Hz] [ms] [ms] [0.01];
#N canvas 213 22 770 699 mod-delay 0;
#X obj 136 199 line~;
#X obj 136 165 pack 0 100;
#X obj 264 418 line~;
#X obj 264 384 pack 0 100;
#X obj 264 350 * 0.01;
#X obj 33 363 +~;
#X obj 243 454 *~;
#X obj 61 227 *~;
#X obj 61 125 / 100;
#X obj 33 397 hip~ 5;
#X obj 61 193 +~ 1;
#X obj 61 159 osc~ 0;
#X text 114 91 <-- cycle frequency (hundredths);
#X text 189 132 <-- cycle depth (msec);
#X text 313 317 <-- feedback (hundredths);
#X obj 243 488 clip~ -1 1;
#X obj 234 233 line~;
#X obj 234 199 pack 0 100;
#X text 287 166 <-- offset (msec);
#X obj 166 272 +~ 1.46;
#X obj 61 261 +~;
#X obj 117 39 inlet;
#X obj 191 39 inlet;
#X obj 268 39 inlet;
#X obj 342 39 inlet;
#X obj 35 39 inlet~;
#X obj 33 559 outlet~;
#X obj 243 560 delwrite~ mod-del 1000;
#X obj 61 304 vd~ mod-del;
#X obj 243 526 lop~ 3000;
#X connect 0 0 7 1;
#X connect 1 0 0 0;
#X connect 2 0 6 1;
#X connect 3 0 2 0;
#X connect 4 0 3 0;
#X connect 5 0 9 0;
#X connect 6 0 15 0;
#X connect 7 0 20 0;
#X connect 8 0 11 0;
#X connect 9 0 6 0;
#X connect 9 0 26 0;
#X connect 10 0 7 0;
#X connect 11 0 10 0;
#X connect 15 0 29 0;
#X connect 16 0 19 0;
#X connect 17 0 16 0;
#X connect 19 0 20 1;
#X connect 20 0 28 0;
#X connect 21 0 8 0;
#X connect 22 0 1 0;
#X connect 23 0 17 0;
#X connect 24 0 4 0;
#X connect 25 0 5 0;
#X connect 28 0 5 1;
#X connect 29 0 27 0;
#X restore 55 422 pd mod-delay;
#X floatatom 78 384 5 0 0 0 - del_fmod -, f 5;
#X floatatom 130 384 5 0 0 0 - del_depth -, f 5;
#X floatatom 182 385 5 0 0 0 - del_offs -, f 5;
#X floatatom 237 384 5 0 0 0 - del_feedb -, f 5;
#X floatatom 107 51 4 30 100 0 - n_from -, f 4;
#X floatatom 149 51 4 0 100 0 - n_width -, f 4;
#X text 108 24 from width repTime*0.01;
#X obj 55 185 r mn;
#X obj 55 487 dac~;
#X obj 76 49 bng 25 250 50 0 empty n_bang empty 17 7 0 10 -204786 -1
-1;
#N canvas 409 23 847 960 tablet_ctl 0;
#X obj 65 174 s n_trig;
#X obj 168 175 s n_bang;
#X obj 261 175 s n_from;
#X obj 355 175 s n_width;
#X obj 456 173 s n_rtime;
#X obj 65 295 s fm_ratio;
#X obj 228 296 s fm_ind;
#X obj 65 422 s del_fmod;
#X obj 377 421 s del_offs;
#X obj 55 23 receive fromGUI;
#X obj 55 60 list trim;
#X obj 55 97 route /n_trig /n_bang /n_from /n_width /n_rtime;
#X obj 55 221 route /fm_ratio /fm_ind;
#X obj 530 421 s del_feedb;
#X obj 55 345 route /del_fmod /del_depth /del_offs /del_feedb;
#X obj 456 136 expr $f1 * 10 + 10;
#X obj 168 136 sel 1;
#X obj 221 421 s del_depth;
#X obj 261 139 + 30;
#X obj 65 385 * 10;
#X obj 221 384 * 300;
#X obj 377 384 * 500;
#X obj 530 384 * 99;
#X obj 64 258 * 600;
#X obj 228 259 * 500;
#X obj 55 463 route /preset1 /preset2 /preset3 /preset4 /preset5 /preset6
/preset7 /preset8;
#X msg 55 585 \; n_from 72 \; n_width 0 \; n_rtime 700 \; fm_ratio
300 \; fm_ind 300 \; del_fmod 1 \; del_depth 30 \; del_offs 200 \;
del_feedb 0 \;;
#X obj 55 523 sel 1;
#X obj 201 519 sel 1;
#X msg 348 554 \; n_from 72 \; n_width 0 \; n_rtime 700 \; fm_ratio
300 \; fm_ind 300 \; del_fmod 1 \; del_depth 30 \; del_offs 200 \;
del_feedb 0 \;;
#X obj 348 522 sel 1;
#X msg 494 550 \; n_from 72 \; n_width 0 \; n_rtime 700 \; fm_ratio
300 \; fm_ind 300 \; del_fmod 1 \; del_depth 30 \; del_offs 200 \;
del_feedb 0 \;;
#X obj 494 518 sel 1;
#X msg 128 810 \; n_from 72 \; n_width 0 \; n_rtime 700 \; fm_ratio
300 \; fm_ind 300 \; del_fmod 1 \; del_depth 30 \; del_offs 200 \;
del_feedb 0 \;;
#X obj 128 778 sel 1;
#X msg 274 806 \; n_from 72 \; n_width 0 \; n_rtime 700 \; fm_ratio
300 \; fm_ind 300 \; del_fmod 1 \; del_depth 30 \; del_offs 200 \;
del_feedb 0 \;;
#X obj 274 774 sel 1;
#X msg 421 809 \; n_from 72 \; n_width 0 \; n_rtime 700 \; fm_ratio
300 \; fm_ind 300 \; del_fmod 1 \; del_depth 30 \; del_offs 200 \;
del_feedb 0 \;;
#X obj 421 777 sel 1;
#X msg 567 805 \; n_from 72 \; n_width 0 \; n_rtime 700 \; fm_ratio
300 \; fm_ind 300 \; del_fmod 1 \; del_depth 30 \; del_offs 200 \;
del_feedb 0 \;;
#X obj 567 773 sel 1;
#X msg 201 551 \; n_from 72 \; n_width 30 \; n_rtime 300 \; fm_ratio
300 \; fm_ind 300 \; del_fmod 1 \; del_depth 30 \; del_offs 400 \;
del_feedb 50 \;;
#X obj 74 554 loadbang;
#X connect 9 0 10 0;
#X connect 10 0 11 0;
#X connect 10 0 12 0;
#X connect 10 0 14 0;
#X connect 10 0 25 0;
#X connect 11 0 0 0;
#X connect 11 1 16 0;
#X connect 11 2 18 0;
#X connect 11 3 3 0;
#X connect 11 4 15 0;
#X connect 12 0 23 0;
#X connect 12 1 24 0;
#X connect 14 0 19 0;
#X connect 14 1 20 0;
#X connect 14 2 21 0;
#X connect 14 3 22 0;
#X connect 15 0 4 0;
#X connect 16 0 1 0;
#X connect 18 0 2 0;
#X connect 19 0 7 0;
#X connect 20 0 17 0;
#X connect 21 0 8 0;
#X connect 22 0 13 0;
#X connect 23 0 5 0;
#X connect 24 0 6 0;
#X connect 25 0 27 0;
#X connect 25 1 34 0;
#X connect 25 2 28 0;
#X connect 25 3 36 0;
#X connect 25 4 30 0;
#X connect 25 5 38 0;
#X connect 25 6 32 0;
#X connect 25 7 40 0;
#X connect 27 0 26 0;
#X connect 28 0 41 0;
#X connect 30 0 29 0;
#X connect 32 0 31 0;
#X connect 34 0 33 0;
#X connect 36 0 35 0;
#X connect 38 0 37 0;
#X connect 40 0 39 0;
#X connect 42 0 26 0;
#X restore 254 160 pd tablet_ctl;
#N canvas 486 705 881 468 tablet_set 0;
#X obj 204 141 r fm_ind;
#X obj 27 141 r fm_ratio;
#X obj 26 11 r n_trig;
#X obj 204 11 r n_bang;
#X obj 371 11 r n_from;
#X obj 530 11 r n_width;
#X obj 700 11 r n_rtime;
#X obj 26 285 r del_fmod;
#X obj 201 285 r del_depth;
#X obj 381 285 r del_offs;
#X obj 562 285 r del_feedb;
#X obj 371 38 - 30;
#X obj 700 38 expr ($f1 - 10) / 10;
#X obj 27 168 / 600;
#X obj 204 168 / 500;
#X obj 26 315 / 10;
#X obj 201 315 / 300;
#X obj 381 312 / 500;
#X obj 562 312 / 99;
#X obj 700 417 send toGUI;
#X obj 25 340 list prepend set;
#X msg 25 366 list /del_fmod \$1 \$2;
#X obj 201 340 list prepend set;
#X obj 381 339 list prepend set;
#X obj 562 339 list prepend set;
#X obj 27 195 list prepend set;
#X obj 204 195 list prepend set;
#X obj 26 68 list prepend set;
#X obj 204 68 list prepend set;
#X obj 371 68 list prepend set;
#X obj 530 68 list prepend set;
#X obj 700 68 list prepend set;
#X msg 201 366 list /del_depth \$1 \$2;
#X msg 381 366 list /del_offs \$1 \$2;
#X msg 562 366 list /del_feedb \$1 \$2;
#X msg 204 226 list /fm_ind \$1 \$2;
#X msg 27 226 list /fm_ratio \$1 \$2;
#X msg 27 94 list /n_trig \$1 \$2;
#X msg 204 94 list /n_bang \$1 \$2;
#X msg 371 94 list /n_from \$1 \$2;
#X msg 530 94 list /n_width \$1 \$2;
#X msg 700 94 list /n_rtime \$1 \$2;
#X connect 0 0 14 0;
#X connect 1 0 13 0;
#X connect 2 0 27 0;
#X connect 3 0 28 0;
#X connect 4 0 11 0;
#X connect 5 0 30 0;
#X connect 6 0 12 0;
#X connect 7 0 15 0;
#X connect 8 0 16 0;
#X connect 9 0 17 0;
#X connect 10 0 18 0;
#X connect 11 0 29 0;
#X connect 12 0 31 0;
#X connect 13 0 25 0;
#X connect 14 0 26 0;
#X connect 15 0 20 0;
#X connect 16 0 22 0;
#X connect 17 0 23 0;
#X connect 18 0 24 0;
#X connect 20 0 21 0;
#X connect 21 0 19 0;
#X connect 22 0 32 0;
#X connect 23 0 33 0;
#X connect 24 0 34 0;
#X connect 25 0 36 0;
#X connect 26 0 35 0;
#X connect 27 0 37 0;
#X connect 28 0 38 0;
#X connect 29 0 39 0;
#X connect 30 0 40 0;
#X connect 31 0 41 0;
#X connect 32 0 19 0;
#X connect 33 0 19 0;
#X connect 34 0 19 0;
#X connect 35 0 19 0;
#X connect 36 0 19 0;
#X connect 37 0 19 0;
#X connect 38 0 19 0;
#X connect 39 0 19 0;
#X connect 40 0 19 0;
#X connect 41 0 19 0;
#X restore 251 192 pd tablet_set;
#X obj 55 455 clip~ -1 1;
#X obj 189 506 writesf~;
#X msg 189 443 open recording.wav;
#X msg 205 472 start;
#X msg 258 472 stop;
#X connect 0 0 6 1;
#X connect 1 0 6 2;
#X connect 2 0 7 0;
#X connect 3 0 7 4;
#X connect 4 0 11 0;
#X connect 5 0 4 1;
#X connect 6 0 4 0;
#X connect 11 0 24 0;
#X connect 12 0 11 1;
#X connect 13 0 11 2;
#X connect 14 0 11 3;
#X connect 15 0 11 4;
#X connect 16 0 7 2;
#X connect 17 0 7 3;
#X connect 19 0 6 0;
#X connect 21 0 7 1;
#X connect 24 0 20 1;
#X connect 24 0 20 0;
#X connect 24 0 25 0;
#X connect 26 0 25 0;
#X connect 27 0 25 0;
#X connect 28 0 25 0;
