#N canvas 470 287 688 376 10;
#X obj 245 49 adc~;
#X obj 299 49 bng 15 250 50 0 empty rec empty 17 7 0 10 -258113 -1
-1;
#X obj 299 101 s tab-refresh;
#N canvas 0 22 450 278 (subpatch) 0;
#X array table-rec 411032 float 2;
#X coords 0 1 411032 -1 200 140 1;
#X restore 422 55 graph;
#X obj 240 201 loadbang;
#X obj 240 251 soundfiler;
#X obj 245 74 tabwrite~ table-rec;
#X obj 240 276 s length;
#X msg 240 226 read -resize aaa-06.wav table-rec;
#X obj 41 229 tabread4~ table-rec;
#X obj 41 260 dac~;
#X obj 41 200 line~;
#X msg 41 91 0 \, 176400 4000;
#X msg 58 115 0 \, 176400 3500;
#X msg 74 141 0 \, 176400 3200;
#X msg 91 165 0 \, 176400 3000;
#X obj 41 37 key;
#X obj 41 59 route 49 50 51 52;
#X connect 0 0 6 0;
#X connect 1 0 2 0;
#X connect 1 0 6 0;
#X connect 4 0 8 0;
#X connect 5 0 7 0;
#X connect 8 0 5 0;
#X connect 9 0 10 0;
#X connect 9 0 10 1;
#X connect 11 0 9 0;
#X connect 12 0 11 0;
#X connect 13 0 11 0;
#X connect 14 0 11 0;
#X connect 15 0 11 0;
#X connect 16 0 17 0;
#X connect 17 0 12 0;
#X connect 17 1 13 0;
#X connect 17 2 14 0;
#X connect 17 3 15 0;
