#N canvas 470 287 834 385 10;
#X obj 367 50 adc~;
#X obj 421 50 bng 15 250 50 0 empty rec empty 17 7 0 10 -258113 -1
-1;
#X obj 421 102 s tab-refresh;
#N canvas 0 22 450 278 (subpatch) 0;
#X array table-rec 411032 float 2;
#X coords 0 1 411032 -1 200 140 1;
#X restore 569 60 graph;
#X obj 362 202 loadbang;
#X obj 362 252 soundfiler;
#X obj 367 75 tabwrite~ table-rec;
#X obj 362 277 s length;
#X msg 362 227 read -resize aaa-06.wav table-rec;
#X obj 44 141 tabread4~ table-rec;
#X obj 44 172 dac~;
#X obj 44 112 line~;
#X floatatom 44 38 5 0 0 0 - - -, f 5;
#X msg 44 83 \$1 100;
#X obj 44 57 * 100;
#X connect 0 0 6 0;
#X connect 1 0 2 0;
#X connect 1 0 6 0;
#X connect 4 0 8 0;
#X connect 5 0 7 0;
#X connect 8 0 5 0;
#X connect 9 0 10 0;
#X connect 9 0 10 1;
#X connect 11 0 9 0;
#X connect 12 0 14 0;
#X connect 13 0 11 0;
#X connect 14 0 13 0;
