#N canvas 627 98 582 317 10;
#N canvas 636 377 252 339 long 0;
#X obj 63 264 hip~ 5;
#X obj 63 220 line~;
#X obj 78 59 r length;
#X obj 63 242 tabread4~ table-rec;
#X obj 63 81 f;
#X obj 63 286 outlet~;
#X obj 63 30 inlet;
#X obj 63 103 t f f;
#X obj 63 176 pack 0 0;
#X msg 63 198 0 \, \$1 \$2;
#X obj 108 152 / 1;
#X obj 155 130 r transp;
#X obj 16 41 r plong;
#X obj 108 130 / 44.1;
#X connect 0 0 5 0;
#X connect 1 0 3 0;
#X connect 2 0 4 1;
#X connect 3 0 0 0;
#X connect 4 0 7 0;
#X connect 6 0 4 0;
#X connect 7 0 8 0;
#X connect 7 1 13 0;
#X connect 8 0 9 0;
#X connect 9 0 1 0;
#X connect 10 0 8 1;
#X connect 11 0 10 1;
#X connect 12 0 4 0;
#X connect 13 0 10 0;
#X restore 42 57 pd long;
#N canvas 13 113 637 714 gran 0;
#X obj 199 498 hip~ 5;
#X obj 199 556 outlet~;
#X obj 198 45 inlet;
#X obj 198 145 metro 100;
#X obj 198 79 tgl 15 0 empty empty empty 17 7 0 10 -262144 -1 -1 0
1;
#X obj 279 86 hsl 128 15 50 1000 1 0 empty repeat repeat -2 -8 0 10
-262130 -1 -1 6650 1;
#X obj 271 171 random 100;
#X obj 271 193 / 100;
#X obj 271 215 + 1;
#X obj 198 191 bng 15 250 50 0 empty empty empty 17 7 0 10 -262144
-1 -1;
#X obj 249 110 * 100;
#X obj 330 147 hsl 128 15 0 500 0 0 empty repeat_jitter repeat_jitter
-2 -8 0 10 -261682 -1 -1 1905 1;
#X obj 37 117 hsl 128 15 50 500 0 0 empty empty empty -2 -8 0 10 -262144
-1 -1 0 1;
#X obj 34 143 s glength;
#X obj 199 371 route 0 1 2 3;
#X obj 199 290 list append;
#X obj 262 319 r transp;
#X obj 199 343 list append;
#X obj 439 236 r start;
#X obj 424 170 random 100;
#X obj 424 192 / 100;
#X obj 424 214 + 1;
#X obj 484 148 hsl 128 15 0 500 0 0 empty start_jitter start_jitter
-2 -8 0 10 -261682 -1 -1 7620 1;
#X obj 34 172 hsl 128 15 0 0.8 0 0 empty empty empty -2 -8 0 10 -262144
-1 -1 0 1;
#X obj 33 199 s start;
#N canvas 878 683 362 550 grain 0;
#X obj 60 303 line~;
#X obj 114 68 r length;
#X obj 60 324 tabread4~ table-rec;
#X obj 99 95 f;
#X obj 152 150 r transp;
#X obj 60 258 pack 0 0 0;
#X obj 142 122 r glength;
#X obj 60 435 outlet~;
#X obj 60 25 inlet;
#X obj 60 407 *~;
#N canvas 865 163 274 272 env 0;
#X obj 67 60 inlet;
#X obj 67 147 line~;
#X obj 118 104 del 100;
#X obj 67 168 outlet~;
#X obj 157 48 inlet;
#X msg 67 126 1 15;
#X msg 118 125 0 15;
#X obj 157 81 - 30;
#X connect 0 0 2 0;
#X connect 0 0 5 0;
#X connect 1 0 3 0;
#X connect 2 0 6 0;
#X connect 4 0 7 0;
#X connect 5 0 1 0;
#X connect 6 0 1 0;
#X connect 7 0 2 1;
#X restore 79 377 pd env;
#X obj 112 350 r glength;
#X obj 60 47 unpack;
#X msg 60 280 \$1 \, \$2 \$3;
#X obj 60 115 *;
#X obj 60 69 t f b b;
#X obj 60 137 t f f;
#X obj 87 220 +;
#X obj 102 175 * 1;
#X obj 152 172 t f b;
#X obj 101 197 * 44.1;
#X connect 0 0 2 0;
#X connect 1 0 3 1;
#X connect 2 0 9 0;
#X connect 3 0 14 1;
#X connect 4 0 19 0;
#X connect 5 0 13 0;
#X connect 6 0 18 0;
#X connect 6 0 5 2;
#X connect 8 0 12 0;
#X connect 9 0 7 0;
#X connect 10 0 9 1;
#X connect 11 0 10 1;
#X connect 12 0 15 0;
#X connect 13 0 0 0;
#X connect 14 0 16 0;
#X connect 15 0 14 0;
#X connect 15 1 10 0;
#X connect 15 2 3 0;
#X connect 16 0 5 0;
#X connect 16 1 17 0;
#X connect 17 0 5 1;
#X connect 18 0 20 0;
#X connect 19 0 18 1;
#X connect 19 1 18 0;
#X connect 20 0 17 1;
#X restore 199 403 pd grain;
#N canvas 312 207 450 300 count 0;
#X obj 37 37 inlet;
#X obj 82 92 + 1;
#X floatatom 42 158 5 0 0 0 - - -, f 5;
#X obj 24 189 outlet;
#X obj 41 92 f;
#X obj 42 136 mod 4;
#X connect 0 0 4 0;
#X connect 1 0 4 1;
#X connect 1 0 5 0;
#X connect 2 0 3 0;
#X connect 4 0 1 0;
#X connect 5 0 2 0;
#X restore 198 236 pd count;
#X obj 41 56 hsl 128 15 0.25 16 1 0 empty empty empty -2 -8 0 10 -262144
-1 -1 0 1;
#X obj 38 88 s transp;
#X obj 199 520 clip~ -1 1;
#X floatatom 110 89 5 0 0 0 - - -, f 5;
#N canvas 1140 494 362 550 grain 0;
#X obj 60 303 line~;
#X obj 114 68 r length;
#X obj 60 324 tabread4~ table-rec;
#X obj 99 95 f;
#X obj 152 150 r transp;
#X obj 60 258 pack 0 0 0;
#X obj 142 122 r glength;
#X obj 60 435 outlet~;
#X obj 60 25 inlet;
#X obj 60 407 *~;
#N canvas 865 163 274 272 env 0;
#X obj 67 60 inlet;
#X obj 67 147 line~;
#X obj 118 104 del 100;
#X obj 67 168 outlet~;
#X obj 157 48 inlet;
#X msg 67 126 1 15;
#X msg 118 125 0 15;
#X obj 157 81 - 30;
#X connect 0 0 2 0;
#X connect 0 0 5 0;
#X connect 1 0 3 0;
#X connect 2 0 6 0;
#X connect 4 0 7 0;
#X connect 5 0 1 0;
#X connect 6 0 1 0;
#X connect 7 0 2 1;
#X restore 79 377 pd env;
#X obj 112 350 r glength;
#X obj 60 47 unpack;
#X msg 60 280 \$1 \, \$2 \$3;
#X obj 60 115 *;
#X obj 60 69 t f b b;
#X obj 60 137 t f f;
#X obj 87 220 +;
#X obj 102 175 * 1;
#X obj 152 172 t f b;
#X obj 101 197 * 44.1;
#X connect 0 0 2 0;
#X connect 1 0 3 1;
#X connect 2 0 9 0;
#X connect 3 0 14 1;
#X connect 4 0 19 0;
#X connect 5 0 13 0;
#X connect 6 0 18 0;
#X connect 6 0 5 2;
#X connect 8 0 12 0;
#X connect 9 0 7 0;
#X connect 10 0 9 1;
#X connect 11 0 10 1;
#X connect 12 0 15 0;
#X connect 13 0 0 0;
#X connect 14 0 16 0;
#X connect 15 0 14 0;
#X connect 15 1 10 0;
#X connect 15 2 3 0;
#X connect 16 0 5 0;
#X connect 16 1 17 0;
#X connect 17 0 5 1;
#X connect 18 0 20 0;
#X connect 19 0 18 1;
#X connect 19 1 18 0;
#X connect 20 0 17 1;
#X restore 219 423 pd grain;
#N canvas 1140 494 362 550 grain 0;
#X obj 60 303 line~;
#X obj 114 68 r length;
#X obj 60 324 tabread4~ table-rec;
#X obj 99 95 f;
#X obj 152 150 r transp;
#X obj 60 258 pack 0 0 0;
#X obj 142 122 r glength;
#X obj 60 435 outlet~;
#X obj 60 25 inlet;
#X obj 60 407 *~;
#N canvas 865 163 274 272 env 0;
#X obj 67 60 inlet;
#X obj 67 147 line~;
#X obj 118 104 del 100;
#X obj 67 168 outlet~;
#X obj 157 48 inlet;
#X msg 67 126 1 15;
#X msg 118 125 0 15;
#X obj 157 81 - 30;
#X connect 0 0 2 0;
#X connect 0 0 5 0;
#X connect 1 0 3 0;
#X connect 2 0 6 0;
#X connect 4 0 7 0;
#X connect 5 0 1 0;
#X connect 6 0 1 0;
#X connect 7 0 2 1;
#X restore 79 377 pd env;
#X obj 112 350 r glength;
#X obj 60 47 unpack;
#X msg 60 280 \$1 \, \$2 \$3;
#X obj 60 115 *;
#X obj 60 69 t f b b;
#X obj 60 137 t f f;
#X obj 87 220 +;
#X obj 102 175 * 1;
#X obj 152 172 t f b;
#X obj 101 197 * 44.1;
#X connect 0 0 2 0;
#X connect 1 0 3 1;
#X connect 2 0 9 0;
#X connect 3 0 14 1;
#X connect 4 0 19 0;
#X connect 5 0 13 0;
#X connect 6 0 18 0;
#X connect 6 0 5 2;
#X connect 8 0 12 0;
#X connect 9 0 7 0;
#X connect 10 0 9 1;
#X connect 11 0 10 1;
#X connect 12 0 15 0;
#X connect 13 0 0 0;
#X connect 14 0 16 0;
#X connect 15 0 14 0;
#X connect 15 1 10 0;
#X connect 15 2 3 0;
#X connect 16 0 5 0;
#X connect 16 1 17 0;
#X connect 17 0 5 1;
#X connect 18 0 20 0;
#X connect 19 0 18 1;
#X connect 19 1 18 0;
#X connect 20 0 17 1;
#X restore 244 450 pd grain;
#N canvas 1140 494 362 550 grain 0;
#X obj 60 303 line~;
#X obj 114 68 r length;
#X obj 60 324 tabread4~ table-rec;
#X obj 99 95 f;
#X obj 152 150 r transp;
#X obj 60 258 pack 0 0 0;
#X obj 142 122 r glength;
#X obj 60 435 outlet~;
#X obj 60 25 inlet;
#X obj 60 407 *~;
#N canvas 865 163 274 272 env 0;
#X obj 67 60 inlet;
#X obj 67 147 line~;
#X obj 118 104 del 100;
#X obj 67 168 outlet~;
#X obj 157 48 inlet;
#X msg 67 126 1 15;
#X msg 118 125 0 15;
#X obj 157 81 - 30;
#X connect 0 0 2 0;
#X connect 0 0 5 0;
#X connect 1 0 3 0;
#X connect 2 0 6 0;
#X connect 4 0 7 0;
#X connect 5 0 1 0;
#X connect 6 0 1 0;
#X connect 7 0 2 1;
#X restore 79 377 pd env;
#X obj 112 350 r glength;
#X obj 60 47 unpack;
#X msg 60 280 \$1 \, \$2 \$3;
#X obj 60 115 *;
#X obj 60 69 t f b b;
#X obj 60 137 t f f;
#X obj 87 220 +;
#X obj 102 175 * 1;
#X obj 152 172 t f b;
#X obj 101 197 * 44.1;
#X connect 0 0 2 0;
#X connect 1 0 3 1;
#X connect 2 0 9 0;
#X connect 3 0 14 1;
#X connect 4 0 19 0;
#X connect 5 0 13 0;
#X connect 6 0 18 0;
#X connect 6 0 5 2;
#X connect 8 0 12 0;
#X connect 9 0 7 0;
#X connect 10 0 9 1;
#X connect 11 0 10 1;
#X connect 12 0 15 0;
#X connect 13 0 0 0;
#X connect 14 0 16 0;
#X connect 15 0 14 0;
#X connect 15 1 10 0;
#X connect 15 2 3 0;
#X connect 16 0 5 0;
#X connect 16 1 17 0;
#X connect 17 0 5 1;
#X connect 18 0 20 0;
#X connect 19 0 18 1;
#X connect 19 1 18 0;
#X connect 20 0 17 1;
#X restore 264 470 pd grain;
#X obj 182 109 r pgran;
#X obj 424 260 *;
#X connect 0 0 29 0;
#X connect 2 0 4 0;
#X connect 3 0 6 0;
#X connect 3 0 9 0;
#X connect 3 0 19 0;
#X connect 4 0 3 0;
#X connect 5 0 10 1;
#X connect 6 0 7 0;
#X connect 7 0 8 0;
#X connect 8 0 10 0;
#X connect 9 0 26 0;
#X connect 10 0 3 1;
#X connect 11 0 6 1;
#X connect 12 0 13 0;
#X connect 14 0 25 0;
#X connect 14 1 31 0;
#X connect 14 2 32 0;
#X connect 14 3 33 0;
#X connect 15 0 17 0;
#X connect 16 0 17 1;
#X connect 17 0 14 0;
#X connect 18 0 35 1;
#X connect 19 0 20 0;
#X connect 20 0 21 0;
#X connect 21 0 35 0;
#X connect 22 0 19 1;
#X connect 23 0 24 0;
#X connect 25 0 0 0;
#X connect 26 0 15 0;
#X connect 27 0 28 0;
#X connect 27 0 30 0;
#X connect 29 0 1 0;
#X connect 31 0 0 0;
#X connect 32 0 0 0;
#X connect 33 0 0 0;
#X connect 34 0 3 0;
#X connect 35 0 15 1;
#X restore 96 57 pd gran;
#N canvas 629 693 844 492 mobmuplat_ctl 0;
#X obj 47 41 receive fromSystem;
#X obj 47 68 list trim;
#X obj 47 95 route /tilts;
#X obj 47 122 unpack 0 0;
#X obj 231 41 receive fromGUI;
#X obj 231 68 list trim;
#X obj 47 226 s amp;
#X obj 170 352 send toGUI;
#X obj 47 173 *;
#X obj 47 147 expr ($f1+1)*0.7;
#X obj 47 200 *;
#X obj 38 442 s toGUI;
#X msg 38 418 list /table-rec refresh;
#X obj 38 373 r tab-refresh;
#X obj 38 395 del 4500;
#X obj 105 332 s transp;
#X obj 105 216 int;
#X obj 104 186 expr ($f1+1)*8;
#X obj 105 263 spigot;
#X obj 156 262 spigot;
#X obj 105 295 * 0.25;
#X obj 199 192 tgl 15 0 empty empty empty 17 7 0 10 -262144 -1 -1 1
1;
#X obj 231 117 s plong;
#X obj 278 117 s pgran;
#X obj 323 141 s rec;
#X obj 415 167 expr ($f1*450)+50;
#X obj 415 189 s glength;
#X obj 470 210 * 0.8;
#X obj 470 232 s start;
#X obj 524 167 expr ($f1*950)+50;
#X obj 523 189 s repeat;
#X obj 579 210 s repeat_jitter;
#X obj 579 189 * 500;
#X obj 633 167 * 500;
#X obj 633 189 s start_jitter;
#X obj 231 95 route /plong /pgran /rec /quant;
#X obj 359 283 route /fmod /depth /offs /feedb;
#X obj 359 304 * 100;
#X obj 359 331 s del_fmod;
#X obj 405 357 s del_depth;
#X obj 449 331 s del_offs;
#X obj 494 357 s del_feedb;
#X obj 496 304 * 100;
#X obj 403 304 * 500;
#X obj 449 304 * 500;
#X obj 322 118 sel 1;
#X msg 170 330 list /tdispl transp: \$1;
#X obj 244 193 loadbang;
#X msg 244 215 1;
#X obj 199 212 - 1;
#X obj 199 234 * -1;
#X obj 415 137 route /glength /start /repeat /rjitter /startjitt;
#X obj 177 157 r tra;
#X connect 0 0 1 0;
#X connect 1 0 2 0;
#X connect 2 0 3 0;
#X connect 3 0 9 0;
#X connect 3 1 17 0;
#X connect 4 0 5 0;
#X connect 5 0 35 0;
#X connect 8 0 10 0;
#X connect 8 0 10 1;
#X connect 9 0 8 0;
#X connect 9 0 8 1;
#X connect 10 0 6 0;
#X connect 12 0 11 0;
#X connect 13 0 14 0;
#X connect 14 0 12 0;
#X connect 16 0 18 0;
#X connect 17 0 19 0;
#X connect 17 0 16 0;
#X connect 18 0 20 0;
#X connect 19 0 20 0;
#X connect 20 0 15 0;
#X connect 20 0 46 0;
#X connect 21 0 18 1;
#X connect 21 0 49 0;
#X connect 25 0 26 0;
#X connect 27 0 28 0;
#X connect 29 0 30 0;
#X connect 32 0 31 0;
#X connect 33 0 34 0;
#X connect 35 0 22 0;
#X connect 35 1 23 0;
#X connect 35 2 45 0;
#X connect 35 3 21 0;
#X connect 35 4 36 0;
#X connect 35 4 51 0;
#X connect 36 0 37 0;
#X connect 36 1 43 0;
#X connect 36 2 44 0;
#X connect 36 3 42 0;
#X connect 37 0 38 0;
#X connect 42 0 41 0;
#X connect 43 0 39 0;
#X connect 44 0 40 0;
#X connect 45 0 24 0;
#X connect 46 0 7 0;
#X connect 47 0 48 0;
#X connect 48 0 21 0;
#X connect 49 0 50 0;
#X connect 50 0 19 1;
#X connect 51 0 25 0;
#X connect 51 1 27 0;
#X connect 51 2 29 0;
#X connect 51 3 32 0;
#X connect 51 4 33 0;
#X connect 52 0 17 0;
#X restore 128 226 pd mobmuplat_ctl;
#X text 78 117 fmod depth offs feedb;
#X text 55 129 [0.01Hz] [ms] [ms] [0.01];
#N canvas 213 23 770 699 mod-delay 0;
#X obj 136 199 line~;
#X obj 136 165 pack 0 100;
#X obj 264 418 line~;
#X obj 264 384 pack 0 100;
#X obj 264 350 * 0.01;
#X obj 33 363 +~;
#X obj 243 454 *~;
#X obj 61 227 *~;
#X obj 61 125 / 100;
#X obj 33 397 hip~ 5;
#X obj 61 193 +~ 1;
#X obj 61 159 osc~ 0;
#X text 114 91 <-- cycle frequency (hundredths);
#X text 189 132 <-- cycle depth (msec);
#X text 313 317 <-- feedback (hundredths);
#X obj 243 488 clip~ -1 1;
#X obj 234 233 line~;
#X obj 234 199 pack 0 100;
#X text 287 166 <-- offset (msec);
#X obj 166 272 +~ 1.46;
#X obj 61 261 +~;
#X obj 117 39 inlet;
#X obj 191 39 inlet;
#X obj 268 39 inlet;
#X obj 342 39 inlet;
#X obj 35 39 inlet~;
#X obj 33 559 outlet~;
#X obj 243 560 delwrite~ mod-del 1000;
#X obj 61 304 vd~ mod-del;
#X obj 243 526 lop~ 3000;
#X connect 0 0 7 1;
#X connect 1 0 0 0;
#X connect 2 0 6 1;
#X connect 3 0 2 0;
#X connect 4 0 3 0;
#X connect 5 0 9 0;
#X connect 6 0 15 0;
#X connect 7 0 20 0;
#X connect 8 0 11 0;
#X connect 9 0 6 0;
#X connect 9 0 26 0;
#X connect 10 0 7 0;
#X connect 11 0 10 0;
#X connect 15 0 29 0;
#X connect 16 0 19 0;
#X connect 17 0 16 0;
#X connect 19 0 20 1;
#X connect 20 0 28 0;
#X connect 21 0 8 0;
#X connect 22 0 1 0;
#X connect 23 0 17 0;
#X connect 24 0 4 0;
#X connect 25 0 5 0;
#X connect 28 0 5 1;
#X connect 29 0 27 0;
#X restore 42 167 pd mod-delay;
#X floatatom 59 144 5 0 0 0 - del_fmod -, f 5;
#X floatatom 101 144 5 0 0 0 - del_depth -, f 5;
#X floatatom 143 145 5 0 0 0 - del_offs -, f 5;
#X floatatom 188 144 5 0 0 0 - del_feedb -, f 5;
#X obj 42 232 dac~;
#X obj 42 200 clip~ -1 1;
#N canvas 136 535 447 338 rec 0;
#X obj 32 41 adc~;
#X obj 86 41 bng 15 250 50 0 empty rec empty 17 7 0 10 -258113 -1 -1
;
#X obj 86 93 s tab-refresh;
#N canvas 0 22 450 278 (subpatch) 0;
#X array table-rec 411032 float 2;
#X coords 0 1 411032 -1 200 140 1;
#X restore 195 41 graph;
#X obj 27 193 loadbang;
#X obj 27 243 soundfiler;
#X obj 32 66 tabwrite~ table-rec;
#X obj 27 268 s length;
#X msg 27 218 read -resize aaa-06.wav table-rec;
#X connect 0 0 6 0;
#X connect 1 0 2 0;
#X connect 1 0 6 0;
#X connect 4 0 8 0;
#X connect 5 0 7 0;
#X connect 8 0 5 0;
#X restore 188 249 pd rec;
#X obj 42 31 bng 15 250 50 0 empty empty empty 17 7 0 10 -262144 -1
-1;
#X obj 96 33 tgl 15 0 empty empty empty 17 7 0 10 -262144 -1 -1 0 1
;
#X obj 57 81 r amp;
#X obj 42 103 *~;
#N canvas 916 168 1056 526 GUI_ctl 0;
#X obj 113 170 vsl 20 128 0 1 0 0 empty set_glength glth 0 -9 0 10
-204786 -1 -1 3810 1;
#X obj 154 170 vsl 20 128 0 1 0 0 empty set_rep rep 0 -9 0 10 -204786
-1 -1 2540 1;
#X obj 195 170 vsl 20 128 0 1 0 0 empty set_rjit rjt 0 -9 0 10 -204786
-1 -1 1905 1;
#X obj 241 170 vsl 20 128 0 1 0 0 empty set_sjit sjt 0 -9 0 10 -204786
-1 -1 7620 1;
#X obj 115 128 hsl 150 25 0 1 0 0 empty set_start start_position -2
-8 0 10 -261234 -1 -1 2235 1;
#X obj 157 317 bng 25 250 50 0 rec empty rec 0 -9 0 10 -261234 -1 -1
;
#X obj 197 317 tgl 25 0 quant empty quant 0 -9 0 10 -204800 -1 -1 1
1;
#X obj 284 169 vradio 25 1 0 6 pres empty preset 0 -8 0 10 -232576
-1 -1 3;
#X obj 427 36 key;
#X msg 427 80 0;
#X msg 448 100 1;
#X msg 473 80 2;
#X msg 495 100 3;
#X msg 517 80 4;
#X msg 541 100 5;
#X obj 427 58 route 49 50 51 52 53 54;
#X obj 89 390 expr ($f1*450)+50;
#X obj 89 412 s glength;
#X obj 32 412 s start;
#X obj 198 390 expr ($f1*950)+50;
#X obj 197 412 s repeat;
#X obj 315 411 s repeat_jitter;
#X obj 315 390 * 500;
#X obj 419 388 * 500;
#X obj 419 410 s start_jitter;
#X obj 32 390 * 0.8;
#X obj 238 317 tgl 25 0 pgran empty gran 0 -9 0 10 -232576 -1 -1 0
1;
#X text 149 348 keys: L R Q G;
#X obj 422 168 route 108 114 113 103;
#X obj 425 255 keyup;
#X msg 425 308 0;
#X msg 462 308 0;
#X msg 422 193 1;
#X msg 452 193 1;
#X msg 514 193 1;
#X obj 425 283 route 108 103;
#X obj 483 193 bng 15 250 50 0 empty empty empty 17 7 0 10 -262144
-1 -1;
#X obj 605 34 r pres;
#X floatatom 605 56 5 0 0 0 - - -, f 5;
#X obj 117 317 bng 25 250 50 0 plong empty long 0 -9 0 10 -232576 -1
-1;
#X obj 605 75 route 0 1 2 3 4 5 6;
#X msg 605 108 \; set_start 0.15 \; set_glength 1 \; set_rep 0.1 \;
set_rjit 0.15 \; set_sjit 0.2 \; del_fmod 0 \; del_depth 0 \; del_offs
700 \; del_feedb 0;
#X msg 623 248 \; set_start 0.15 \; set_glength 1 \; set_rep 0.1 \;
set_rjit 0.15 \; set_sjit 0.2 \; del_fmod 0 \; del_depth 0 \; del_offs
700 \; del_feedb 80;
#X msg 837 248 \; set_start 0.15 \; set_glength 1 \; set_rep 0.2 \;
set_rjit 0.15 \; set_sjit 0.6 \; del_fmod 0 \; del_depth 0 \; del_offs
700 \; del_feedb 90;
#X msg 819 108 \; set_start 0.15 \; set_glength 0.3 \; set_rep 0.2
\; set_rjit 0.15 \; set_sjit 0.6 \; del_fmod 10 \; del_depth 30 \;
del_offs 700 \; del_feedb 90;
#X msg 730 248 \; set_start 0.15 \; set_glength 0.3 \; set_rep 0.2
\; set_rjit 0.15 \; set_sjit 0.6 \; del_fmod 5 \; del_depth 300 \;
del_offs 700 \; del_feedb 95;
#X msg 712 108 \; set_start 0.15 \; set_glength 0.3 \; set_rep 0.2
\; set_rjit 0.15 \; set_sjit 0.2 \; del_fmod 0 \; del_depth 0 \; del_offs
700 \; del_feedb 98;
#X obj 357 177 vsl 20 128 -1 1 0 0 tra set_sjit transp 0 -9 0 10 -204786
-1 -1 6800 1;
#X obj 329 177 vsl 20 128 1e-05 1 1 0 amp set_sjit amp 0 -9 0 10 -204786
-1 -1 12137 1;
#X floatatom 346 320 5 0 0 0 - - -, f 5;
#X connect 0 0 16 0;
#X connect 1 0 19 0;
#X connect 2 0 22 0;
#X connect 3 0 23 0;
#X connect 4 0 25 0;
#X connect 8 0 15 0;
#X connect 8 0 28 0;
#X connect 9 0 7 0;
#X connect 10 0 7 0;
#X connect 11 0 7 0;
#X connect 12 0 7 0;
#X connect 13 0 7 0;
#X connect 14 0 7 0;
#X connect 15 0 9 0;
#X connect 15 1 10 0;
#X connect 15 2 11 0;
#X connect 15 3 12 0;
#X connect 15 4 13 0;
#X connect 15 5 14 0;
#X connect 16 0 17 0;
#X connect 19 0 20 0;
#X connect 22 0 21 0;
#X connect 23 0 24 0;
#X connect 25 0 18 0;
#X connect 28 0 32 0;
#X connect 28 1 33 0;
#X connect 28 2 36 0;
#X connect 28 3 34 0;
#X connect 29 0 35 0;
#X connect 31 0 26 0;
#X connect 32 0 39 0;
#X connect 33 0 5 0;
#X connect 34 0 26 0;
#X connect 35 0 30 0;
#X connect 35 1 31 0;
#X connect 36 0 6 0;
#X connect 37 0 38 0;
#X connect 38 0 40 0;
#X connect 40 0 41 0;
#X connect 40 1 42 0;
#X connect 40 2 46 0;
#X connect 40 3 45 0;
#X connect 40 4 44 0;
#X connect 40 5 43 0;
#X connect 47 0 49 0;
#X coords 0 -1 1 1 300 280 2 100 100;
#X restore 247 17 pd GUI_ctl;
#X connect 0 0 16 0;
#X connect 1 0 16 0;
#X connect 5 0 11 0;
#X connect 6 0 5 1;
#X connect 7 0 5 2;
#X connect 8 0 5 3;
#X connect 9 0 5 4;
#X connect 11 0 10 1;
#X connect 11 0 10 0;
#X connect 13 0 0 0;
#X connect 14 0 1 0;
#X connect 15 0 16 1;
#X connect 16 0 5 0;
