#N canvas 276 95 509 485 10;
#X obj 50 80 mtof;
#X floatatom 50 102 5 0 0 0 - - -;
#X msg 245 216 \$1 30;
#X obj 245 237 line~;
#X obj 70 384 *~;
#X obj 245 195 / 256;
#X obj 49 34 inlet;
#X obj 70 402 outlet~;
#X obj 49 52 unpack;
#X obj 37 336 -~;
#X obj 176 174 /~;
#X obj 192 149 clip~ 1 999999;
#X obj 51 132 phasor~;
#X obj 63 194 *~;
#X obj 63 218 clip~ -0.5 0.5;
#X obj 63 242 *~ 1000;
#X obj 63 266 +~ 501;
#X obj 51 156 -~ 0.5;
#X obj 176 123 * 0.4;
#X obj 177 70 loadbang;
#X msg 177 91 22050;
#X obj 63 290 tabread4~ transition;
#X obj 37 360 vcf~ 1;
#X obj 369 204 sel 0;
#X floatatom 371 165 5 0 0 0 - - -;
#X msg 413 229 3000 300;
#X msg 369 225 0;
#X obj 445 203 del 300;
#X msg 444 251 300 500;
#X obj 402 284 line~;
#X connect 0 0 1 0;
#X connect 1 0 12 0;
#X connect 1 0 11 0;
#X connect 2 0 3 0;
#X connect 3 0 4 1;
#X connect 4 0 7 0;
#X connect 5 0 2 0;
#X connect 6 0 8 0;
#X connect 8 0 0 0;
#X connect 8 1 5 0;
#X connect 8 1 24 0;
#X connect 9 0 22 0;
#X connect 10 0 13 1;
#X connect 11 0 10 1;
#X connect 12 0 17 0;
#X connect 13 0 14 0;
#X connect 14 0 15 0;
#X connect 15 0 16 0;
#X connect 16 0 21 0;
#X connect 17 0 13 0;
#X connect 17 0 9 1;
#X connect 18 0 10 0;
#X connect 19 0 20 0;
#X connect 20 0 18 0;
#X connect 21 0 9 0;
#X connect 22 1 4 0;
#X connect 23 0 26 0;
#X connect 23 1 25 0;
#X connect 23 1 27 0;
#X connect 24 0 23 0;
#X connect 25 0 29 0;
#X connect 27 0 28 0;
#X connect 28 0 29 0;
#X connect 29 0 22 1;
