#N canvas 1103 481 450 292 10;
#X obj 214 79 qlist;
#X obj 214 26 bng 15 250 50 0 empty empty empty 17 7 0 10 -262144 -1
-1;
#X obj 61 82 r note;
#N canvas 1387 277 620 310 polysynth 0;
#X obj 62 20 inlet;
#X obj 62 84 pack f f f;
#X obj 58 209 outlet~;
#X obj 62 52 poly 5 1;
#X obj 62 119 route 1 2 3 4 5, f 18;
#N canvas 1647 541 318 480 fm-synth 0;
#X obj 26 28 inlet;
#X obj 26 418 outlet~;
#X obj 26 129 mtof;
#X obj 26 337 osc~;
#X obj 26 304 +~;
#X obj 64 194 osc~;
#N canvas 1463 907 358 353 percenv 0;
#X obj 63 35 inlet~;
#X obj 63 288 outlet~;
#X obj 165 35 inlet;
#X obj 63 248 *~;
#X obj 113 137 line~;
#X obj 113 172 *~;
#X obj 113 206 *~;
#X msg 113 101 1 5;
#X obj 217 70 del 5;
#X msg 216 100 0 1800;
#X connect 0 0 3 0;
#X connect 2 0 7 0;
#X connect 2 0 8 0;
#X connect 3 0 1 0;
#X connect 4 0 5 0;
#X connect 4 0 5 1;
#X connect 5 0 6 0;
#X connect 5 0 6 1;
#X connect 6 0 3 1;
#X connect 7 0 4 0;
#X connect 8 0 9 0;
#X connect 9 0 4 0;
#X restore 64 268 pd percenv;
#N canvas 1463 907 358 353 percenv 0;
#X obj 63 35 inlet~;
#X obj 63 288 outlet~;
#X obj 165 35 inlet;
#X obj 63 248 *~;
#X obj 113 137 line~;
#X obj 113 172 *~;
#X obj 113 206 *~;
#X msg 216 100 0 2500;
#X msg 113 101 0.5 25;
#X obj 216 70 del 25;
#X connect 0 0 3 0;
#X connect 2 0 8 0;
#X connect 2 0 9 0;
#X connect 3 0 1 0;
#X connect 4 0 5 0;
#X connect 4 0 5 1;
#X connect 5 0 6 0;
#X connect 5 0 6 1;
#X connect 6 0 3 1;
#X connect 7 0 4 0;
#X connect 8 0 4 0;
#X connect 9 0 7 0;
#X restore 26 382 pd percenv;
#X obj 26 100 t f b;
#X obj 26 57 unpack;
#X obj 64 224 *~;
#X obj 111 194 * 20;
#X obj 64 162 * 5.01;
#X connect 0 0 9 0;
#X connect 2 0 4 0;
#X connect 2 0 12 0;
#X connect 3 0 7 0;
#X connect 4 0 3 0;
#X connect 5 0 10 0;
#X connect 6 0 4 1;
#X connect 7 0 1 0;
#X connect 8 0 2 0;
#X connect 8 1 7 1;
#X connect 8 1 6 1;
#X connect 9 0 8 0;
#X connect 9 1 11 0;
#X connect 10 0 6 0;
#X connect 11 0 10 1;
#X connect 12 0 5 0;
#X restore 23 152 pd fm-synth;
#N canvas 1647 541 318 480 fm-synth 0;
#X obj 27 28 inlet;
#X obj 26 418 outlet~;
#X obj 26 129 mtof;
#X obj 26 337 osc~;
#X obj 26 304 +~;
#X obj 64 194 osc~;
#N canvas 1463 907 358 353 percenv 0;
#X obj 63 35 inlet~;
#X obj 63 288 outlet~;
#X obj 165 35 inlet;
#X obj 63 248 *~;
#X obj 113 137 line~;
#X obj 113 172 *~;
#X obj 113 206 *~;
#X msg 113 101 1 5;
#X obj 217 70 del 5;
#X msg 216 100 0 1800;
#X connect 0 0 3 0;
#X connect 2 0 7 0;
#X connect 2 0 8 0;
#X connect 3 0 1 0;
#X connect 4 0 5 0;
#X connect 4 0 5 1;
#X connect 5 0 6 0;
#X connect 5 0 6 1;
#X connect 6 0 3 1;
#X connect 7 0 4 0;
#X connect 8 0 9 0;
#X connect 9 0 4 0;
#X restore 64 268 pd percenv;
#N canvas 1463 907 358 353 percenv 0;
#X obj 63 35 inlet~;
#X obj 63 288 outlet~;
#X obj 165 35 inlet;
#X obj 63 248 *~;
#X obj 113 137 line~;
#X obj 113 172 *~;
#X obj 113 206 *~;
#X msg 216 100 0 2500;
#X msg 113 101 0.5 25;
#X obj 216 70 del 25;
#X connect 0 0 3 0;
#X connect 2 0 8 0;
#X connect 2 0 9 0;
#X connect 3 0 1 0;
#X connect 4 0 5 0;
#X connect 4 0 5 1;
#X connect 5 0 6 0;
#X connect 5 0 6 1;
#X connect 6 0 3 1;
#X connect 7 0 4 0;
#X connect 8 0 4 0;
#X connect 9 0 7 0;
#X restore 26 382 pd percenv;
#X obj 27 100 t f b;
#X obj 27 49 unpack;
#X obj 64 224 *~;
#X obj 111 194 * 20;
#X obj 64 162 * 5.01;
#X connect 0 0 9 0;
#X connect 2 0 4 0;
#X connect 2 0 12 0;
#X connect 3 0 7 0;
#X connect 4 0 3 0;
#X connect 5 0 10 0;
#X connect 6 0 4 1;
#X connect 7 0 1 0;
#X connect 8 0 2 0;
#X connect 8 1 7 1;
#X connect 8 1 6 1;
#X connect 9 0 8 0;
#X connect 9 1 11 0;
#X connect 10 0 6 0;
#X connect 11 0 10 1;
#X connect 12 0 5 0;
#X restore 104 152 pd fm-synth;
#N canvas 1647 541 318 480 fm-synth 0;
#X obj 27 28 inlet;
#X obj 26 418 outlet~;
#X obj 26 129 mtof;
#X obj 26 337 osc~;
#X obj 26 304 +~;
#X obj 64 194 osc~;
#N canvas 1463 907 358 353 percenv 0;
#X obj 63 35 inlet~;
#X obj 63 288 outlet~;
#X obj 165 35 inlet;
#X obj 63 248 *~;
#X obj 113 137 line~;
#X obj 113 172 *~;
#X obj 113 206 *~;
#X msg 113 101 1 5;
#X obj 217 70 del 5;
#X msg 216 100 0 1800;
#X connect 0 0 3 0;
#X connect 2 0 7 0;
#X connect 2 0 8 0;
#X connect 3 0 1 0;
#X connect 4 0 5 0;
#X connect 4 0 5 1;
#X connect 5 0 6 0;
#X connect 5 0 6 1;
#X connect 6 0 3 1;
#X connect 7 0 4 0;
#X connect 8 0 9 0;
#X connect 9 0 4 0;
#X restore 64 268 pd percenv;
#N canvas 1463 907 358 353 percenv 0;
#X obj 63 35 inlet~;
#X obj 63 288 outlet~;
#X obj 165 35 inlet;
#X obj 63 248 *~;
#X obj 113 137 line~;
#X obj 113 172 *~;
#X obj 113 206 *~;
#X msg 216 100 0 2500;
#X msg 113 101 0.5 25;
#X obj 216 70 del 25;
#X connect 0 0 3 0;
#X connect 2 0 8 0;
#X connect 2 0 9 0;
#X connect 3 0 1 0;
#X connect 4 0 5 0;
#X connect 4 0 5 1;
#X connect 5 0 6 0;
#X connect 5 0 6 1;
#X connect 6 0 3 1;
#X connect 7 0 4 0;
#X connect 8 0 4 0;
#X connect 9 0 7 0;
#X restore 26 382 pd percenv;
#X obj 27 100 t f b;
#X obj 27 49 unpack;
#X obj 64 224 *~;
#X obj 111 194 * 20;
#X obj 64 162 * 5.01;
#X connect 0 0 9 0;
#X connect 2 0 4 0;
#X connect 2 0 12 0;
#X connect 3 0 7 0;
#X connect 4 0 3 0;
#X connect 5 0 10 0;
#X connect 6 0 4 1;
#X connect 7 0 1 0;
#X connect 8 0 2 0;
#X connect 8 1 7 1;
#X connect 8 1 6 1;
#X connect 9 0 8 0;
#X connect 9 1 11 0;
#X connect 10 0 6 0;
#X connect 11 0 10 1;
#X connect 12 0 5 0;
#X restore 58 177 pd fm-synth;
#N canvas 1647 541 318 480 fm-synth 0;
#X obj 27 28 inlet;
#X obj 26 418 outlet~;
#X obj 26 129 mtof;
#X obj 26 337 osc~;
#X obj 26 304 +~;
#X obj 64 194 osc~;
#N canvas 1463 907 358 353 percenv 0;
#X obj 63 35 inlet~;
#X obj 63 288 outlet~;
#X obj 165 35 inlet;
#X obj 63 248 *~;
#X obj 113 137 line~;
#X obj 113 172 *~;
#X obj 113 206 *~;
#X msg 113 101 1 5;
#X obj 217 70 del 5;
#X msg 216 100 0 1800;
#X connect 0 0 3 0;
#X connect 2 0 7 0;
#X connect 2 0 8 0;
#X connect 3 0 1 0;
#X connect 4 0 5 0;
#X connect 4 0 5 1;
#X connect 5 0 6 0;
#X connect 5 0 6 1;
#X connect 6 0 3 1;
#X connect 7 0 4 0;
#X connect 8 0 9 0;
#X connect 9 0 4 0;
#X restore 64 268 pd percenv;
#N canvas 1463 907 358 353 percenv 0;
#X obj 63 35 inlet~;
#X obj 63 288 outlet~;
#X obj 165 35 inlet;
#X obj 63 248 *~;
#X obj 113 137 line~;
#X obj 113 172 *~;
#X obj 113 206 *~;
#X msg 216 100 0 2500;
#X msg 113 101 0.5 25;
#X obj 216 70 del 25;
#X connect 0 0 3 0;
#X connect 2 0 8 0;
#X connect 2 0 9 0;
#X connect 3 0 1 0;
#X connect 4 0 5 0;
#X connect 4 0 5 1;
#X connect 5 0 6 0;
#X connect 5 0 6 1;
#X connect 6 0 3 1;
#X connect 7 0 4 0;
#X connect 8 0 4 0;
#X connect 9 0 7 0;
#X restore 26 382 pd percenv;
#X obj 27 100 t f b;
#X obj 27 49 unpack;
#X obj 64 224 *~;
#X obj 111 194 * 20;
#X obj 64 162 * 5.01;
#X connect 0 0 9 0;
#X connect 2 0 4 0;
#X connect 2 0 12 0;
#X connect 3 0 7 0;
#X connect 4 0 3 0;
#X connect 5 0 10 0;
#X connect 6 0 4 1;
#X connect 7 0 1 0;
#X connect 8 0 2 0;
#X connect 8 1 7 1;
#X connect 8 1 6 1;
#X connect 9 0 8 0;
#X connect 9 1 11 0;
#X connect 10 0 6 0;
#X connect 11 0 10 1;
#X connect 12 0 5 0;
#X restore 143 177 pd fm-synth;
#N canvas 1647 541 318 480 fm-synth 0;
#X obj 27 28 inlet;
#X obj 26 418 outlet~;
#X obj 26 129 mtof;
#X obj 26 337 osc~;
#X obj 26 304 +~;
#X obj 64 194 osc~;
#N canvas 1463 907 358 353 percenv 0;
#X obj 63 35 inlet~;
#X obj 63 288 outlet~;
#X obj 165 35 inlet;
#X obj 63 248 *~;
#X obj 113 137 line~;
#X obj 113 172 *~;
#X obj 113 206 *~;
#X msg 113 101 1 5;
#X obj 217 70 del 5;
#X msg 216 100 0 1800;
#X connect 0 0 3 0;
#X connect 2 0 7 0;
#X connect 2 0 8 0;
#X connect 3 0 1 0;
#X connect 4 0 5 0;
#X connect 4 0 5 1;
#X connect 5 0 6 0;
#X connect 5 0 6 1;
#X connect 6 0 3 1;
#X connect 7 0 4 0;
#X connect 8 0 9 0;
#X connect 9 0 4 0;
#X restore 64 268 pd percenv;
#N canvas 1463 907 358 353 percenv 0;
#X obj 63 35 inlet~;
#X obj 63 288 outlet~;
#X obj 165 35 inlet;
#X obj 63 248 *~;
#X obj 113 137 line~;
#X obj 113 172 *~;
#X obj 113 206 *~;
#X msg 216 100 0 2500;
#X msg 113 101 0.5 25;
#X obj 216 70 del 25;
#X connect 0 0 3 0;
#X connect 2 0 8 0;
#X connect 2 0 9 0;
#X connect 3 0 1 0;
#X connect 4 0 5 0;
#X connect 4 0 5 1;
#X connect 5 0 6 0;
#X connect 5 0 6 1;
#X connect 6 0 3 1;
#X connect 7 0 4 0;
#X connect 8 0 4 0;
#X connect 9 0 7 0;
#X restore 26 382 pd percenv;
#X obj 27 100 t f b;
#X obj 27 49 unpack;
#X obj 64 224 *~;
#X obj 111 194 * 20;
#X obj 64 162 * 5.01;
#X connect 0 0 9 0;
#X connect 2 0 4 0;
#X connect 2 0 12 0;
#X connect 3 0 7 0;
#X connect 4 0 3 0;
#X connect 5 0 10 0;
#X connect 6 0 4 1;
#X connect 7 0 1 0;
#X connect 8 0 2 0;
#X connect 8 1 7 1;
#X connect 8 1 6 1;
#X connect 9 0 8 0;
#X connect 9 1 11 0;
#X connect 10 0 6 0;
#X connect 11 0 10 1;
#X connect 12 0 5 0;
#X restore 186 152 pd fm-synth;
#X connect 0 0 3 0;
#X connect 1 0 4 0;
#X connect 3 0 1 0;
#X connect 3 1 1 1;
#X connect 3 2 1 2;
#X connect 4 0 5 0;
#X connect 4 1 7 0;
#X connect 4 2 6 0;
#X connect 4 3 8 0;
#X connect 4 4 9 0;
#X connect 5 0 2 0;
#X connect 6 0 2 0;
#X connect 7 0 2 0;
#X connect 8 0 2 0;
#X connect 9 0 2 0;
#X restore 61 110 pd polysynth;
#X obj 62 233 dac~;
#X obj 62 203 *~;
#X floatatom 107 137 5 0 0 0 - - -, f 5;
#X floatatom 107 178 5 0 0 0 - - -, f 5;
#X obj 107 157 dbtorms;
#X obj 99 204 rev2~ 90 90 3000 20;
#X msg 268 52 next;
#X msg 308 52 next 10;
#X msg 306 26 write fairy.txt;
#X msg 204 52 tempo 1;
#X obj 17 110 print;
#X msg 248 26 rewind;
#X connect 1 0 0 0;
#X connect 2 0 3 0;
#X connect 2 0 14 0;
#X connect 3 0 5 0;
#X connect 3 0 9 0;
#X connect 5 0 4 0;
#X connect 5 0 4 1;
#X connect 6 0 8 0;
#X connect 7 0 5 1;
#X connect 8 0 7 0;
#X connect 9 0 4 0;
#X connect 9 1 4 1;
#X connect 10 0 0 0;
#X connect 11 0 0 0;
#X connect 12 0 0 0;
#X connect 13 0 0 0;
#X connect 15 0 0 0;
