#N canvas 752 723 277 355 10;
#N canvas 1387 277 620 310 polysynth 0;
#X obj 65 20 inlet;
#X obj 65 84 pack f f f;
#X obj 82 206 outlet~;
#X obj 65 52 poly 5 1;
#X obj 62 119 route 1 2 3 4 5, f 18;
#N canvas 1647 541 318 480 fm-synth 0;
#X obj 27 28 inlet;
#X obj 26 418 outlet~;
#X obj 26 129 mtof;
#X obj 26 337 osc~;
#X obj 26 304 +~;
#X obj 64 194 osc~;
#N canvas 1463 907 358 353 percenv 0;
#X obj 63 35 inlet~;
#X obj 63 288 outlet~;
#X obj 165 35 inlet;
#X obj 63 248 *~;
#X obj 113 137 line~;
#X obj 113 172 *~;
#X obj 113 206 *~;
#X msg 113 101 1 5;
#X obj 217 70 del 5;
#X msg 216 100 0 1800;
#X connect 0 0 3 0;
#X connect 2 0 7 0;
#X connect 2 0 8 0;
#X connect 3 0 1 0;
#X connect 4 0 5 0;
#X connect 4 0 5 1;
#X connect 5 0 6 0;
#X connect 5 0 6 1;
#X connect 6 0 3 1;
#X connect 7 0 4 0;
#X connect 8 0 9 0;
#X connect 9 0 4 0;
#X restore 64 268 pd percenv;
#N canvas 1463 907 358 353 percenv 0;
#X obj 63 35 inlet~;
#X obj 63 288 outlet~;
#X obj 165 35 inlet;
#X obj 63 248 *~;
#X obj 113 137 line~;
#X obj 113 172 *~;
#X obj 113 206 *~;
#X msg 216 100 0 2500;
#X msg 113 101 0.5 25;
#X obj 216 70 del 25;
#X connect 0 0 3 0;
#X connect 2 0 8 0;
#X connect 2 0 9 0;
#X connect 3 0 1 0;
#X connect 4 0 5 0;
#X connect 4 0 5 1;
#X connect 5 0 6 0;
#X connect 5 0 6 1;
#X connect 6 0 3 1;
#X connect 7 0 4 0;
#X connect 8 0 4 0;
#X connect 9 0 7 0;
#X restore 26 382 pd percenv;
#X obj 27 100 t f b;
#X obj 27 49 unpack;
#X obj 64 224 *~;
#X obj 111 194 * 20;
#X obj 64 162 * 5.01;
#X connect 0 0 9 0;
#X connect 2 0 4 0;
#X connect 2 0 12 0;
#X connect 3 0 7 0;
#X connect 4 0 3 0;
#X connect 5 0 10 0;
#X connect 6 0 4 1;
#X connect 7 0 1 0;
#X connect 8 0 2 0;
#X connect 8 1 7 1;
#X connect 8 1 6 1;
#X connect 9 0 8 0;
#X connect 9 1 11 0;
#X connect 10 0 6 0;
#X connect 11 0 10 1;
#X connect 12 0 5 0;
#X restore 48 152 pd fm-synth;
#N canvas 1647 541 318 480 fm-synth 0;
#X obj 27 28 inlet;
#X obj 26 418 outlet~;
#X obj 26 129 mtof;
#X obj 26 337 osc~;
#X obj 26 304 +~;
#X obj 64 194 osc~;
#N canvas 1463 907 358 353 percenv 0;
#X obj 63 35 inlet~;
#X obj 63 288 outlet~;
#X obj 165 35 inlet;
#X obj 63 248 *~;
#X obj 113 137 line~;
#X obj 113 172 *~;
#X obj 113 206 *~;
#X msg 113 101 1 5;
#X obj 217 70 del 5;
#X msg 216 100 0 1800;
#X connect 0 0 3 0;
#X connect 2 0 7 0;
#X connect 2 0 8 0;
#X connect 3 0 1 0;
#X connect 4 0 5 0;
#X connect 4 0 5 1;
#X connect 5 0 6 0;
#X connect 5 0 6 1;
#X connect 6 0 3 1;
#X connect 7 0 4 0;
#X connect 8 0 9 0;
#X connect 9 0 4 0;
#X restore 64 268 pd percenv;
#N canvas 1463 907 358 353 percenv 0;
#X obj 63 35 inlet~;
#X obj 63 288 outlet~;
#X obj 165 35 inlet;
#X obj 63 248 *~;
#X obj 113 137 line~;
#X obj 113 172 *~;
#X obj 113 206 *~;
#X msg 216 100 0 2500;
#X msg 113 101 0.5 25;
#X obj 216 70 del 25;
#X connect 0 0 3 0;
#X connect 2 0 8 0;
#X connect 2 0 9 0;
#X connect 3 0 1 0;
#X connect 4 0 5 0;
#X connect 4 0 5 1;
#X connect 5 0 6 0;
#X connect 5 0 6 1;
#X connect 6 0 3 1;
#X connect 7 0 4 0;
#X connect 8 0 4 0;
#X connect 9 0 7 0;
#X restore 26 382 pd percenv;
#X obj 27 100 t f b;
#X obj 27 49 unpack;
#X obj 64 224 *~;
#X obj 111 194 * 20;
#X obj 64 162 * 5.01;
#X connect 0 0 9 0;
#X connect 2 0 4 0;
#X connect 2 0 12 0;
#X connect 3 0 7 0;
#X connect 4 0 3 0;
#X connect 5 0 10 0;
#X connect 6 0 4 1;
#X connect 7 0 1 0;
#X connect 8 0 2 0;
#X connect 8 1 7 1;
#X connect 8 1 6 1;
#X connect 9 0 8 0;
#X connect 9 1 11 0;
#X connect 10 0 6 0;
#X connect 11 0 10 1;
#X connect 12 0 5 0;
#X restore 85 176 pd fm-synth;
#N canvas 1647 541 318 480 fm-synth 0;
#X obj 27 28 inlet;
#X obj 26 418 outlet~;
#X obj 26 129 mtof;
#X obj 26 337 osc~;
#X obj 26 304 +~;
#X obj 64 194 osc~;
#N canvas 1463 907 358 353 percenv 0;
#X obj 63 35 inlet~;
#X obj 63 288 outlet~;
#X obj 165 35 inlet;
#X obj 63 248 *~;
#X obj 113 137 line~;
#X obj 113 172 *~;
#X obj 113 206 *~;
#X msg 113 101 1 5;
#X obj 217 70 del 5;
#X msg 216 100 0 1800;
#X connect 0 0 3 0;
#X connect 2 0 7 0;
#X connect 2 0 8 0;
#X connect 3 0 1 0;
#X connect 4 0 5 0;
#X connect 4 0 5 1;
#X connect 5 0 6 0;
#X connect 5 0 6 1;
#X connect 6 0 3 1;
#X connect 7 0 4 0;
#X connect 8 0 9 0;
#X connect 9 0 4 0;
#X restore 64 268 pd percenv;
#N canvas 1463 907 358 353 percenv 0;
#X obj 63 35 inlet~;
#X obj 63 288 outlet~;
#X obj 165 35 inlet;
#X obj 63 248 *~;
#X obj 113 137 line~;
#X obj 113 172 *~;
#X obj 113 206 *~;
#X msg 216 100 0 2500;
#X msg 113 101 0.5 25;
#X obj 216 70 del 25;
#X connect 0 0 3 0;
#X connect 2 0 8 0;
#X connect 2 0 9 0;
#X connect 3 0 1 0;
#X connect 4 0 5 0;
#X connect 4 0 5 1;
#X connect 5 0 6 0;
#X connect 5 0 6 1;
#X connect 6 0 3 1;
#X connect 7 0 4 0;
#X connect 8 0 4 0;
#X connect 9 0 7 0;
#X restore 26 382 pd percenv;
#X obj 27 100 t f b;
#X obj 27 49 unpack;
#X obj 64 224 *~;
#X obj 111 194 * 20;
#X obj 64 162 * 5.01;
#X connect 0 0 9 0;
#X connect 2 0 4 0;
#X connect 2 0 12 0;
#X connect 3 0 7 0;
#X connect 4 0 3 0;
#X connect 5 0 10 0;
#X connect 6 0 4 1;
#X connect 7 0 1 0;
#X connect 8 0 2 0;
#X connect 8 1 7 1;
#X connect 8 1 6 1;
#X connect 9 0 8 0;
#X connect 9 1 11 0;
#X connect 10 0 6 0;
#X connect 11 0 10 1;
#X connect 12 0 5 0;
#X restore 128 152 pd fm-synth;
#N canvas 1647 541 318 480 fm-synth 0;
#X obj 27 28 inlet;
#X obj 26 418 outlet~;
#X obj 26 129 mtof;
#X obj 26 337 osc~;
#X obj 26 304 +~;
#X obj 64 194 osc~;
#N canvas 1463 907 358 353 percenv 0;
#X obj 63 35 inlet~;
#X obj 63 288 outlet~;
#X obj 165 35 inlet;
#X obj 63 248 *~;
#X obj 113 137 line~;
#X obj 113 172 *~;
#X obj 113 206 *~;
#X msg 113 101 1 5;
#X obj 217 70 del 5;
#X msg 216 100 0 1800;
#X connect 0 0 3 0;
#X connect 2 0 7 0;
#X connect 2 0 8 0;
#X connect 3 0 1 0;
#X connect 4 0 5 0;
#X connect 4 0 5 1;
#X connect 5 0 6 0;
#X connect 5 0 6 1;
#X connect 6 0 3 1;
#X connect 7 0 4 0;
#X connect 8 0 9 0;
#X connect 9 0 4 0;
#X restore 64 268 pd percenv;
#N canvas 1463 907 358 353 percenv 0;
#X obj 63 35 inlet~;
#X obj 63 288 outlet~;
#X obj 165 35 inlet;
#X obj 63 248 *~;
#X obj 113 137 line~;
#X obj 113 172 *~;
#X obj 113 206 *~;
#X msg 216 100 0 2500;
#X msg 113 101 0.5 25;
#X obj 216 70 del 25;
#X connect 0 0 3 0;
#X connect 2 0 8 0;
#X connect 2 0 9 0;
#X connect 3 0 1 0;
#X connect 4 0 5 0;
#X connect 4 0 5 1;
#X connect 5 0 6 0;
#X connect 5 0 6 1;
#X connect 6 0 3 1;
#X connect 7 0 4 0;
#X connect 8 0 4 0;
#X connect 9 0 7 0;
#X restore 26 382 pd percenv;
#X obj 27 100 t f b;
#X obj 27 49 unpack;
#X obj 64 224 *~;
#X obj 111 194 * 20;
#X obj 64 162 * 5.01;
#X connect 0 0 9 0;
#X connect 2 0 4 0;
#X connect 2 0 12 0;
#X connect 3 0 7 0;
#X connect 4 0 3 0;
#X connect 5 0 10 0;
#X connect 6 0 4 1;
#X connect 7 0 1 0;
#X connect 8 0 2 0;
#X connect 8 1 7 1;
#X connect 8 1 6 1;
#X connect 9 0 8 0;
#X connect 9 1 11 0;
#X connect 10 0 6 0;
#X connect 11 0 10 1;
#X connect 12 0 5 0;
#X restore 168 176 pd fm-synth;
#N canvas 1647 541 318 480 fm-synth 0;
#X obj 27 28 inlet;
#X obj 26 418 outlet~;
#X obj 26 129 mtof;
#X obj 26 337 osc~;
#X obj 26 304 +~;
#X obj 64 194 osc~;
#N canvas 1463 907 358 353 percenv 0;
#X obj 63 35 inlet~;
#X obj 63 288 outlet~;
#X obj 165 35 inlet;
#X obj 63 248 *~;
#X obj 113 137 line~;
#X obj 113 172 *~;
#X obj 113 206 *~;
#X msg 113 101 1 5;
#X obj 217 70 del 5;
#X msg 216 100 0 1800;
#X connect 0 0 3 0;
#X connect 2 0 7 0;
#X connect 2 0 8 0;
#X connect 3 0 1 0;
#X connect 4 0 5 0;
#X connect 4 0 5 1;
#X connect 5 0 6 0;
#X connect 5 0 6 1;
#X connect 6 0 3 1;
#X connect 7 0 4 0;
#X connect 8 0 9 0;
#X connect 9 0 4 0;
#X restore 64 268 pd percenv;
#N canvas 1463 907 358 353 percenv 0;
#X obj 63 35 inlet~;
#X obj 63 288 outlet~;
#X obj 165 35 inlet;
#X obj 63 248 *~;
#X obj 113 137 line~;
#X obj 113 172 *~;
#X obj 113 206 *~;
#X msg 216 100 0 2500;
#X msg 113 101 0.5 25;
#X obj 216 70 del 25;
#X connect 0 0 3 0;
#X connect 2 0 8 0;
#X connect 2 0 9 0;
#X connect 3 0 1 0;
#X connect 4 0 5 0;
#X connect 4 0 5 1;
#X connect 5 0 6 0;
#X connect 5 0 6 1;
#X connect 6 0 3 1;
#X connect 7 0 4 0;
#X connect 8 0 4 0;
#X connect 9 0 7 0;
#X restore 26 382 pd percenv;
#X obj 27 100 t f b;
#X obj 27 49 unpack;
#X obj 64 224 *~;
#X obj 111 194 * 20;
#X obj 64 162 * 5.01;
#X connect 0 0 9 0;
#X connect 2 0 4 0;
#X connect 2 0 12 0;
#X connect 3 0 7 0;
#X connect 4 0 3 0;
#X connect 5 0 10 0;
#X connect 6 0 4 1;
#X connect 7 0 1 0;
#X connect 8 0 2 0;
#X connect 8 1 7 1;
#X connect 8 1 6 1;
#X connect 9 0 8 0;
#X connect 9 1 11 0;
#X connect 10 0 6 0;
#X connect 11 0 10 1;
#X connect 12 0 5 0;
#X restore 211 152 pd fm-synth;
#X connect 0 0 3 0;
#X connect 1 0 4 0;
#X connect 3 0 1 0;
#X connect 3 1 1 1;
#X connect 3 2 1 2;
#X connect 4 0 5 0;
#X connect 4 1 7 0;
#X connect 4 2 6 0;
#X connect 4 3 8 0;
#X connect 4 4 9 0;
#X connect 5 0 2 0;
#X connect 6 0 2 0;
#X connect 7 0 2 0;
#X connect 8 0 2 0;
#X connect 9 0 2 0;
#X restore 49 161 pd polysynth;
#X msg 85 43 stop;
#X obj 49 40 bng 17 250 50 0 empty empty empty 17 7 0 10 -228856 -1
-1;
#X msg 129 44 read;
#X obj 49 78 cyclone/seq;
#X obj 50 284 dac~;
#X obj 50 254 *~;
#X floatatom 95 188 5 0 0 0 - - -, f 5;
#X floatatom 95 229 5 0 0 0 - - -, f 5;
#X obj 95 208 dbtorms;
#X obj 49 136 cyclone/midiparse;
#X obj 49 109 cyclone/midiflush;
#X obj 87 255 rev2~ 90 90 3000 20;
#X connect 0 0 6 0;
#X connect 0 0 12 0;
#X connect 1 0 4 0;
#X connect 2 0 4 0;
#X connect 3 0 4 0;
#X connect 4 0 11 0;
#X connect 6 0 5 0;
#X connect 6 0 5 1;
#X connect 7 0 9 0;
#X connect 8 0 6 1;
#X connect 9 0 8 0;
#X connect 10 0 0 0;
#X connect 11 0 10 0;
#X connect 12 0 5 0;
#X connect 12 1 5 1;
