#N canvas 801 313 441 546 10;
#X obj 35 52 metro 300;
#X obj 35 144 random 6;
#X obj 35 166 tabread harmony;
#X floatatom 35 190 5 0 0 0 - - -, f 5;
#X obj 35 28 tgl 15 0 empty empty empty 17 7 0 10 -262144 -1 -1 1 1
;
#X floatatom 140 344 5 0 0 0 - fm_ratio -, f 5;
#X floatatom 179 344 5 0 0 0 - fm_ind -, f 5;
#N canvas 1647 541 304 400 fm-gen 0;
#X obj 27 28 inlet;
#X obj 110 28 inlet;
#X obj 186 29 inlet;
#X obj 26 368 outlet~;
#X obj 26 79 mtof;
#X obj 26 287 osc~;
#X obj 26 254 +~;
#X obj 64 175 *~;
#X obj 64 144 osc~;
#X obj 64 112 * 1;
#X obj 111 67 / 100;
#X obj 186 66 * 10;
#N canvas 1463 907 358 353 percenv 0;
#X obj 63 35 inlet~;
#X obj 63 288 outlet~;
#X obj 165 35 inlet;
#X obj 63 248 *~;
#X obj 113 137 line~;
#X obj 217 70 del 30;
#X obj 113 172 *~;
#X obj 113 206 *~;
#X msg 113 101 1 45;
#X msg 216 100 0 1800;
#X connect 0 0 3 0;
#X connect 2 0 8 0;
#X connect 2 0 5 0;
#X connect 3 0 1 0;
#X connect 4 0 6 0;
#X connect 4 0 6 1;
#X connect 5 0 9 0;
#X connect 6 0 7 0;
#X connect 6 0 7 1;
#X connect 7 0 3 1;
#X connect 8 0 4 0;
#X connect 9 0 4 0;
#X restore 64 218 pd percenv;
#N canvas 1463 907 358 353 percenv 0;
#X obj 63 35 inlet~;
#X obj 63 288 outlet~;
#X obj 165 35 inlet;
#X obj 63 248 *~;
#X obj 113 137 line~;
#X obj 216 70 del 30;
#X obj 113 172 *~;
#X obj 113 206 *~;
#X msg 216 100 0 3800;
#X msg 113 101 0.5 15;
#X connect 0 0 3 0;
#X connect 2 0 9 0;
#X connect 2 0 5 0;
#X connect 3 0 1 0;
#X connect 4 0 6 0;
#X connect 4 0 6 1;
#X connect 5 0 8 0;
#X connect 6 0 7 0;
#X connect 6 0 7 1;
#X connect 7 0 3 1;
#X connect 8 0 4 0;
#X connect 9 0 4 0;
#X restore 26 332 pd percenv;
#X obj 27 50 t f b;
#X connect 0 0 14 0;
#X connect 1 0 10 0;
#X connect 2 0 11 0;
#X connect 4 0 6 0;
#X connect 4 0 9 0;
#X connect 5 0 13 0;
#X connect 6 0 5 0;
#X connect 7 0 12 0;
#X connect 8 0 7 0;
#X connect 9 0 8 0;
#X connect 10 0 9 1;
#X connect 11 0 7 1;
#X connect 12 0 6 1;
#X connect 13 0 3 0;
#X connect 14 0 4 0;
#X connect 14 1 13 1;
#X connect 14 1 12 1;
#X restore 48 372 pd fm-gen;
#X text 138 327 ratio index;
#X text 144 392 fmod depth offs feedb;
#X floatatom 136 421 5 0 0 0 - del_fmod -, f 5;
#X floatatom 174 421 5 0 0 0 - del_depth -, f 5;
#X floatatom 213 421 5 0 0 0 - del_offs -, f 5;
#X floatatom 250 421 5 0 0 0 - del_feedb -, f 5;
#X obj 115 483 dac~;
#N canvas 1291 146 441 204 init 0;
#X obj 38 27 loadbang;
#X obj 154 83 table harmony 8;
#X msg 155 46 \; harmony 0 60 63 67 71 72 74 69 75;
#X msg 38 49 \; fm_ratio 49.995 \; fm_ind 120 \; fm_ratio1 351 \; fm_ind1
200 \; del_fmod 5 \; del_depth 30 \; del_offs 435 \; del_feedb 50;
#X connect 0 0 3 0;
#X connect 0 0 2 0;
#X restore 310 485 pd init;
#X obj 158 36 hsl 80 15 0 100 0 0 empty prob prob -2 -8 0 10 -261682
-1 -1 2977 1;
#X obj 35 74 random 100;
#X obj 35 96 moses;
#X obj 35 121 bng 15 250 50 0 empty empty empty 17 7 0 10 -262144 -1
-1;
#N canvas 1319 379 450 300 choose 0;
#X obj 54 33 inlet;
#X obj 54 55 t f b;
#X obj 54 153 +;
#X obj 86 82 random 3;
#X obj 54 184 outlet;
#X obj 86 104 route 0 1 2;
#X msg 86 126 0;
#X msg 110 147 12;
#X msg 135 170 -12;
#X obj 139 32 inlet;
#X connect 0 0 1 0;
#X connect 1 0 2 0;
#X connect 1 1 3 0;
#X connect 2 0 4 0;
#X connect 3 0 5 0;
#X connect 5 0 6 0;
#X connect 5 1 7 0;
#X connect 5 2 8 0;
#X connect 6 0 2 1;
#X connect 7 0 2 1;
#X connect 8 0 2 1;
#X connect 9 0 3 1;
#X restore 35 221 pd choose octave;
#X obj 157 94 hsl 80 15 1 8 0 0 empty empty notes -2 -8 0 10 -261682
-1 -1 5400 1;
#X obj 157 175 hsl 80 15 1 3 0 0 empty empty octaves -2 -8 0 10 -261682
-1 -1 7900 1;
#X obj 48 291 pack 0 0;
#X obj 48 314 route 0 1;
#N canvas 1647 541 304 400 fm-gen 0;
#X obj 27 28 inlet;
#X obj 110 28 inlet;
#X obj 186 29 inlet;
#X obj 26 368 outlet~;
#X obj 26 79 mtof;
#X obj 26 287 osc~;
#X obj 26 254 +~;
#X obj 64 175 *~;
#X obj 64 144 osc~;
#X obj 64 112 * 1;
#X obj 111 67 / 100;
#X obj 186 66 * 10;
#N canvas 1463 907 358 353 percenv 0;
#X obj 63 35 inlet~;
#X obj 63 288 outlet~;
#X obj 165 35 inlet;
#X obj 63 248 *~;
#X obj 113 137 line~;
#X obj 217 70 del 30;
#X obj 113 172 *~;
#X obj 113 206 *~;
#X msg 216 100 0 1800;
#X msg 113 101 1 45;
#X connect 0 0 3 0;
#X connect 2 0 9 0;
#X connect 2 0 5 0;
#X connect 3 0 1 0;
#X connect 4 0 6 0;
#X connect 4 0 6 1;
#X connect 5 0 8 0;
#X connect 6 0 7 0;
#X connect 6 0 7 1;
#X connect 7 0 3 1;
#X connect 8 0 4 0;
#X connect 9 0 4 0;
#X restore 64 218 pd percenv;
#N canvas 1463 907 358 353 percenv 0;
#X obj 63 35 inlet~;
#X obj 63 288 outlet~;
#X obj 165 35 inlet;
#X obj 63 248 *~;
#X obj 113 137 line~;
#X obj 217 70 del 30;
#X obj 113 172 *~;
#X obj 113 206 *~;
#X msg 113 101 0.5 30;
#X msg 216 100 0 3800;
#X connect 0 0 3 0;
#X connect 2 0 8 0;
#X connect 2 0 5 0;
#X connect 3 0 1 0;
#X connect 4 0 6 0;
#X connect 4 0 6 1;
#X connect 5 0 9 0;
#X connect 6 0 7 0;
#X connect 6 0 7 1;
#X connect 7 0 3 1;
#X connect 8 0 4 0;
#X connect 9 0 4 0;
#X restore 26 332 pd percenv;
#X obj 27 50 t f b;
#X connect 0 0 14 0;
#X connect 1 0 10 0;
#X connect 2 0 11 0;
#X connect 4 0 6 0;
#X connect 4 0 9 0;
#X connect 5 0 13 0;
#X connect 6 0 5 0;
#X connect 7 0 12 0;
#X connect 8 0 7 0;
#X connect 9 0 8 0;
#X connect 10 0 9 1;
#X connect 11 0 7 1;
#X connect 12 0 6 1;
#X connect 13 0 3 0;
#X connect 14 0 4 0;
#X connect 14 1 13 1;
#X connect 14 1 12 1;
#X restore 115 372 pd fm-gen;
#X obj 48 271 tgl 15 0 empty empty empty 17 7 0 10 -262144 -1 -1 0
1;
#X obj 48 248 t f b;
#N canvas 1356 379 492 261 harmonic-func 0;
#X obj 47 28 inlet;
#X msg 47 80 \; harmony 0 60 63 67 71 72 74 69 75;
#X msg 173 159 \; harmony 0 55 62 71 65 67 74 76 79;
#X msg 110 120 \; harmony 0 62 65 68 72 74 75 71 75;
#X obj 47 50 route tonic subdominant dominant sub7;
#X msg 270 81 \; harmony 0 58 62 65 69 70 72 67 74;
#X connect 0 0 4 0;
#X connect 4 0 1 0;
#X connect 4 1 3 0;
#X connect 4 2 2 0;
#X connect 4 3 5 0;
#X restore 272 242 pd harmonic-func;
#X msg 272 177 tonic;
#X msg 283 199 subdominant;
#X msg 294 220 dominant;
#X floatatom 155 56 5 0 0 0 - - -, f 5;
#X obj 154 114 int;
#X floatatom 154 135 5 0 0 0 - - -, f 5;
#X obj 154 195 int;
#X floatatom 154 216 5 0 0 0 - - -, f 5;
#X floatatom 86 28 5 0 0 0 - - -, f 5;
#X text 120 404 [0.01Hz] [ms] [ms] [0.01];
#N canvas 589 447 694 625 st-mod-delay 0;
#X obj 116 184 line~;
#X obj 116 160 pack 0 100;
#X obj 178 418 line~;
#X obj 178 384 pack 0 100;
#X obj 178 350 * 0.01;
#X obj 33 363 +~;
#X obj 163 454 *~;
#X obj 48 227 *~;
#X obj 48 95 / 100;
#X obj 33 397 hip~ 5;
#X obj 48 193 +~ 1;
#X obj 48 129 osc~ 0;
#X text 114 91 <-- cycle frequency (hundredths);
#X text 189 132 <-- cycle depth (msec);
#X text 213 317 <-- feedback (hundredths);
#X obj 163 488 clip~ -1 1;
#X obj 224 203 line~;
#X obj 224 179 pack 0 100;
#X text 287 166 <-- offset (msec);
#X obj 224 227 +~ 1.46;
#X obj 48 261 +~;
#X obj 117 39 inlet;
#X obj 191 39 inlet;
#X obj 268 39 inlet;
#X obj 342 39 inlet;
#X obj 33 39 inlet~;
#X obj 33 559 outlet~;
#X obj 163 559 delwrite~ mod-del 1000;
#X obj 48 304 vd~ mod-del;
#X obj 163 523 lop~ 3000;
#X obj 517 419 line~;
#X obj 517 385 pack 0 100;
#X obj 517 351 * 0.01;
#X obj 382 364 +~;
#X obj 502 455 *~;
#X obj 397 228 *~;
#X obj 382 398 hip~ 5;
#X obj 502 488 clip~ -1 1;
#X obj 397 262 +~;
#X obj 382 559 outlet~;
#X obj 502 523 lop~ 3000;
#X obj 397 163 *~ -1;
#X obj 397 194 +~ 2;
#X obj 502 559 delwrite~ mod-del2 1000;
#X obj 397 305 vd~ mod-del2;
#X obj 33 523 clip~ -1 1;
#X obj 382 523 clip~ -1 1;
#X connect 0 0 7 1;
#X connect 0 0 35 1;
#X connect 1 0 0 0;
#X connect 2 0 6 1;
#X connect 3 0 2 0;
#X connect 4 0 3 0;
#X connect 5 0 9 0;
#X connect 6 0 15 0;
#X connect 7 0 20 0;
#X connect 8 0 11 0;
#X connect 9 0 6 0;
#X connect 9 0 45 0;
#X connect 10 0 7 0;
#X connect 11 0 10 0;
#X connect 11 0 41 0;
#X connect 15 0 29 0;
#X connect 16 0 19 0;
#X connect 17 0 16 0;
#X connect 19 0 20 1;
#X connect 19 0 38 1;
#X connect 20 0 28 0;
#X connect 21 0 8 0;
#X connect 22 0 1 0;
#X connect 23 0 17 0;
#X connect 24 0 4 0;
#X connect 24 0 32 0;
#X connect 25 0 5 0;
#X connect 25 0 33 0;
#X connect 28 0 5 1;
#X connect 29 0 27 0;
#X connect 30 0 34 1;
#X connect 31 0 30 0;
#X connect 32 0 31 0;
#X connect 33 0 36 0;
#X connect 34 0 37 0;
#X connect 35 0 38 0;
#X connect 36 0 34 0;
#X connect 36 0 46 0;
#X connect 37 0 40 0;
#X connect 38 0 44 0;
#X connect 40 0 43 0;
#X connect 41 0 42 0;
#X connect 42 0 35 0;
#X connect 44 0 33 1;
#X connect 45 0 26 0;
#X connect 46 0 39 0;
#X restore 115 445 pd st-mod-delay;
#X floatatom 60 344 5 0 0 0 - fm_ratio1 -, f 5;
#X floatatom 99 344 5 0 0 0 - fm_ind -, f 5;
#X obj 55 120 s snap;
#X obj 310 65 snapshot~;
#X obj 266 44 r snap;
#X floatatom 310 86 5 0 0 0 - - -, f 5;
#X floatatom 310 127 5 0 0 0 - - -, f 5;
#X obj 310 147 s prob;
#X obj 310 44 osc~ 0.03;
#X obj 314 299 snapshot~;
#X obj 270 278 r snap;
#X floatatom 314 320 5 0 0 0 - - -, f 5;
#X floatatom 314 361 5 0 0 0 - - -, f 5;
#X obj 314 381 s fm_ind;
#X obj 314 339 expr ($f1+1)*200+0;
#X obj 310 106 expr ($f1+1)*15+$f2;
#X floatatom 391 83 5 0 0 0 - - -, f 5;
#X obj 314 278 osc~ 0.02;
#X msg 317 178 sub7;
#X connect 0 0 17 0;
#X connect 1 0 2 0;
#X connect 2 0 3 0;
#X connect 3 0 20 0;
#X connect 4 0 0 0;
#X connect 5 0 25 1;
#X connect 6 0 25 2;
#X connect 7 0 39 0;
#X connect 10 0 39 1;
#X connect 11 0 39 2;
#X connect 12 0 39 3;
#X connect 13 0 39 4;
#X connect 16 0 18 1;
#X connect 16 0 32 0;
#X connect 17 0 18 0;
#X connect 18 0 19 0;
#X connect 19 0 1 0;
#X connect 19 0 42 0;
#X connect 20 0 27 0;
#X connect 21 0 33 0;
#X connect 22 0 35 0;
#X connect 23 0 24 0;
#X connect 24 0 7 0;
#X connect 24 1 25 0;
#X connect 25 0 39 0;
#X connect 26 0 23 0;
#X connect 27 0 23 1;
#X connect 27 1 26 0;
#X connect 29 0 28 0;
#X connect 30 0 28 0;
#X connect 31 0 28 0;
#X connect 33 0 34 0;
#X connect 33 0 1 1;
#X connect 35 0 36 0;
#X connect 35 0 20 1;
#X connect 37 0 0 1;
#X connect 39 0 14 0;
#X connect 39 1 14 1;
#X connect 40 0 7 1;
#X connect 41 0 7 2;
#X connect 43 0 45 0;
#X connect 44 0 43 0;
#X connect 45 0 55 0;
#X connect 46 0 47 0;
#X connect 48 0 43 0;
#X connect 49 0 51 0;
#X connect 50 0 49 0;
#X connect 51 0 54 0;
#X connect 52 0 53 0;
#X connect 54 0 52 0;
#X connect 55 0 46 0;
#X connect 56 0 55 1;
#X connect 57 0 49 0;
#X connect 58 0 28 0;
