#N canvas 581 163 1024 667 10;
#X obj 17 110 dac~;
#N canvas 97 201 849 510 hihat 0;
#X obj 5 86 noise~;
#X obj 6 162 *~;
#X obj 89 96 line~;
#X obj 89 122 *~;
#X obj 89 141 *~;
#X obj 6 105 bp~ 12000 20;
#X obj 89 4 r phihat;
#X obj 5 183 throw~ out;
#X obj 88 76 pack 0 0;
#X obj 149 76 pack 0 0;
#X obj 89 42 f;
#X floatatom 256 41 5 0 1 0 - - -;
#X floatatom 298 41 5 0 0 0 - - -;
#X floatatom 335 41 5 0 0 0 - - -;
#X text 261 54 amp att dec;
#X msg 256 24 0.84;
#X msg 298 24 10;
#X msg 335 24 150;
#X obj 256 4 loadbang;
#X obj 149 36 del 10;
#X floatatom 11 57 7 0 0 0 - - -;
#X floatatom 51 17 5 0 0 0 - - -;
#X floatatom 10 9 5 0 0 0 - - -;
#X obj 10 27 mtof;
#X connect 0 0 5 0;
#X connect 1 0 7 0;
#X connect 2 0 3 0;
#X connect 2 0 3 1;
#X connect 3 0 4 0;
#X connect 3 0 4 1;
#X connect 4 0 1 1;
#X connect 5 0 1 0;
#X connect 6 0 10 0;
#X connect 6 0 19 0;
#X connect 8 0 2 0;
#X connect 9 0 2 0;
#X connect 10 0 8 0;
#X connect 11 0 10 1;
#X connect 12 0 8 1;
#X connect 12 0 19 1;
#X connect 13 0 9 1;
#X connect 15 0 11 0;
#X connect 16 0 12 0;
#X connect 17 0 13 0;
#X connect 18 0 15 0;
#X connect 18 0 16 0;
#X connect 18 0 17 0;
#X connect 19 0 9 0;
#X connect 20 0 5 1;
#X connect 21 0 5 2;
#X connect 22 0 23 0;
#X connect 23 0 20 0;
#X restore 16 42 pd hihat;
#N canvas 401 22 392 476 snare 0;
#X obj 11 108 noise~;
#X obj 11 162 *~;
#X obj 122 97 line~;
#X obj 161 52 del 5;
#X obj 122 115 *~;
#X obj 122 134 *~;
#X msg 160 70 0 300;
#X obj 94 13 r psnare;
#X obj 11 181 throw~ out;
#X obj 52 83 line~;
#X obj 12 127 vcf~ 1;
#X msg 122 71 0.8 5;
#X obj 89 37 del 5;
#X msg 13 55 4000 5;
#X msg 64 57 500 100;
#X connect 0 0 10 0;
#X connect 1 0 8 0;
#X connect 2 0 4 0;
#X connect 2 0 4 1;
#X connect 3 0 6 0;
#X connect 4 0 5 0;
#X connect 4 0 5 1;
#X connect 5 0 1 1;
#X connect 6 0 2 0;
#X connect 7 0 11 0;
#X connect 7 0 3 0;
#X connect 7 0 13 0;
#X connect 7 0 12 0;
#X connect 9 0 10 1;
#X connect 10 1 1 0;
#X connect 11 0 2 0;
#X connect 12 0 14 0;
#X connect 13 0 9 0;
#X connect 14 0 9 0;
#X restore 78 41 pd snare;
#N canvas 491 412 446 476 bd 0;
#X obj 50 51 noise~;
#X obj 51 162 *~;
#X obj 182 99 line~;
#X msg 182 74 0.8 5;
#X obj 221 54 del 5;
#X obj 182 117 *~;
#X obj 182 136 *~;
#X obj 182 18 r pbd;
#X obj 51 181 throw~ out;
#X obj 27 121 osc~ 90;
#X obj 51 70 bp~ 200 3;
#X obj 125 95 line~;
#X msg 220 72 0 400;
#X msg 126 54 120 \, 50 100;
#X connect 0 0 10 0;
#X connect 1 0 8 0;
#X connect 2 0 5 0;
#X connect 2 0 5 1;
#X connect 3 0 2 0;
#X connect 4 0 12 0;
#X connect 5 0 6 0;
#X connect 5 0 6 1;
#X connect 6 0 1 1;
#X connect 7 0 3 0;
#X connect 7 0 4 0;
#X connect 7 0 13 0;
#X connect 9 0 1 0;
#X connect 10 0 1 0;
#X connect 11 0 9 0;
#X connect 12 0 2 0;
#X connect 13 0 11 0;
#X restore 141 41 pd bd;
#N canvas 0 22 290 157 keyboard 0;
#X obj 25 52 bng 15 250 50 0 empty empty empty 17 7 0 10 -262144 -1
-1;
#X obj 25 14 key;
#X obj 25 32 sel 48;
#X obj 88 52 bng 15 250 50 0 empty empty empty 17 7 0 10 -262144 -1
-1;
#X obj 88 32 sel 57;
#X obj 151 51 bng 15 250 50 0 empty empty empty 17 7 0 10 -262144 -1
-1;
#X obj 151 31 sel 56;
#X obj 25 69 s phihat;
#X obj 88 69 s psnare;
#X obj 151 68 s pbd;
#X connect 0 0 7 0;
#X connect 1 0 2 0;
#X connect 1 0 4 0;
#X connect 1 0 6 0;
#X connect 2 0 0 0;
#X connect 3 0 8 0;
#X connect 4 0 3 0;
#X connect 5 0 9 0;
#X connect 6 0 5 0;
#X restore 15 11 pd keyboard;
#X obj 17 86 catch~ out;
#X obj 112 65 tgl 30 0 empty empty empty 17 7 0 10 -204786 -1 -1 0
1;
#X obj 112 129 f;
#X obj 112 148 + 1;
#X obj 112 168 mod 16;
#X floatatom 112 187 5 0 0 0 - - -;
#X obj 112 226 sel 1;
#X obj 112 354 s phihat;
#X obj 112 207 tabread table-hihat;
#N canvas 82 177 959 401 tables 0;
#X msg 17 41 \; table-hihat 0 1 1 1 1 0 1 1 1 0 1 1 1 0 1 1 1;
#X obj 318 51 table table-hihat 16;
#X obj 316 131 table table-bd 16;
#X obj 317 91 table table-snare 16;
#X obj 40 13 loadbang;
#X msg 16 81 \; table-snare 0 0 0 1 0 0 0 1 0 0 0 1 0 0 0 1 1;
#X msg 15 121 \; table-bd 0 1 0 0 1 0 1 0 0 1 0 0 1 0 1 0 0;
#X connect 4 0 0 0;
#X connect 4 0 5 0;
#X connect 4 0 6 0;
#X restore 184 40 pd tables;
#X obj 242 226 sel 1;
#X obj 372 226 sel 1;
#X obj 242 207 tabread table-snare;
#X obj 372 207 tabread table-bd;
#X obj 372 327 s pbd;
#X obj 242 327 s psnare;
#X obj 112 106 metro 200;
#X floatatom 163 82 5 0 0 0 - - -;
#X obj 372 249 random 100;
#X obj 372 277 moses 50;
#X floatatom 453 251 5 0 100 0 - - -;
#X obj 242 250 random 100;
#X obj 242 278 moses 50;
#X obj 112 249 random 100;
#X obj 112 277 moses 50;
#X obj 112 325 t b;
#X obj 242 299 t b;
#X obj 372 300 t b;
#X connect 5 0 0 0;
#X connect 5 0 0 1;
#X connect 6 0 21 0;
#X connect 7 0 8 0;
#X connect 8 0 7 1;
#X connect 8 0 9 0;
#X connect 9 0 10 0;
#X connect 10 0 13 0;
#X connect 10 0 17 0;
#X connect 10 0 18 0;
#X connect 11 0 28 0;
#X connect 13 0 11 0;
#X connect 15 0 26 0;
#X connect 16 0 23 0;
#X connect 17 0 15 0;
#X connect 18 0 16 0;
#X connect 21 0 7 0;
#X connect 22 0 21 1;
#X connect 23 0 24 0;
#X connect 24 0 32 0;
#X connect 25 0 24 1;
#X connect 25 0 27 1;
#X connect 25 0 29 1;
#X connect 26 0 27 0;
#X connect 27 0 31 0;
#X connect 28 0 29 0;
#X connect 29 0 30 0;
#X connect 30 0 12 0;
#X connect 31 0 20 0;
#X connect 32 0 19 0;
