#N canvas 447 568 346 206 12;
#N canvas 749 712 1306 342 happyMarkov 0;
#X obj 35 121 bng 15 250 50 0 empty empty empty 20 8 0 8 -262144 -1
-1;
#X obj 691 16 r state;
#X obj 673 50 f 1;
#X floatatom 721 44 3 0 0 0 - - -;
#X text 1089 23 reset;
#X obj 673 76 sel 60 62 64 65 67 69 70 72;
#X obj 35 159 random 1000;
#X obj 34 188 moses 375;
#X obj 113 188 moses 625;
#X obj 191 188 moses 750;
#X obj 269 188 moses 875;
#X msg 34 218 \; state 60;
#X msg 113 218 \; state 62;
#X msg 191 218 \; state 65;
#X msg 269 218 \; state 67;
#X msg 342 218 \; state 72;
#X obj 426 121 bng 15 250 50 0 empty empty empty 20 8 0 8 -262144 -1
-1;
#X obj 426 159 random 1000;
#X msg 426 218 \; state 60;
#X obj 426 188 moses 670;
#X msg 505 218 \; state 70;
#X obj 585 121 bng 15 250 50 0 empty empty empty 20 8 0 8 -262144 -1
-1;
#X obj 585 159 random 1000;
#X msg 585 218 \; state 60;
#X obj 585 188 moses 500;
#X msg 664 218 \; state 62;
#X obj 742 121 bng 15 250 50 0 empty empty empty 20 8 0 8 -262144 -1
-1;
#X obj 742 159 random 1000;
#X obj 741 188 moses 375;
#X obj 820 188 moses 625;
#X msg 741 218 \; state 60;
#X obj 999 121 bng 15 250 50 0 empty empty empty 20 8 0 8 -262144 -1
-1;
#X obj 999 159 random 1000;
#X obj 999 188 moses 500;
#X msg 1101 121 \; state 69;
#X msg 917 121 \; state 65;
#X msg 999 218 \; state 69;
#X msg 1078 218 \; state 70;
#X msg 820 218 \; state 64;
#X msg 898 218 \; state 67;
#X msg 1089 43 \; state 60;
#X obj 642 16 inlet;
#X obj 780 44 outlet;
#X connect 0 0 6 0;
#X connect 1 0 2 1;
#X connect 1 0 3 0;
#X connect 1 0 42 0;
#X connect 2 0 5 0;
#X connect 5 0 0 0;
#X connect 5 1 16 0;
#X connect 5 2 21 0;
#X connect 5 3 26 0;
#X connect 5 4 35 0;
#X connect 5 5 35 0;
#X connect 5 6 31 0;
#X connect 5 7 34 0;
#X connect 6 0 7 0;
#X connect 7 0 11 0;
#X connect 7 1 8 0;
#X connect 8 0 12 0;
#X connect 8 1 9 0;
#X connect 9 0 13 0;
#X connect 9 1 10 0;
#X connect 10 0 14 0;
#X connect 10 1 15 0;
#X connect 16 0 17 0;
#X connect 17 0 19 0;
#X connect 19 0 18 0;
#X connect 19 1 20 0;
#X connect 21 0 22 0;
#X connect 22 0 24 0;
#X connect 24 0 23 0;
#X connect 24 1 25 0;
#X connect 26 0 27 0;
#X connect 27 0 28 0;
#X connect 28 0 30 0;
#X connect 28 1 29 0;
#X connect 29 0 38 0;
#X connect 29 1 39 0;
#X connect 31 0 32 0;
#X connect 32 0 33 0;
#X connect 33 0 36 0;
#X connect 33 1 37 0;
#X connect 41 0 2 0;
#X restore 56 65 pd happyMarkov;
#X obj 56 31 bng 15 250 50 0 empty empty empty 17 7 0 10 -262144 -1
-1;
#N canvas 975 353 450 300 blip 0;
#X obj 37 37 inlet;
#X obj 37 61 t f b;
#X obj 37 130 osc~;
#X obj 136 118 line~;
#X obj 136 142 *~;
#X obj 136 166 *~;
#X obj 37 197 *~;
#X obj 37 221 dac~;
#X obj 37 95 mtof;
#X msg 136 94 0 300;
#X obj 136 66 del 10;
#X msg 90 95 1 10;
#X connect 0 0 1 0;
#X connect 1 0 8 0;
#X connect 1 1 11 0;
#X connect 1 1 10 0;
#X connect 2 0 6 0;
#X connect 3 0 4 0;
#X connect 3 0 4 1;
#X connect 4 0 5 0;
#X connect 4 0 5 1;
#X connect 5 0 6 1;
#X connect 6 0 7 0;
#X connect 6 0 7 1;
#X connect 8 0 2 0;
#X connect 9 0 3 0;
#X connect 10 0 9 0;
#X connect 11 0 3 0;
#X restore 56 112 pd blip;
#N canvas 856 245 390 301 rhythm 0;
#X obj 120 36 inlet;
#X obj 120 65 metro 100;
#X obj 120 94 random 100;
#X msg 120 152 100;
#X msg 248 152 400;
#X msg 195 152 200;
#X obj 120 123 moses 20;
#X obj 195 123 moses 80;
#X obj 195 179 s speed;
#X obj 180 38 r speed;
#X obj 54 109 outlet;
#X connect 0 0 1 0;
#X connect 1 0 2 0;
#X connect 1 0 10 0;
#X connect 2 0 6 0;
#X connect 3 0 8 0;
#X connect 4 0 8 0;
#X connect 5 0 8 0;
#X connect 6 0 3 0;
#X connect 6 1 7 0;
#X connect 7 0 5 0;
#X connect 7 1 4 0;
#X connect 9 0 1 1;
#X restore 181 65 pd rhythm;
#X obj 181 31 tgl 15 0 empty empty empty 17 7 0 10 -262144 -1 -1 0
1;
#X connect 0 0 2 0;
#X connect 1 0 0 0;
#X connect 3 0 1 0;
#X connect 4 0 3 0;
