#N canvas 496 186 364 395 10;
#N canvas 1535 569 536 419 fm-blip 0;
#X obj 68 49 inlet;
#X obj 68 127 mtof;
#X obj 68 286 osc~;
#X obj 83 179 osc~;
#X obj 68 71 t f b;
#X obj 68 231 +~;
#X obj 68 308 *~;
#X obj 179 239 vline~;
#X obj 179 154 vline~;
#X obj 83 201 *~;
#X obj 68 340 outlet~;
#X obj 179 96 random 400;
#X obj 83 153 * 2.5;
#X msg 179 210 0.3 5 \, 0 500 20;
#X msg 179 125 \$1 130 \, 0 350 30;
#X obj 131 178 osc~;
#X obj 291 151 vline~;
#X obj 131 200 *~;
#X obj 291 94 random 400;
#X obj 131 152 * 0.5;
#X msg 291 122 \$1 30 \, 0 350 30;
#X obj 68 257 +~;
#X obj 324 46 inlet;
#X obj 323 67 * 4;
#X connect 0 0 4 0;
#X connect 1 0 5 0;
#X connect 1 0 12 0;
#X connect 1 0 19 0;
#X connect 2 0 6 0;
#X connect 3 0 9 0;
#X connect 4 0 1 0;
#X connect 4 1 13 0;
#X connect 4 1 11 0;
#X connect 4 1 18 0;
#X connect 5 0 21 0;
#X connect 6 0 10 0;
#X connect 7 0 6 1;
#X connect 8 0 9 1;
#X connect 9 0 5 1;
#X connect 11 0 14 0;
#X connect 12 0 3 0;
#X connect 13 0 7 0;
#X connect 14 0 8 0;
#X connect 15 0 17 0;
#X connect 16 0 17 1;
#X connect 17 0 21 1;
#X connect 18 0 20 0;
#X connect 19 0 15 0;
#X connect 20 0 16 0;
#X connect 21 0 2 0;
#X connect 22 0 23 0;
#X connect 23 0 18 1;
#X connect 23 0 11 1;
#X restore 54 322 pd fm-blip;
#X obj 54 350 dac~;
#N canvas 1472 386 846 668 st_player 0;
#X obj 113 124 tgl 15 0 empty empty empty 17 7 0 10 -204800 -1 -1 1
1;
#X obj 30 522 outlet;
#X text 131 123 play;
#X floatatom 171 124 5 30 300 0 - - -;
#X text 206 123 tempo;
#X obj 30 391 metro 300;
#N canvas 0 22 450 278 (subpatch) 0;
#X array sequence 16 float 3;
#A 0 48 61 63 58 65 61 63 67 41 53 59 65 46 47 65 69;
#X coords 0 80 16 30 200 140 1 0 0;
#X restore 116 163 graph;
#X obj 327 43 loadbang;
#X obj 30 417 f;
#X obj 60 417 + 1;
#X obj 30 440 mod 16;
#X obj 30 471 tabread sequence;
#X obj 30 493 int;
#X obj 90 364 expr 60/$f1 * 500;
#X msg 327 65 240;
#X floatatom 249 124 5 0 100 0 - - -;
#X text 284 123 mod-prob;
#X obj 231 419 random 100;
#X obj 231 440 moses 0;
#X floatatom 70 492 5 0 0 0 - - -;
#X obj 231 483 random 16;
#X obj 231 461 t b b;
#X obj 231 529 pack f f;
#X msg 231 550 \; sequence \$1 \$2;
#X obj 296 504 + 40;
#X obj 296 483 random 30;
#X connect 0 0 5 0;
#X connect 3 0 13 0;
#X connect 5 0 8 0;
#X connect 5 0 17 0;
#X connect 7 0 14 0;
#X connect 8 0 9 0;
#X connect 8 0 10 0;
#X connect 9 0 8 1;
#X connect 10 0 11 0;
#X connect 11 0 12 0;
#X connect 11 0 19 0;
#X connect 12 0 1 0;
#X connect 13 0 5 1;
#X connect 14 0 3 0;
#X connect 15 0 18 1;
#X connect 17 0 18 0;
#X connect 18 0 21 0;
#X connect 20 0 22 0;
#X connect 21 0 20 0;
#X connect 21 1 25 0;
#X connect 22 0 23 0;
#X connect 24 0 22 1;
#X connect 25 0 24 0;
#X coords 0 -1 1 1 240 240 1 100 100;
#X restore 54 41 pd st_player;
#X floatatom 111 302 5 0 0 0 - - -;
#N canvas 0 22 450 300 rand-ramp 0;
#X obj 108 37 loadbang;
#X obj 108 60 tgl 15 0 empty empty empty 17 7 0 10 -262144 -1 -1 1
1;
#X obj 108 80 metro 1000;
#X obj 108 101 random 400;
#X obj 109 150 line;
#X msg 108 122 \$1 1000;
#X obj 109 171 outlet;
#X connect 0 0 1 0;
#X connect 1 0 2 0;
#X connect 2 0 3 0;
#X connect 3 0 5 0;
#X connect 4 0 6 0;
#X connect 5 0 4 0;
#X restore 172 322 pd rand-ramp;
#X connect 0 0 1 0;
#X connect 0 0 1 1;
#X connect 2 0 0 0;
#X connect 3 0 0 1;
#X connect 4 0 3 0;
