#N canvas 206 294 360 245 10;
#N canvas 760 482 676 243 samples 0;
#X obj 40 84 soundfiler;
#N canvas 0 22 450 278 (subpatch) 0;
#X array dr1 49314 float 2;
#X coords 0 1 49314 -1 100 70 1 0 0;
#X restore 40 120 graph;
#X msg 40 58 read -resize sound/dr1.wav dr1;
#X obj 253 84 soundfiler;
#N canvas 0 22 450 278 (subpatch) 0;
#X array dr4 23717 float 2;
#X coords 0 1 23717 -1 100 70 1 0 0;
#X restore 253 120 graph;
#X obj 461 84 soundfiler;
#N canvas 0 22 450 278 (subpatch) 0;
#X array sh3 13599 float 2;
#X coords 0 1 13599 -1 100 70 1 0 0;
#X restore 461 120 graph;
#X msg 253 58 read -resize sound/dr4.wav dr4;
#X msg 461 58 read -resize sound/sh3.wav sh3;
#X obj 253 25 loadbang;
#X connect 2 0 0 0;
#X connect 7 0 3 0;
#X connect 8 0 5 0;
#X connect 9 0 2 0;
#X connect 9 0 7 0;
#X connect 9 0 8 0;
#X restore 251 165 pd samples;
#N canvas 537 274 874 781 players 1;
#X obj 166 283 hip~ 5;
#X obj 54 167 vline~;
#X msg 54 140 0 \, 48314 \$1;
#X msg 54 110 1118.23;
#X obj 54 197 tabread4~ dr1;
#X obj 166 166 vline~;
#X obj 285 166 vline~;
#X obj 166 196 tabread4~ dr4;
#X msg 166 110 537.8;
#X msg 285 110 308.367;
#X msg 285 139 0 \, 13599 \$1;
#X msg 166 139 0 \, 23717 \$1;
#X obj 285 196 tabread4~ sh3;
#X obj 53 16 inlet;
#X obj 166 313 outlet~;
#X obj 54 249 *~;
#X obj 166 248 *~;
#X obj 285 250 *~;
#X obj 81 224 line~;
#X obj 193 224 line~;
#X obj 312 226 line~;
#X msg 105 168 \$1 30;
#X msg 227 164 \$1 30;
#X msg 343 165 \$1 30;
#X obj 166 14 inlet;
#X obj 285 16 inlet;
#X obj 343 64 / 100;
#X obj 343 99 *;
#X obj 343 117 *;
#X obj 343 42 random 30;
#X obj 343 82 + 0.7;
#X obj 216 62 / 100;
#X obj 216 97 *;
#X obj 216 115 *;
#X obj 216 40 random 30;
#X obj 216 80 + 0.7;
#X obj 112 57 / 100;
#X obj 112 93 *;
#X obj 112 110 *;
#X obj 112 35 random 30;
#X obj 112 75 + 0.7;
#X connect 0 0 14 0;
#X connect 1 0 4 0;
#X connect 2 0 1 0;
#X connect 3 0 2 0;
#X connect 4 0 15 0;
#X connect 5 0 7 0;
#X connect 6 0 12 0;
#X connect 7 0 16 0;
#X connect 8 0 11 0;
#X connect 9 0 10 0;
#X connect 10 0 6 0;
#X connect 11 0 5 0;
#X connect 12 0 17 0;
#X connect 13 0 3 0;
#X connect 13 0 39 0;
#X connect 15 0 0 0;
#X connect 16 0 0 0;
#X connect 17 0 0 0;
#X connect 18 0 15 1;
#X connect 19 0 16 1;
#X connect 20 0 17 1;
#X connect 21 0 18 0;
#X connect 22 0 19 0;
#X connect 23 0 20 0;
#X connect 24 0 8 0;
#X connect 24 0 34 0;
#X connect 25 0 9 0;
#X connect 25 0 29 0;
#X connect 26 0 30 0;
#X connect 27 0 28 0;
#X connect 27 0 28 1;
#X connect 28 0 23 0;
#X connect 29 0 26 0;
#X connect 30 0 27 0;
#X connect 30 0 27 1;
#X connect 31 0 35 0;
#X connect 32 0 33 0;
#X connect 32 0 33 1;
#X connect 33 0 22 0;
#X connect 34 0 31 0;
#X connect 35 0 32 0;
#X connect 35 0 32 1;
#X connect 36 0 40 0;
#X connect 37 0 38 0;
#X connect 37 0 38 1;
#X connect 38 0 21 0;
#X connect 39 0 36 0;
#X connect 40 0 37 0;
#X connect 40 0 37 1;
#X restore 141 133 pd players;
#N canvas 628 187 668 591 seqencer 0;
#X obj 109 129 tgl 25 0 empty empty Play 0 -7 0 10 -261234 -1 -1 1
1;
#X obj 13 216 metro 300;
#X obj 69 503 outlet;
#X obj 145 502 outlet;
#X obj 218 502 outlet;
#X obj 111 169 hsl 80 25 300 80 1 1 empty empty tempo -2 -8 0 10 -261682
-1 -1 4100 1;
#X obj 219 117 tgl 15 1 empty empty empty 17 7 0 10 -204786 -1 -1 1
1;
#X obj 219 140 tgl 15 1 empty empty empty 17 7 0 10 -203904 -1 -1 0
1;
#X obj 219 163 tgl 15 1 empty empty empty 17 7 0 10 -232576 -1 -1 0
1;
#X obj 239 117 tgl 15 1 empty empty empty 17 7 0 10 -204786 -1 -1 0
1;
#X obj 239 140 tgl 15 1 empty empty empty 17 7 0 10 -203904 -1 -1 0
1;
#X obj 239 163 tgl 15 1 empty empty empty 17 7 0 10 -232576 -1 -1 1
1;
#X obj 259 117 tgl 15 1 empty empty empty 17 7 0 10 -204786 -1 -1 0
1;
#X obj 259 140 tgl 15 1 empty empty empty 17 7 0 10 -203904 -1 -1 0
1;
#X obj 259 163 tgl 15 1 empty empty empty 17 7 0 10 -232576 -1 -1 1
1;
#X obj 279 117 tgl 15 1 empty empty empty 17 7 0 10 -204786 -1 -1 0
1;
#X obj 279 140 tgl 15 1 empty empty empty 17 7 0 10 -203904 -1 -1 1
1;
#X obj 279 163 tgl 15 1 empty empty empty 17 7 0 10 -232576 -1 -1 0
1;
#X obj 299 117 tgl 15 1 empty empty empty 17 7 0 10 -204786 -1 -1 0
1;
#X obj 299 140 tgl 15 1 empty empty empty 17 7 0 10 -203904 -1 -1 0
1;
#X obj 299 163 tgl 15 1 empty empty empty 17 7 0 10 -232576 -1 -1 1
1;
#X obj 319 117 tgl 15 1 empty empty empty 17 7 0 10 -204786 -1 -1 0
1;
#X obj 319 140 tgl 15 1 empty empty empty 17 7 0 10 -203904 -1 -1 0
1;
#X obj 319 163 tgl 15 1 empty empty empty 17 7 0 10 -232576 -1 -1 1
1;
#X obj 339 117 tgl 15 1 empty empty empty 17 7 0 10 -204786 -1 -1 0
1;
#X obj 339 140 tgl 15 1 empty empty empty 17 7 0 10 -203904 -1 -1 0
1;
#X obj 339 163 tgl 15 1 empty empty empty 17 7 0 10 -232576 -1 -1 0
1;
#X obj 359 117 tgl 15 1 empty empty empty 17 7 0 10 -204786 -1 -1 1
1;
#X obj 359 140 tgl 15 1 empty empty empty 17 7 0 10 -203904 -1 -1 0
1;
#X obj 359 163 tgl 15 1 empty empty empty 17 7 0 10 -232576 -1 -1 0
1;
#X obj 48 336 f;
#X obj 47 299 route 0 1 2 3 4 5 6 7;
#X obj 13 243 f;
#X obj 47 243 + 1;
#X obj 47 270 mod 8;
#X obj 78 336 f;
#X obj 108 336 f;
#X obj 138 336 f;
#X obj 168 336 f;
#X obj 198 336 f;
#X obj 228 336 f;
#X obj 258 336 f;
#X obj 48 366 f;
#X obj 78 366 f;
#X obj 108 366 f;
#X obj 138 366 f;
#X obj 168 366 f;
#X obj 198 366 f;
#X obj 228 366 f;
#X obj 258 366 f;
#X obj 48 396 f;
#X obj 78 396 f;
#X obj 108 396 f;
#X obj 138 396 f;
#X obj 168 396 f;
#X obj 198 396 f;
#X obj 228 396 f;
#X obj 258 396 f;
#X obj 69 474 sel 1;
#X obj 145 474 sel 1;
#X obj 219 475 sel 1;
#X connect 0 0 1 0;
#X connect 1 0 32 0;
#X connect 5 0 1 1;
#X connect 6 0 30 1;
#X connect 7 0 42 1;
#X connect 8 0 50 1;
#X connect 9 0 35 1;
#X connect 10 0 43 1;
#X connect 11 0 51 1;
#X connect 12 0 36 1;
#X connect 13 0 44 1;
#X connect 14 0 52 1;
#X connect 15 0 37 1;
#X connect 16 0 45 1;
#X connect 17 0 53 1;
#X connect 18 0 38 1;
#X connect 19 0 46 1;
#X connect 20 0 54 1;
#X connect 21 0 39 1;
#X connect 22 0 47 1;
#X connect 23 0 55 1;
#X connect 24 0 40 1;
#X connect 25 0 48 1;
#X connect 26 0 56 1;
#X connect 27 0 41 1;
#X connect 28 0 49 1;
#X connect 29 0 57 1;
#X connect 30 0 58 0;
#X connect 31 0 30 0;
#X connect 31 0 42 0;
#X connect 31 0 50 0;
#X connect 31 1 35 0;
#X connect 31 1 43 0;
#X connect 31 1 51 0;
#X connect 31 2 36 0;
#X connect 31 2 44 0;
#X connect 31 2 52 0;
#X connect 31 3 37 0;
#X connect 31 3 45 0;
#X connect 31 3 53 0;
#X connect 31 4 38 0;
#X connect 31 4 46 0;
#X connect 31 4 54 0;
#X connect 31 5 39 0;
#X connect 31 5 47 0;
#X connect 31 5 55 0;
#X connect 31 6 40 0;
#X connect 31 6 48 0;
#X connect 31 6 56 0;
#X connect 31 7 41 0;
#X connect 31 7 49 0;
#X connect 31 7 57 0;
#X connect 32 0 33 0;
#X connect 33 0 32 1;
#X connect 33 0 34 0;
#X connect 34 0 31 0;
#X connect 35 0 58 0;
#X connect 36 0 58 0;
#X connect 37 0 58 0;
#X connect 38 0 58 0;
#X connect 39 0 58 0;
#X connect 40 0 58 0;
#X connect 41 0 58 0;
#X connect 42 0 59 0;
#X connect 43 0 59 0;
#X connect 44 0 59 0;
#X connect 45 0 59 0;
#X connect 46 0 59 0;
#X connect 47 0 59 0;
#X connect 48 0 59 0;
#X connect 49 0 59 0;
#X connect 50 0 60 0;
#X connect 51 0 60 0;
#X connect 52 0 60 0;
#X connect 53 0 60 0;
#X connect 54 0 60 0;
#X connect 55 0 60 0;
#X connect 56 0 60 0;
#X connect 57 0 60 0;
#X connect 58 0 2 0;
#X connect 59 0 3 0;
#X connect 60 0 4 0;
#X coords 0 -1 1 1 300 100 1 100 100;
#X restore 23 22 pd seqencer;
#X obj 141 166 dac~;
#X connect 1 0 3 0;
#X connect 1 0 3 1;
#X connect 2 0 1 0;
#X connect 2 1 1 1;
#X connect 2 2 1 2;
