#N canvas 206 294 445 426 10;
#N canvas 760 482 676 243 samples 0;
#X obj 40 84 soundfiler;
#N canvas 0 22 450 278 (subpatch) 0;
#X array dr1 49314 float 2;
#X coords 0 1 49314 -1 100 70 1 0 0;
#X restore 40 120 graph;
#X msg 40 58 read -resize sound/dr1.wav dr1;
#X obj 253 84 soundfiler;
#N canvas 0 22 450 278 (subpatch) 0;
#X array dr4 23717 float 2;
#X coords 0 1 23717 -1 100 70 1 0 0;
#X restore 253 120 graph;
#X obj 461 84 soundfiler;
#N canvas 0 22 450 278 (subpatch) 0;
#X array sh3 13599 float 2;
#X coords 0 1 13599 -1 100 70 1 0 0;
#X restore 461 120 graph;
#X msg 253 58 read -resize sound/dr4.wav dr4;
#X msg 461 58 read -resize sound/sh3.wav sh3;
#X obj 253 25 loadbang;
#X connect 2 0 0 0;
#X connect 7 0 3 0;
#X connect 8 0 5 0;
#X connect 9 0 2 0;
#X connect 9 0 7 0;
#X connect 9 0 8 0;
#X restore 227 289 pd samples;
#N canvas 537 274 451 377 players 0;
#X obj 166 283 hip~ 5;
#X obj 54 167 vline~;
#X msg 54 140 0 \, 48314 \$1;
#X msg 54 110 1118.23;
#X obj 54 197 tabread4~ dr1;
#X obj 166 166 vline~;
#X obj 285 166 vline~;
#X obj 166 196 tabread4~ dr4;
#X msg 166 110 537.8;
#X msg 285 110 308.367;
#X msg 285 139 0 \, 13599 \$1;
#X msg 166 139 0 \, 23717 \$1;
#X obj 285 196 tabread4~ sh3;
#X obj 53 16 inlet;
#X obj 166 313 outlet~;
#X obj 54 249 *~;
#X obj 166 248 *~;
#X obj 285 250 *~;
#X obj 81 224 line~;
#X obj 193 224 line~;
#X obj 312 226 line~;
#X msg 105 168 \$1 30;
#X msg 227 164 \$1 30;
#X msg 343 165 \$1 30;
#X obj 166 14 inlet;
#X obj 285 16 inlet;
#X obj 343 64 / 100;
#X obj 343 99 *;
#X obj 343 117 *;
#X obj 343 42 random 30;
#X obj 343 82 + 0.7;
#X obj 216 62 / 100;
#X obj 216 97 *;
#X obj 216 115 *;
#X obj 216 40 random 30;
#X obj 216 80 + 0.7;
#X obj 112 57 / 100;
#X obj 112 93 *;
#X obj 112 110 *;
#X obj 112 35 random 30;
#X obj 112 75 + 0.7;
#X connect 0 0 14 0;
#X connect 1 0 4 0;
#X connect 2 0 1 0;
#X connect 3 0 2 0;
#X connect 4 0 15 0;
#X connect 5 0 7 0;
#X connect 6 0 12 0;
#X connect 7 0 16 0;
#X connect 8 0 11 0;
#X connect 9 0 10 0;
#X connect 10 0 6 0;
#X connect 11 0 5 0;
#X connect 12 0 17 0;
#X connect 13 0 3 0;
#X connect 13 0 39 0;
#X connect 15 0 0 0;
#X connect 16 0 0 0;
#X connect 17 0 0 0;
#X connect 18 0 15 1;
#X connect 19 0 16 1;
#X connect 20 0 17 1;
#X connect 21 0 18 0;
#X connect 22 0 19 0;
#X connect 23 0 20 0;
#X connect 24 0 8 0;
#X connect 24 0 34 0;
#X connect 25 0 9 0;
#X connect 25 0 29 0;
#X connect 26 0 30 0;
#X connect 27 0 28 0;
#X connect 27 0 28 1;
#X connect 28 0 23 0;
#X connect 29 0 26 0;
#X connect 30 0 27 0;
#X connect 30 0 27 1;
#X connect 31 0 35 0;
#X connect 32 0 33 0;
#X connect 32 0 33 1;
#X connect 33 0 22 0;
#X connect 34 0 31 0;
#X connect 35 0 32 0;
#X connect 35 0 32 1;
#X connect 36 0 40 0;
#X connect 37 0 38 0;
#X connect 37 0 38 1;
#X connect 38 0 21 0;
#X connect 39 0 36 0;
#X connect 40 0 37 0;
#X connect 40 0 37 1;
#X restore 117 257 pd players;
#N canvas 628 187 668 591 seqencer 0;
#X obj 109 129 tgl 25 0 empty empty Play 0 -7 0 10 -261234 -1 -1 1
1;
#X obj 13 216 metro 300;
#X obj 47 413 outlet;
#X obj 186 413 outlet;
#X obj 329 412 outlet;
#X obj 111 169 hsl 80 25 300 80 1 1 empty empty tempo -2 -8 0 10 -261682
-1 -1 5800 1;
#X obj 13 243 f;
#X obj 47 243 + 1;
#N canvas 0 22 450 278 (subpatch) 0;
#X array bd-prob 16 float 3;
#A 0 0.974999 0 0 0.0249999 0.0499997 0.0499997 0.9 0.9 0 0 0.575 0.0499997
0.0499997 0.0249999 0.3 0.6;
#X coords 0 1 16 0 200 40 1 0 0;
#X restore 218 117 graph;
#X obj 47 292 tabread bd-prob;
#X obj 47 270 mod 16;
#X obj 136 340 * 100;
#X obj 47 340 random 100;
#X obj 47 314 t b f;
#X obj 47 362 moses;
#X obj 47 387 bng 15 250 50 0 empty empty empty 17 7 0 10 -262144 -1
-1;
#X obj 275 341 * 100;
#X obj 186 341 random 100;
#X obj 186 315 t b f;
#X obj 186 363 moses;
#X obj 186 388 bng 15 250 50 0 empty empty empty 17 7 0 10 -262144
-1 -1;
#X obj 186 293 tabread dr-prob;
#X obj 418 342 * 100;
#X obj 329 342 random 100;
#X obj 329 316 t b f;
#X obj 329 364 moses;
#X obj 329 389 bng 15 250 50 0 empty empty empty 17 7 0 10 -262144
-1 -1;
#X obj 329 294 tabread sh-prob;
#N canvas 0 22 450 278 (subpatch) 0;
#X array dr-prob 16 float 3;
#A 0 0.0250047 0 0.35 0.749998 0.35 0.0499997 0.05 0.05 0 0 0.575 0.0499997
0.0499997 0.0249999 0.3 0.6;
#X coords 0 1 16 0 200 40 1 0 0;
#X restore 217 175 graph;
#N canvas 0 22 450 278 (subpatch) 0;
#X array sh-prob 16 float 3;
#A 0 0.325 0.425 0.450001 0.450001 0.3 0.3 0.4 0.550001 0.600001 0.425
0.375 0.375 0.475001 0.525001 0.525001 0.3;
#X coords 0 1 16 0 200 40 1 0 0;
#X restore 217 232 graph;
#X connect 0 0 1 0;
#X connect 1 0 6 0;
#X connect 5 0 1 1;
#X connect 6 0 7 0;
#X connect 7 0 6 1;
#X connect 7 0 10 0;
#X connect 9 0 13 0;
#X connect 10 0 9 0;
#X connect 10 0 21 0;
#X connect 10 0 27 0;
#X connect 11 0 14 1;
#X connect 12 0 14 0;
#X connect 13 0 12 0;
#X connect 13 1 11 0;
#X connect 14 0 15 0;
#X connect 15 0 2 0;
#X connect 16 0 19 1;
#X connect 17 0 19 0;
#X connect 18 0 17 0;
#X connect 18 1 16 0;
#X connect 19 0 20 0;
#X connect 20 0 3 0;
#X connect 21 0 18 0;
#X connect 22 0 25 1;
#X connect 23 0 25 0;
#X connect 24 0 23 0;
#X connect 24 1 22 0;
#X connect 25 0 26 0;
#X connect 26 0 4 0;
#X connect 27 0 24 0;
#X coords 0 -1 1 1 330 180 1 100 100;
#X restore 42 39 pd seqencer;
#X obj 117 290 dac~;
#X connect 1 0 3 0;
#X connect 1 0 3 1;
#X connect 2 0 1 0;
#X connect 2 1 1 1;
#X connect 2 2 1 2;
