#N canvas 141 226 561 426 10;
#N canvas 760 482 676 243 samples 0;
#X obj 40 84 soundfiler;
#N canvas 0 22 450 278 (subpatch) 0;
#X array dr1 49314 float 2;
#X coords 0 1 49314 -1 100 70 1 0 0;
#X restore 40 120 graph;
#X msg 40 58 read -resize sound/dr1.wav dr1;
#X obj 253 84 soundfiler;
#N canvas 0 22 450 278 (subpatch) 0;
#X array dr4 23717 float 2;
#X coords 0 1 23717 -1 100 70 1 0 0;
#X restore 253 120 graph;
#X obj 461 84 soundfiler;
#N canvas 0 22 450 278 (subpatch) 0;
#X array sh3 13599 float 2;
#X coords 0 1 13599 -1 100 70 1 0 0;
#X restore 461 120 graph;
#X msg 253 58 read -resize sound/dr4.wav dr4;
#X msg 461 58 read -resize sound/sh3.wav sh3;
#X obj 253 25 loadbang;
#X connect 2 0 0 0;
#X connect 7 0 3 0;
#X connect 8 0 5 0;
#X connect 9 0 2 0;
#X connect 9 0 7 0;
#X connect 9 0 8 0;
#X restore 227 289 pd samples;
#N canvas 537 274 451 377 players 0;
#X obj 166 283 hip~ 5;
#X obj 54 167 vline~;
#X msg 54 140 0 \, 48314 \$1;
#X msg 54 110 1118.23;
#X obj 54 197 tabread4~ dr1;
#X obj 166 166 vline~;
#X obj 285 166 vline~;
#X obj 166 196 tabread4~ dr4;
#X msg 166 110 537.8;
#X msg 285 110 308.367;
#X msg 285 139 0 \, 13599 \$1;
#X msg 166 139 0 \, 23717 \$1;
#X obj 285 196 tabread4~ sh3;
#X obj 53 16 inlet;
#X obj 166 313 outlet~;
#X obj 54 249 *~;
#X obj 166 248 *~;
#X obj 285 250 *~;
#X obj 81 224 line~;
#X obj 193 224 line~;
#X obj 312 226 line~;
#X msg 105 168 \$1 30;
#X msg 227 164 \$1 30;
#X msg 343 165 \$1 30;
#X obj 166 14 inlet;
#X obj 285 16 inlet;
#X obj 343 64 / 100;
#X obj 343 99 *;
#X obj 343 117 *;
#X obj 343 42 random 30;
#X obj 343 82 + 0.7;
#X obj 216 62 / 100;
#X obj 216 97 *;
#X obj 216 115 *;
#X obj 216 40 random 30;
#X obj 216 80 + 0.7;
#X obj 112 57 / 100;
#X obj 112 93 *;
#X obj 112 110 *;
#X obj 112 35 random 30;
#X obj 112 75 + 0.7;
#X connect 0 0 14 0;
#X connect 1 0 4 0;
#X connect 2 0 1 0;
#X connect 3 0 2 0;
#X connect 4 0 15 0;
#X connect 5 0 7 0;
#X connect 6 0 12 0;
#X connect 7 0 16 0;
#X connect 8 0 11 0;
#X connect 9 0 10 0;
#X connect 10 0 6 0;
#X connect 11 0 5 0;
#X connect 12 0 17 0;
#X connect 13 0 3 0;
#X connect 13 0 39 0;
#X connect 15 0 0 0;
#X connect 16 0 0 0;
#X connect 17 0 0 0;
#X connect 18 0 15 1;
#X connect 19 0 16 1;
#X connect 20 0 17 1;
#X connect 21 0 18 0;
#X connect 22 0 19 0;
#X connect 23 0 20 0;
#X connect 24 0 8 0;
#X connect 24 0 34 0;
#X connect 25 0 9 0;
#X connect 25 0 29 0;
#X connect 26 0 30 0;
#X connect 27 0 28 0;
#X connect 27 0 28 1;
#X connect 28 0 23 0;
#X connect 29 0 26 0;
#X connect 30 0 27 0;
#X connect 30 0 27 1;
#X connect 31 0 35 0;
#X connect 32 0 33 0;
#X connect 32 0 33 1;
#X connect 33 0 22 0;
#X connect 34 0 31 0;
#X connect 35 0 32 0;
#X connect 35 0 32 1;
#X connect 36 0 40 0;
#X connect 37 0 38 0;
#X connect 37 0 38 1;
#X connect 38 0 21 0;
#X connect 39 0 36 0;
#X connect 40 0 37 0;
#X connect 40 0 37 1;
#X restore 117 257 pd players;
#N canvas 234 89 893 591 seqencer 0;
#X obj 109 129 tgl 25 0 empty empty Play 0 -7 0 10 -261234 -1 -1 0
1;
#X obj 13 216 metro 300;
#X obj 47 463 outlet;
#X obj 186 463 outlet;
#X obj 329 462 outlet;
#X obj 111 169 hsl 80 25 300 80 1 1 empty empty tempo -2 -8 0 10 -261682
-1 -1 5800 1;
#X obj 13 243 f;
#X obj 47 243 + 1;
#N canvas 0 22 450 278 (subpatch) 0;
#X array bd-prob 16 float 3;
#A 0 0.825002 0.0999978 0.0448819 -1.6051e-07 0.336614 0.0448819 0.0673229
0.897638 0.875197 0.0673229 0.089764 0.0448821 0.403937 0.022441 0
0;
#X coords 0 1 16 0 200 40 1 0 0;
#X restore 218 114 graph;
#X obj 47 292 tabread bd-prob;
#X obj 47 270 mod 16;
#X obj 136 390 * 100;
#X obj 47 390 random 100;
#X obj 47 364 t b f;
#X obj 47 412 moses;
#X obj 47 437 bng 15 250 50 0 empty empty empty 17 7 0 10 -262144 -1
-1;
#X obj 275 391 * 100;
#X obj 186 391 random 100;
#X obj 186 365 t b f;
#X obj 186 413 moses;
#X obj 186 438 bng 15 250 50 0 empty empty empty 17 7 0 10 -262144
-1 -1;
#X obj 186 293 tabread dr-prob;
#X obj 418 392 * 100;
#X obj 329 392 random 100;
#X obj 329 366 t b f;
#X obj 329 414 moses;
#X obj 329 439 bng 15 250 50 0 empty empty empty 17 7 0 10 -262144
-1 -1;
#X obj 329 294 tabread sh-prob;
#N canvas 0 22 450 278 (subpatch) 0;
#X array dr-prob 16 float 3;
#A 0 -0.0249991 7.15256e-07 7.15256e-07 0.925 7.15256e-07 0.0500004
0.0500004 7.15256e-07 -0.0249991 -0.049999 0.875 0.925 0.925 0.0500004
0.0500004 0.0250006;
#X coords 0 1 16 0 200 40 1 0 0;
#X restore 217 175 graph;
#N canvas 0 22 450 278 (subpatch) 0;
#X array sh-prob 16 float 3;
#A 0 0.425 0.575001 0.5 0.224999 0.375 0.55 0.55 0.35 0.4 0.55 0.325
0.174999 0.375 0.5 0.525 0.274999;
#X coords 0 1 16 0 200 40 1 0 0;
#X restore 217 232 graph;
#N canvas 213 23 928 747 prob 0;
#X obj 107 127 vsl 15 128 0 1 0 0 empty empty empty 0 -9 0 10 -232576
-1 -1 12700 1;
#X obj 46 372 tabwrite bd-prob;
#X obj 46 311 tabread bd-prob;
#X obj 253 384 tabwrite bd-prob;
#X obj 252 321 tabread bd-prob;
#X obj 460 390 tabwrite bd-prob;
#X obj 459 321 tabread bd-prob;
#X obj 693 394 tabwrite bd-prob;
#X obj 693 326 tabread bd-prob;
#X obj 42 519 tabwrite bd-prob;
#X obj 44 463 tabread bd-prob;
#X obj 252 517 tabwrite bd-prob;
#X obj 252 463 tabread bd-prob;
#X obj 459 516 tabwrite bd-prob;
#X obj 460 457 tabread bd-prob;
#X obj 694 512 tabwrite bd-prob;
#X obj 693 457 tabread bd-prob;
#X obj 41 651 tabwrite bd-prob;
#X obj 41 594 tabread bd-prob;
#X obj 254 650 tabwrite bd-prob;
#X obj 254 594 tabread bd-prob;
#X obj 464 647 tabwrite bd-prob;
#X obj 460 587 tabread bd-prob;
#X obj 696 643 tabwrite bd-prob;
#X obj 696 587 tabread bd-prob;
#X obj 36 762 tabwrite bd-prob;
#X obj 39 716 tabread bd-prob;
#X obj 254 766 tabwrite bd-prob;
#X obj 257 720 tabread bd-prob;
#X obj 467 762 tabwrite bd-prob;
#X obj 470 716 tabread bd-prob;
#X obj 695 764 tabwrite bd-prob;
#X obj 698 718 tabread bd-prob;
#X obj 252 288 int 1;
#X obj 459 284 int 2;
#X obj 107 104 bng 15 250 50 0 empty empty press_to_store_values 17
7 0 10 -159808 -1 -1;
#X obj 691 283 int 3;
#X obj 46 277 int 0;
#X obj 45 425 int 4;
#X obj 252 429 int 5;
#X obj 459 429 int 6;
#X obj 693 429 int 7;
#X obj 41 561 int 8;
#X obj 252 560 int 9;
#X obj 458 564 int 10;
#X obj 696 558 int 11;
#X obj 39 683 int 12;
#X obj 255 686 int 13;
#X obj 470 687 int 14;
#X obj 698 689 int 15;
#X obj 693 359 expr float($f1) * float($f2);
#X obj 46 339 expr float($f1) * float($f2);
#X obj 253 352 expr float($f1) * float($f2);
#X obj 459 356 expr float($f1) * float($f2);
#X obj 694 481 expr float($f1) * float($f2);
#X obj 43 492 expr float($f1) * float($f2);
#X obj 252 492 expr float($f1) * float($f2);
#X obj 458 486 expr float($f1) * float($f2);
#X obj 690 612 expr float($f1) * float($f2);
#X obj 39 623 expr float($f1) * float($f2);
#X obj 248 623 expr float($f1) * float($f2);
#X obj 454 617 expr float($f1) * float($f2);
#X obj 695 740 expr float($f1) * float($f2);
#X obj 37 738 expr float($f1) * float($f2);
#X obj 255 743 expr float($f1) * float($f2);
#X obj 466 739 expr float($f1) * float($f2);
#X connect 0 0 50 0;
#X connect 0 0 53 0;
#X connect 0 0 52 0;
#X connect 0 0 51 0;
#X connect 0 0 54 0;
#X connect 0 0 57 0;
#X connect 0 0 56 0;
#X connect 0 0 55 0;
#X connect 0 0 59 0;
#X connect 0 0 60 0;
#X connect 0 0 61 0;
#X connect 0 0 58 0;
#X connect 0 0 63 0;
#X connect 0 0 64 0;
#X connect 0 0 65 0;
#X connect 0 0 62 0;
#X connect 2 0 51 1;
#X connect 4 0 52 1;
#X connect 6 0 53 1;
#X connect 8 0 50 1;
#X connect 10 0 55 1;
#X connect 12 0 56 1;
#X connect 14 0 57 1;
#X connect 16 0 54 1;
#X connect 18 0 59 1;
#X connect 20 0 60 1;
#X connect 22 0 61 1;
#X connect 24 0 58 1;
#X connect 26 0 63 1;
#X connect 28 0 64 1;
#X connect 30 0 65 1;
#X connect 32 0 62 1;
#X connect 33 0 4 0;
#X connect 33 0 3 1;
#X connect 34 0 6 0;
#X connect 34 0 5 1;
#X connect 35 0 33 0;
#X connect 35 0 34 0;
#X connect 35 0 37 0;
#X connect 35 0 36 0;
#X connect 35 0 38 0;
#X connect 35 0 39 0;
#X connect 35 0 40 0;
#X connect 35 0 41 0;
#X connect 35 0 42 0;
#X connect 35 0 43 0;
#X connect 35 0 44 0;
#X connect 35 0 45 0;
#X connect 35 0 46 0;
#X connect 35 0 47 0;
#X connect 35 0 48 0;
#X connect 35 0 49 0;
#X connect 36 0 8 0;
#X connect 36 0 7 1;
#X connect 37 0 2 0;
#X connect 37 0 1 1;
#X connect 38 0 10 0;
#X connect 38 0 9 1;
#X connect 39 0 12 0;
#X connect 39 0 11 1;
#X connect 40 0 14 0;
#X connect 40 0 13 1;
#X connect 41 0 16 0;
#X connect 41 0 15 1;
#X connect 42 0 18 0;
#X connect 42 0 17 1;
#X connect 43 0 20 0;
#X connect 43 0 19 1;
#X connect 44 0 22 0;
#X connect 44 0 21 1;
#X connect 45 0 24 0;
#X connect 45 0 23 1;
#X connect 46 0 26 0;
#X connect 46 0 25 1;
#X connect 47 0 28 0;
#X connect 47 0 27 1;
#X connect 48 0 30 0;
#X connect 48 0 29 1;
#X connect 49 0 32 0;
#X connect 49 0 31 1;
#X connect 50 0 7 0;
#X connect 51 0 1 0;
#X connect 52 0 3 0;
#X connect 53 0 5 0;
#X connect 54 0 15 0;
#X connect 55 0 9 0;
#X connect 56 0 11 0;
#X connect 57 0 13 0;
#X connect 58 0 23 0;
#X connect 59 0 17 0;
#X connect 60 0 19 0;
#X connect 61 0 21 0;
#X connect 62 0 31 0;
#X connect 63 0 25 0;
#X connect 64 0 27 0;
#X connect 65 0 29 0;
#X coords 0 -1 1 1 30 160 2 100 100;
#X restore 423 114 pd prob control;
#X obj 514 318 vsl 15 128 0 1 0 0 empty empty empty 0 -9 0 10 -232576
-1 -1 2300 1;
#X floatatom 514 454 5 0 0 0 - - -, f 5;
#X obj 47 323 *;
#X obj 514 473 s prob;
#X obj 85 322 r prob;
#X obj 185 327 *;
#X obj 223 326 r prob;
#X obj 328 329 *;
#X obj 366 328 r prob;
#X connect 0 0 1 0;
#X connect 1 0 6 0;
#X connect 5 0 1 1;
#X connect 6 0 7 0;
#X connect 7 0 6 1;
#X connect 7 0 10 0;
#X connect 9 0 33 0;
#X connect 10 0 9 0;
#X connect 10 0 21 0;
#X connect 10 0 27 0;
#X connect 11 0 14 1;
#X connect 12 0 14 0;
#X connect 13 0 12 0;
#X connect 13 1 11 0;
#X connect 14 0 15 0;
#X connect 15 0 2 0;
#X connect 16 0 19 1;
#X connect 17 0 19 0;
#X connect 18 0 17 0;
#X connect 18 1 16 0;
#X connect 19 0 20 0;
#X connect 20 0 3 0;
#X connect 21 0 36 0;
#X connect 22 0 25 1;
#X connect 23 0 25 0;
#X connect 24 0 23 0;
#X connect 24 1 22 0;
#X connect 25 0 26 0;
#X connect 26 0 4 0;
#X connect 27 0 38 0;
#X connect 31 0 32 0;
#X connect 32 0 34 0;
#X connect 33 0 13 0;
#X connect 35 0 33 1;
#X connect 36 0 18 0;
#X connect 37 0 36 1;
#X connect 38 0 24 0;
#X connect 39 0 38 1;
#X coords 0 -1 1 1 480 180 1 100 100;
#X restore 42 39 pd seqencer;
#X obj 117 290 dac~;
#X connect 1 0 3 0;
#X connect 1 0 3 1;
#X connect 2 0 1 0;
#X connect 2 1 1 1;
#X connect 2 2 1 2;
