#N canvas 801 313 441 546 10;
#X obj 35 52 metro 300;
#X floatatom 35 190 5 0 0 0 - - -, f 5;
#X obj 35 28 tgl 15 0 empty empty empty 17 7 0 10 -262144 -1 -1 1 1
;
#N canvas 1291 146 441 204 init 0;
#X obj 38 27 loadbang;
#X msg 38 49 \; fm_ratio 49.995 \; fm_ind 120 \; fm_ratio1 351 \; fm_ind1
200 \; del_fmod 5 \; del_depth 30 \; del_offs 435 \; del_feedb 50;
#X obj 154 83 table scale 13;
#X msg 155 46 \; scale 0 55 57 58 60 62 63 65 67 69 70 72 74 75;
#X connect 0 0 1 0;
#X connect 0 0 3 0;
#X restore 96 350 pd init;
#X obj 158 36 hsl 80 15 0 100 0 0 empty prob prob -2 -8 0 10 -261682
-1 -1 2900 1;
#X obj 35 74 random 100;
#X obj 35 96 moses;
#X obj 35 121 bng 15 250 50 0 empty empty empty 17 7 0 10 -262144 -1
-1;
#X floatatom 155 56 5 0 0 0 - - -, f 5;
#X floatatom 86 28 5 0 0 0 - - -, f 5;
#X obj 55 120 s snap;
#X obj 35 166 tabread scale;
#X obj 35 210 + 12;
#N canvas 292 658 569 428 brown-motion 0;
#X floatatom 113 218 5 0 0 0 - - -, f 5;
#X obj 123 113 f;
#X obj 26 197 random 2;
#X floatatom 35 219 5 0 0 0 - - -, f 5;
#X obj 123 138 t b b f;
#X obj 26 253 sel 0 1;
#X obj 159 328 +;
#X obj 104 252 + 1;
#X floatatom 242 153 5 0 0 0 - - -, f 5;
#X obj 82 309 *;
#X msg 26 282 -1;
#X obj 242 83 moses 0;
#X obj 242 107 * -1;
#X obj 407 86 * -1;
#X msg 60 282 1;
#X text 298 152 output;
#X text 35 235 sign;
#X text 113 234 magnitude;
#X text 203 313 add prev value;
#X text 200 330 to random increment;
#X text 256 30 coercion to range 0-100 \; if out of range \, reflect
;
#X text 255 60 us back in.;
#X obj 123 87 inlet;
#X obj 316 83 moses 12;
#X obj 242 191 outlet;
#X obj 407 111 + 24;
#X obj 104 198 random 3;
#X obj 177 88 inlet;
#X text 177 60 max step;
#X connect 1 0 4 0;
#X connect 2 0 3 0;
#X connect 2 0 5 0;
#X connect 4 0 2 0;
#X connect 4 1 26 0;
#X connect 4 2 6 1;
#X connect 5 0 10 0;
#X connect 5 1 14 0;
#X connect 6 0 11 0;
#X connect 7 0 9 1;
#X connect 8 0 1 1;
#X connect 8 0 24 0;
#X connect 9 0 6 0;
#X connect 10 0 9 0;
#X connect 11 0 12 0;
#X connect 11 1 23 0;
#X connect 12 0 8 0;
#X connect 13 0 25 0;
#X connect 14 0 9 0;
#X connect 22 0 1 0;
#X connect 23 0 8 0;
#X connect 23 1 13 0;
#X connect 25 0 8 0;
#X connect 26 0 0 0;
#X connect 26 0 7 0;
#X connect 27 0 26 1;
#X restore 35 144 pd brown-motion;
#N canvas 1387 207 825 938 analog-synth 0;
#X obj 432 198 r note;
#X obj 563 503 line~;
#X floatatom 457 518 5 0 0 0 - - -, f 5;
#X obj 563 528 *~;
#X obj 563 556 *~;
#X obj 432 244 unpack 0 0 0;
#X text 407 223 midinote amp dur;
#X obj 121 140 hsl 128 15 0 0.2 0 1 empty osc2-detune osc2-detune -2
-8 0 10 -228856 -1 -1 8400 1;
#X obj 121 208 hsl 128 15 10 120 0 1 empty cutoff cutoff -2 -8 0 10
-228856 -1 -1 8500 1;
#X obj 121 174 hsl 128 15 -1.5 1.4 0 1 empty osc2-oct osc2-oct -2 -8
0 10 -228856 -1 -1 6000 1;
#X obj 121 278 hsl 128 15 0 1500 0 1 empty filt-env filt-env -2 -8
0 10 -228856 -1 -1 8900 1;
#X obj 121 243 hsl 128 15 1 40 1 1 empty vcf-rez vcf-rez -2 -8 0 10
-228856 -1 -1 3800 1;
#X obj 220 505 line~;
#X obj 220 411 t b b;
#X obj 121 311 hsl 128 15 0 0.01 0 1 empty vibrato vibrato -2 -8 0
10 -228856 -1 -1 1100 1;
#N canvas 177 23 720 739 bandlimosc 0;
#X obj 76 55 inlet;
#X obj 68 486 outlet~;
#X obj 61 437 -~;
#X obj 201 287 /~;
#X obj 222 261 clip~ 1 999999;
#X obj 76 245 phasor~;
#X obj 88 307 *~;
#X obj 88 331 clip~ -0.5 0.5;
#X obj 88 355 *~ 1000;
#X obj 88 379 +~ 501;
#X obj 76 269 -~ 0.5;
#X obj 88 403 tabread4~ \$0-transition;
#N canvas 387 82 453 494 transition-table 0;
#X text 182 38 back the phase up one sample;
#X obj 144 159 cos~;
#X obj 96 154 cos~;
#X msg 40 223 bang;
#X msg 13 95 \; pd dsp 1;
#X msg 177 69 -0.0005;
#X obj 144 133 *~ 3;
#X obj 144 184 *~ 0.33333;
#X obj 96 182 *~ -1;
#X msg 40 50 bang;
#X obj 95 93 phasor~ 22.05;
#X obj 96 215 *~ 0.75;
#X obj 96 242 tabwrite~ \$0-transition;
#X obj 40 28 loadbang;
#X text 232 116 twice the table length;
#X text 220 93 period is 2000 samples \,;
#N canvas 0 22 450 300 (subpatch) 0;
#X array \$0-transition 1002 float 0;
#X coords 0 1 1002 -1 200 140 1;
#X restore 53 297 graph;
#X text 64 439 ----- 1002 samples ----;
#X connect 1 0 7 0;
#X connect 2 0 8 0;
#X connect 3 0 12 0;
#X connect 5 0 10 1;
#X connect 6 0 1 0;
#X connect 7 0 11 0;
#X connect 8 0 11 0;
#X connect 9 0 5 0;
#X connect 9 0 4 0;
#X connect 9 0 3 0;
#X connect 10 0 2 0;
#X connect 10 0 6 0;
#X connect 11 0 12 0;
#X connect 13 0 9 0;
#X restore 271 475 pd transition-table;
#X obj 201 159 loadbang;
#X msg 201 184 8000;
#X obj 355 428 -~;
#X obj 495 278 /~;
#X obj 516 252 clip~ 1 999999;
#X obj 370 236 phasor~;
#X obj 382 298 *~;
#X obj 382 322 clip~ -0.5 0.5;
#X obj 382 346 *~ 1000;
#X obj 382 370 +~ 501;
#X obj 370 260 -~ 0.5;
#X obj 382 394 tabread4~ \$0-transition;
#X text 72 24 freq;
#X obj 193 53 inlet;
#X text 189 22 osc2-detune;
#X obj 311 52 inlet;
#X text 307 21 osc2-octave;
#X obj 311 85 int;
#X obj 290 144 +;
#X obj 172 94 +;
#X obj 76 175 line~;
#X obj 370 177 line~;
#X obj 76 116 mtof;
#X obj 370 128 mtof;
#X text 477 19 vibrato;
#X obj 482 50 inlet;
#X obj 461 75 osc~ 3.5;
#X obj 461 100 *~;
#X obj 461 125 +~ 1;
#X obj 370 202 *~;
#X obj 76 200 *~;
#X obj 311 113 * 12;
#X msg 76 147 \$1 10;
#X msg 370 152 \$1 30;
#X connect 0 0 32 0;
#X connect 0 0 35 0;
#X connect 2 0 1 0;
#X connect 3 0 6 1;
#X connect 4 0 3 1;
#X connect 5 0 10 0;
#X connect 6 0 7 0;
#X connect 7 0 8 0;
#X connect 8 0 9 0;
#X connect 9 0 11 0;
#X connect 10 0 6 0;
#X connect 10 0 2 1;
#X connect 11 0 2 0;
#X connect 13 0 14 0;
#X connect 14 0 3 0;
#X connect 14 0 16 0;
#X connect 15 0 1 0;
#X connect 16 0 19 1;
#X connect 17 0 16 1;
#X connect 18 0 23 0;
#X connect 19 0 20 0;
#X connect 20 0 21 0;
#X connect 21 0 22 0;
#X connect 22 0 24 0;
#X connect 23 0 19 0;
#X connect 23 0 15 1;
#X connect 24 0 15 0;
#X connect 26 0 32 1;
#X connect 28 0 30 0;
#X connect 30 0 44 0;
#X connect 31 0 36 0;
#X connect 32 0 31 0;
#X connect 33 0 43 0;
#X connect 34 0 42 0;
#X connect 35 0 45 0;
#X connect 36 0 46 0;
#X connect 38 0 40 1;
#X connect 39 0 40 0;
#X connect 40 0 41 0;
#X connect 41 0 42 1;
#X connect 41 0 43 1;
#X connect 42 0 18 0;
#X connect 42 0 17 0;
#X connect 43 0 5 0;
#X connect 43 0 4 0;
#X connect 44 0 31 1;
#X connect 45 0 33 0;
#X connect 46 0 34 0;
#X restore 433 334 pd bandlimosc;
#X obj 220 552 s~ fltenv;
#X obj 465 459 r~ fltenv;
#X obj 563 419 t f b b;
#X msg 673 476 0 100;
#X msg 450 407 \$1 100;
#X obj 450 431 line~;
#X obj 436 611 *~;
#X msg 563 467 \$1 85;
#N canvas 1025 941 311 250 chorus 0;
#X obj 130 107 vd~ chorus;
#X obj 110 133 +~;
#X obj 39 101 *~ 10;
#X obj 130 81 delwrite~ chorus 30;
#X obj 39 127 +~ 11;
#X obj 39 75 osc~ 0.2;
#X obj 110 50 inlet~;
#X obj 110 154 outlet~;
#X connect 0 0 1 1;
#X connect 1 0 7 0;
#X connect 2 0 4 0;
#X connect 4 0 0 0;
#X connect 5 0 2 0;
#X connect 6 0 3 0;
#X connect 6 0 1 0;
#X restore 436 573 pd chorus;
#X obj 436 638 outlet~;
#X msg 616 477 0.5 290;
#X obj 616 450 del 200;
#X obj 673 449 del 750;
#X obj 450 382 mtof;
#X obj 450 487 +~;
#X obj 168 505 print;
#X obj 220 441 f;
#X obj 436 540 vcf~;
#X obj 365 370 mtof;
#X obj 365 392 * 0.3;
#X obj 430 463 +~;
#X msg 220 468 0 \, \$1 10;
#X obj 287 442 del 10;
#X msg 287 468 0 150;
#X connect 0 0 5 0;
#X connect 1 0 3 0;
#X connect 1 0 3 1;
#X connect 2 0 33 2;
#X connect 3 0 4 0;
#X connect 3 0 4 1;
#X connect 4 0 22 1;
#X connect 5 0 15 0;
#X connect 5 0 34 0;
#X connect 5 1 13 0;
#X connect 5 1 18 0;
#X connect 5 2 28 1;
#X connect 7 0 15 1;
#X connect 8 0 29 0;
#X connect 9 0 15 2;
#X connect 10 0 32 1;
#X connect 11 0 2 0;
#X connect 12 0 16 0;
#X connect 13 0 32 0;
#X connect 13 1 38 0;
#X connect 14 0 15 3;
#X connect 15 0 33 0;
#X connect 17 0 30 1;
#X connect 18 0 23 0;
#X connect 18 1 27 0;
#X connect 18 2 28 0;
#X connect 19 0 1 0;
#X connect 20 0 21 0;
#X connect 21 0 36 1;
#X connect 22 0 25 0;
#X connect 23 0 1 0;
#X connect 24 0 22 0;
#X connect 26 0 1 0;
#X connect 27 0 26 0;
#X connect 28 0 19 0;
#X connect 29 0 20 0;
#X connect 30 0 33 1;
#X connect 32 0 37 0;
#X connect 33 1 24 0;
#X connect 34 0 35 0;
#X connect 35 0 36 0;
#X connect 36 0 30 0;
#X connect 37 0 12 0;
#X connect 37 0 31 0;
#X connect 38 0 39 0;
#X connect 39 0 12 0;
#X coords 0 -1 1 1 180 250 1 100 100;
#X restore 235 81 pd analog-synth;
#X obj 35 291 s note;
#X obj 235 384 dac~;
#X obj 274 349 rev2~ 80 90 3000 20;
#X msg 35 236 \$1 1 800;
#X text 119 106 max step;
#X floatatom 122 122 5 0 0 0 - - -, f 5;
#X connect 0 0 5 0;
#X connect 1 0 12 0;
#X connect 2 0 0 0;
#X connect 4 0 6 1;
#X connect 4 0 8 0;
#X connect 5 0 6 0;
#X connect 6 0 7 0;
#X connect 7 0 10 0;
#X connect 7 0 13 0;
#X connect 9 0 0 1;
#X connect 11 0 1 0;
#X connect 12 0 18 0;
#X connect 13 0 11 0;
#X connect 14 0 16 0;
#X connect 14 0 16 1;
#X connect 14 0 17 0;
#X connect 17 0 16 0;
#X connect 17 1 16 1;
#X connect 18 0 15 0;
#X connect 20 0 13 1;
