#N canvas 1113 121 450 300 10;
#X obj 166 128 print my-message;
#X obj 166 99 oscparse;
#X obj 121 186 list trim;
#X floatatom 121 252 10 0 0 0 - - -, f 10;
#X obj 121 208 route slider;
#X obj 166 62 netreceive -u -b;
#X msg 136 25 listen 54321;
#X msg 245 25 listen 0;
#X obj 287 141 expr $f1 * 100 + 27;
#X obj 287 163 mtof;
#X obj 287 235 osc~;
#X obj 287 257 *~ 0.1;
#X obj 287 279 dac~;
#X msg 287 185 \$1 10;
#X obj 287 207 line~;
#X connect 1 0 0 0;
#X connect 1 0 2 0;
#X connect 2 0 4 0;
#X connect 3 0 8 0;
#X connect 4 0 3 0;
#X connect 5 0 1 0;
#X connect 6 0 5 0;
#X connect 7 0 5 0;
#X connect 8 0 9 0;
#X connect 9 0 13 0;
#X connect 10 0 11 0;
#X connect 11 0 12 0;
#X connect 11 0 12 1;
#X connect 13 0 14 0;
#X connect 14 0 10 0;
