#N canvas 501 144 464 298 10;
#X obj 28 32 r fromGUI;
#X obj 28 54 list trim;
#X obj 28 76 route /slider;
#X floatatom 28 98 5 0 0 0 - - -, f 5;
#X obj 28 139 s toNetwork;
#X msg 28 117 list /slider \$1;
#X connect 0 0 1 0;
#X connect 1 0 2 0;
#X connect 2 0 3 0;
#X connect 3 0 5 0;
#X connect 5 0 4 0;
