#N canvas 0 23 1280 751 10;
#X obj 166 128 print my-message;
#X obj 166 99 oscparse;
#X obj 121 186 list trim;
#X floatatom 86 234 10 0 0 0 - - -, f 10;
#X obj 166 62 netreceive -u -b;
#X msg 136 25 listen 54321;
#X msg 245 25 listen 0;
#X floatatom 112 255 10 0 0 0 - - -, f 10;
#X floatatom 167 236 10 0 0 0 - - -, f 10;
#X floatatom 196 257 10 0 0 0 - - -, f 10;
#X floatatom 246 235 10 0 0 0 - - -, f 10;
#X floatatom 272 256 10 0 0 0 - - -, f 10;
#X floatatom 327 237 10 0 0 0 - - -, f 10;
#X floatatom 356 258 10 0 0 0 - - -, f 10;
#X floatatom 407 236 10 0 0 0 - - -, f 10;
#X floatatom 433 257 10 0 0 0 - - -, f 10;
#X floatatom 488 238 10 0 0 0 - - -, f 10;
#X floatatom 517 259 10 0 0 0 - - -, f 10;
#X obj 121 208 route slider myToggle myKnob s1 s2 s3 s4 s5 s6 b1 b2
b3 touch, f 63;
#X floatatom 552 327 5 0 0 0 - - -, f 5;
#X floatatom 593 328 5 0 0 0 - - -, f 5;
#X obj 552 305 unpack 0 0;
#X floatatom 648 327 5 0 0 0 - - -, f 5;
#X floatatom 689 328 5 0 0 0 - - -, f 5;
#X obj 648 305 unpack 0 0;
#X obj 607 257 route 0 1 2 3;
#X obj 619 233 route touch;
#X obj 555 282 route 0 1 2;
#X obj 642 280 route 0 1 2;
#X connect 1 0 2 0;
#X connect 2 0 18 0;
#X connect 4 0 1 0;
#X connect 5 0 4 0;
#X connect 6 0 4 0;
#X connect 18 0 3 0;
#X connect 18 1 7 0;
#X connect 18 2 8 0;
#X connect 18 3 9 0;
#X connect 18 4 10 0;
#X connect 18 5 11 0;
#X connect 18 6 12 0;
#X connect 18 7 13 0;
#X connect 18 8 14 0;
#X connect 18 9 15 0;
#X connect 18 10 16 0;
#X connect 18 11 17 0;
#X connect 18 12 26 0;
#X connect 21 0 19 0;
#X connect 21 1 20 0;
#X connect 24 0 22 0;
#X connect 24 1 23 0;
#X connect 25 0 27 0;
#X connect 25 1 28 0;
#X connect 26 0 25 0;
#X connect 27 1 21 0;
#X connect 27 2 21 0;
#X connect 28 1 24 0;
#X connect 28 2 24 0;
