#N canvas 405 253 514 514 10;
#X obj 37 367 output~;
#N canvas 0 22 450 278 (subpatch) 0;
#X array my-table 352800 float 2;
#X coords 0 1 352800 -1 200 140 1;
#X restore 30 47 graph;
#X text 66 260 fmod depth offs feedb;
#X text 53 274 [0.01Hz] [ms] [ms] [0.01];
#X floatatom 58 296 5 0 5000 0 - del_fmod -, f 5;
#X floatatom 98 296 5 0 2000 0 - del_depth -, f 5;
#X floatatom 137 296 5 0 2000 0 - del_offs -, f 5;
#X floatatom 176 296 5 0 110 0 - del_feedb -, f 5;
#N canvas 1285 504 773 496 init 0;
#X obj 32 18 loadbang;
#X obj 32 84 soundfiler;
#X obj 32 111 s length;
#X msg 32 41 read -resize loop0.wav my-table;
#X msg 118 72 \; del_fmod 3 \; del_depth 150 \; del_offs 20 \; del_feedb
30 \; bpm 120 \; speed 100;
#X msg 271 144 \; position 0 0 1.5625 3.125 4.6875 6.25 7.8125 9.375
0 12.5 14.0625 15.625 17.1875 18.75 0 0 0;
#X msg 271 36 \; position 0 0 1.5625 3.125 4.6875 6.25 7.8125 9.375
10.9375 12.5 14.0625 15.625 17.1875 18.75 20.3125 21.875 23.4375 \;
speed 0 100 100 100 100 100 100 100 100 100 100 100 100 100 100 100
100 \; volume 0 100 100 100 100 100 100 100 100 100 100 100 100 100
100 100 100;
#X obj 85 263 until;
#X msg 85 234 16;
#X obj 85 336 random 100;
#X obj 128 309 f;
#X obj 166 309 + 1;
#X obj 166 335 mod 16;
#X obj 121 373 pack;
#X obj 85 285 t b b;
#X msg 121 396 \; position \$1 \$2;
#X obj 223 261 until;
#X msg 223 232 16;
#X obj 266 307 f;
#X obj 304 307 + 1;
#X obj 304 333 mod 16;
#X obj 259 371 pack;
#X obj 223 283 t b b;
#X msg 259 394 \; speed \$1 \$2;
#X obj 223 333 random 100;
#X obj 223 354 + 70;
#X connect 0 0 3 0;
#X connect 0 0 4 0;
#X connect 0 0 6 0;
#X connect 1 0 2 0;
#X connect 3 0 1 0;
#X connect 7 0 14 0;
#X connect 8 0 7 0;
#X connect 9 0 13 1;
#X connect 10 0 11 0;
#X connect 11 0 12 0;
#X connect 12 0 10 1;
#X connect 12 0 13 0;
#X connect 13 0 15 0;
#X connect 14 0 9 0;
#X connect 14 1 10 0;
#X connect 16 0 22 0;
#X connect 17 0 16 0;
#X connect 18 0 19 0;
#X connect 19 0 20 0;
#X connect 20 0 18 1;
#X connect 20 0 21 0;
#X connect 21 0 23 0;
#X connect 22 0 24 0;
#X connect 22 1 18 0;
#X connect 24 0 25 0;
#X connect 25 0 21 0;
#X connect 25 0 21 1;
#X restore 186 355 pd init;
#N canvas 589 447 912 720 st-mod-delay 0;
#X obj 136 199 line~;
#X obj 136 165 pack 0 100;
#X obj 264 418 line~;
#X obj 264 384 pack 0 100;
#X obj 264 350 * 0.01;
#X obj 33 363 +~;
#X obj 243 454 *~;
#X obj 61 227 *~;
#X obj 61 125 / 100;
#X obj 33 397 hip~ 5;
#X obj 61 193 +~ 1;
#X obj 61 159 osc~ 0;
#X text 114 91 <-- cycle frequency (hundredths);
#X text 189 132 <-- cycle depth (msec);
#X text 313 317 <-- feedback (hundredths);
#X obj 243 488 clip~ -1 1;
#X obj 234 233 line~;
#X obj 234 199 pack 0 100;
#X text 287 166 <-- offset (msec);
#X obj 166 272 +~ 1.46;
#X obj 61 261 +~;
#X obj 117 39 inlet;
#X obj 191 39 inlet;
#X obj 268 39 inlet;
#X obj 342 39 inlet;
#X obj 35 39 inlet~;
#X obj 33 559 outlet~;
#X obj 243 590 delwrite~ mod-del 1000;
#X obj 61 304 vd~ mod-del;
#X obj 693 419 line~;
#X obj 693 385 pack 0 100;
#X obj 693 351 * 0.01;
#X obj 462 364 +~;
#X obj 672 455 *~;
#X obj 490 228 *~;
#X obj 462 398 hip~ 5;
#X obj 672 489 clip~ -1 1;
#X obj 490 262 +~;
#X obj 462 590 outlet~;
#X obj 490 163 *~ -1;
#X obj 672 601 delwrite~ mod-del2 1000;
#X obj 490 305 vd~ mod-del2;
#X obj 490 194 +~ 1;
#X obj 392 553 *~ 0.1;
#X obj 564 559 *~ 0.1;
#X obj 243 526 lop~ 3000;
#X obj 672 527 lop~ 3000;
#X connect 0 0 7 1;
#X connect 0 0 34 1;
#X connect 1 0 0 0;
#X connect 2 0 6 1;
#X connect 3 0 2 0;
#X connect 4 0 3 0;
#X connect 5 0 9 0;
#X connect 6 0 15 0;
#X connect 7 0 20 0;
#X connect 8 0 11 0;
#X connect 9 0 6 0;
#X connect 9 0 26 0;
#X connect 10 0 7 0;
#X connect 11 0 10 0;
#X connect 11 0 39 0;
#X connect 15 0 45 0;
#X connect 16 0 19 0;
#X connect 17 0 16 0;
#X connect 19 0 20 1;
#X connect 19 0 37 1;
#X connect 20 0 28 0;
#X connect 21 0 8 0;
#X connect 22 0 1 0;
#X connect 23 0 17 0;
#X connect 24 0 4 0;
#X connect 24 0 31 0;
#X connect 25 0 5 0;
#X connect 25 0 32 0;
#X connect 28 0 5 1;
#X connect 29 0 33 1;
#X connect 30 0 29 0;
#X connect 31 0 30 0;
#X connect 32 0 35 0;
#X connect 33 0 36 0;
#X connect 34 0 37 0;
#X connect 35 0 33 0;
#X connect 35 0 38 0;
#X connect 36 0 46 0;
#X connect 37 0 41 0;
#X connect 39 0 42 0;
#X connect 41 0 32 1;
#X connect 42 0 34 0;
#X connect 43 0 40 0;
#X connect 44 0 27 0;
#X connect 45 0 27 0;
#X connect 45 0 43 0;
#X connect 46 0 40 0;
#X connect 46 0 44 0;
#X restore 37 328 pd st-mod-delay;
#N canvas 0 22 450 300 (subpatch) 0;
#X array position 16 float 2;
#X coords 0 100 16 0 200 100 1 0 0;
#X restore 263 81 graph;
#X obj 38 202 tgl 15 0 empty \$0-metro empty 0 -6 0 8 -262144 -1 -1
0 1;
#N canvas 0 22 450 300 (subpatch) 0;
#X array volume 16 float 2;
#X coords 0 100 16 0 200 100 1 0 0;
#X restore 261 323 graph;
#N canvas 0 22 450 300 (subpatch) 0;
#X array speed 16 float 2;
#X coords 0 200 16 25 200 100 1 0 0;
#X restore 261 199 graph;
#X obj 83 202 bng 15 250 50 0 empty empty empty 17 7 0 10 -262144 -1
-1;
#X floatatom 130 203 5 0 0 0 - bpm -, f 5;
#N canvas 0 23 444 436 rhythm-player 0;
#X obj 37 282 hip~ 5;
#X obj 37 255 tabread4~ my-table;
#X obj 37 329 *~;
#X obj 37 227 line~;
#X obj 37 61 r pos;
#X obj 80 71 r length;
#X obj 37 86 / 100;
#X obj 37 109 *;
#X obj 37 177 pack;
#X msg 37 202 \$1 \, \$2 500;
#N canvas 1270 732 259 263 env 0;
#X obj 49 25 r vol;
#X obj 49 48 dbtorms;
#X obj 49 177 line~;
#X obj 49 71 t f b;
#X obj 49 199 outlet~;
#X msg 49 94 \$1 5;
#X obj 96 98 del 5;
#X obj 144 71 r time-intv;
#X obj 144 99 - 5;
#X obj 96 123 f;
#X msg 96 148 0 \$1;
#X connect 0 0 1 0;
#X connect 1 0 3 0;
#X connect 2 0 4 0;
#X connect 3 0 5 0;
#X connect 3 1 6 0;
#X connect 5 0 2 0;
#X connect 6 0 9 0;
#X connect 7 0 8 0;
#X connect 8 0 9 1;
#X connect 9 0 10 0;
#X connect 10 0 2 0;
#X restore 61 307 pd env;
#X obj 99 102 r speed;
#X obj 64 154 +;
#X obj 37 131 t f f t;
#X obj 99 130 * 220.5;
#X obj 37 358 outlet~;
#X obj 187 34 inlet;
#X obj 260 34 inlet;
#X obj 304 33 inlet;
#X obj 186 150 f;
#X obj 219 148 + 1;
#X obj 186 126 metro 500;
#X floatatom 186 225 5 0 0 0 - - -, f 5;
#X obj 186 196 tabread position;
#X obj 225 223 tabread speed;
#X obj 283 249 tabread volume;
#X floatatom 225 245 5 0 0 0 - - -, f 5;
#X floatatom 283 271 5 0 0 0 - - -, f 5;
#X obj 186 244 s pos;
#X obj 225 264 s speed;
#X obj 283 290 s vol;
#X obj 219 172 mod 16;
#X floatatom 256 117 5 20 3000 0 - - -, f 5;
#X obj 263 150 s time-intv;
#X floatatom 305 132 5 0 0 0 - - -, f 5;
#X obj 305 110 expr 60/$f1*250;
#X text 193 59 play/stop one-shot bpm;
#X connect 0 0 2 0;
#X connect 1 0 0 0;
#X connect 2 0 15 0;
#X connect 3 0 1 0;
#X connect 4 0 6 0;
#X connect 5 0 7 1;
#X connect 6 0 7 0;
#X connect 7 0 13 0;
#X connect 8 0 9 0;
#X connect 9 0 3 0;
#X connect 10 0 2 1;
#X connect 11 0 14 0;
#X connect 12 0 8 1;
#X connect 13 0 8 0;
#X connect 13 1 12 0;
#X connect 14 0 12 1;
#X connect 16 0 21 0;
#X connect 17 0 19 0;
#X connect 18 0 35 0;
#X connect 19 0 20 0;
#X connect 19 0 23 0;
#X connect 19 0 24 0;
#X connect 19 0 25 0;
#X connect 20 0 31 0;
#X connect 21 0 19 0;
#X connect 22 0 28 0;
#X connect 23 0 22 0;
#X connect 24 0 26 0;
#X connect 25 0 27 0;
#X connect 26 0 29 0;
#X connect 27 0 30 0;
#X connect 31 0 19 1;
#X connect 32 0 21 1;
#X connect 32 0 33 0;
#X connect 34 0 32 0;
#X connect 35 0 34 0;
#X restore 37 228 pd rhythm-player;
#X connect 4 0 9 1;
#X connect 5 0 9 2;
#X connect 6 0 9 3;
#X connect 7 0 9 4;
#X connect 9 0 0 0;
#X connect 9 1 0 1;
#X connect 11 0 16 0;
#X connect 14 0 16 1;
#X connect 15 0 16 2;
#X connect 16 0 9 0;
#X coords 0 514 1 513 85 60 0;
