#N canvas 709 321 499 270 10;
#X obj 232 57 soundfiler;
#N canvas 0 22 450 278 (subpatch) 0;
#X array sample 980578 float 2;
#X coords 0 1 980578 -1 200 140 1;
#X restore 232 93 graph;
#X msg 232 31 read -resize sound/ocarina.wav sample;
#X obj 35 164 hip~ 5;
#X obj 35 98 vline~;
#X obj 35 128 tabread4~ sample;
#X obj 331 58 print;
#X msg 35 71 0 \, 980578 \$1;
#X msg 85 31 11118;
#X msg 35 31 22235;
#X msg 139 31 5559;
#X msg 181 31 2779;
#X obj 35 193 dac~;
#X connect 0 0 6 0;
#X connect 2 0 0 0;
#X connect 3 0 12 0;
#X connect 3 0 12 1;
#X connect 4 0 5 0;
#X connect 5 0 3 0;
#X connect 7 0 4 0;
#X connect 8 0 7 0;
#X connect 9 0 7 0;
#X connect 10 0 7 0;
#X connect 11 0 7 0;
