#N canvas 91 72 634 629 12;
#N canvas 798 333 636 428 samples 0;
#N canvas 0 22 450 300 (subpatch) 0;
#X array sample1 155944 float 0;
#X coords 0 1.02 155943 -1.02 200 130 1;
#X restore 262 41 graph;
#X text 282 385 ------ 4 seconds ------;
#N canvas 0 22 450 300 (subpatch) 0;
#X array sample2 39075 float 0;
#X coords 0 1.02 39074 -1.02 200 130 1;
#X restore 262 226 graph;
#X restore 310 119 pd samples;
#N canvas 412 452 967 340 recorder 0;
#X obj 220 21 inlet;
#X obj 174 174 adc~ 1;
#X obj 174 202 hip~ 5;
#X obj 243 232 line~;
#X obj 174 231 *~;
#X msg 243 204 1;
#X obj 302 169 del 3990;
#X msg 279 204 0 10;
#X obj 174 282 tabwrite~ sample1;
#X msg 26 117 set \$1 \, bang;
#X msg 348 140 stop;
#X msg 302 140 bang;
#X obj 220 50 route record stop reload browse;
#X obj 411 158 loadbang;
#X obj 514 113 openpanel;
#X msg 514 85 bang;
#X text 556 84 <-- browse for samples;
#X text 482 209 v-- re-read original samples;
#X obj 411 295 soundfiler;
#X msg 514 140 read \$1 sample1;
#X obj 514 167 soundfiler;
#X obj 26 88 makefilename sample%d;
#X msg 411 237 read -resize sound/bell.aiff sample1 \, read -resize
sound/voice2.wav sample2;
#X connect 0 0 12 0;
#X connect 1 0 2 0;
#X connect 2 0 4 0;
#X connect 3 0 4 1;
#X connect 4 0 8 0;
#X connect 5 0 3 0;
#X connect 6 0 7 0;
#X connect 7 0 3 0;
#X connect 9 0 8 0;
#X connect 10 0 6 0;
#X connect 11 0 6 0;
#X connect 12 0 11 0;
#X connect 12 0 5 0;
#X connect 12 0 21 0;
#X connect 12 1 7 0;
#X connect 12 1 10 0;
#X connect 12 2 22 0;
#X connect 12 3 15 0;
#X connect 13 0 22 0;
#X connect 14 0 19 0;
#X connect 15 0 14 0;
#X connect 19 0 20 0;
#X connect 21 0 9 0;
#X connect 22 0 18 0;
#X restore 310 306 pd recorder;
#X msg 310 168 record 1;
#X msg 310 224 stop;
#X msg 310 196 record 2;
#X msg 310 251 reload;
#X msg 310 279 browse;
#X obj 37 329 sampvoice;
#X obj 121 17 r note;
#X obj 121 44 unpack 0 0 0 0 0 0 0;
#X obj 94 76 t b f;
#X obj 34 109 f;
#X obj 70 109 + 1;
#X obj 42 146 mod 1e+06;
#X obj 34 175 makenote 64;
#X obj 34 203 poly 8 1;
#X obj 34 230 stripnote;
#X obj 107 272 pack 0 0 0 0 0 0 0 0;
#X obj 107 300 route 1 2 3 4 5 6 7 8;
#X obj 175 478 qlist;
#X obj 172 528 r comment;
#X msg 175 448 read qlist-sampler.txt \, rewind \, tempo 1 \, bang
;
#X obj 38 551 output~;
#X obj 37 522 sampvoice;
#X obj 37 494 sampvoice;
#X obj 37 467 sampvoice;
#X obj 37 439 sampvoice;
#X obj 37 412 sampvoice;
#X obj 37 384 sampvoice;
#X obj 37 356 sampvoice;
#X text 303 15 Miller Puckette example;
#X text 301 40 D11.sampler.poly.pd;
#X text 385 181 <--- nagraj swoje próbki;
#X text 505 445 <--- naciśnij!;
#X text 117 568 <--- ustaw głośność;
#X connect 2 0 1 0;
#X connect 3 0 1 0;
#X connect 4 0 1 0;
#X connect 5 0 1 0;
#X connect 6 0 1 0;
#X connect 7 0 29 0;
#X connect 8 0 9 0;
#X connect 9 0 10 0;
#X connect 9 1 17 2;
#X connect 9 2 14 2;
#X connect 9 2 17 3;
#X connect 9 3 17 4;
#X connect 9 4 17 5;
#X connect 9 5 17 6;
#X connect 9 6 17 7;
#X connect 10 0 11 0;
#X connect 10 1 17 1;
#X connect 11 0 12 0;
#X connect 11 0 14 0;
#X connect 12 0 13 0;
#X connect 13 0 11 1;
#X connect 14 0 15 0;
#X connect 14 1 15 1;
#X connect 15 0 16 0;
#X connect 15 2 16 1;
#X connect 16 0 17 0;
#X connect 17 0 18 0;
#X connect 18 0 7 1;
#X connect 18 1 29 1;
#X connect 18 2 28 1;
#X connect 18 3 27 1;
#X connect 18 4 26 1;
#X connect 18 5 25 1;
#X connect 18 6 24 1;
#X connect 18 7 23 1;
#X connect 21 0 19 0;
#X connect 23 0 22 0;
#X connect 23 0 22 1;
#X connect 24 0 23 0;
#X connect 25 0 24 0;
#X connect 26 0 25 0;
#X connect 27 0 26 0;
#X connect 28 0 27 0;
#X connect 29 0 28 0;
