#N canvas 440 63 1192 862 10;
#X obj 144 53 metro 300;
#X obj 141 160 random 30;
#X obj 144 32 tgl 15 0 empty empty empty 17 7 0 10 -262144 -1 -1 1
1;
#X obj 141 260 dac~;
#X obj 141 182 + 50;
#N canvas 0 22 450 300 synth 0;
#X obj 116 91 mtof;
#X floatatom 116 113 5 0 0 0 - - -, f 5;
#X obj 116 132 osc~;
#X obj 116 154 *~;
#X obj 164 129 line~;
#X obj 218 78 del 40;
#X msg 218 105 0 400;
#X msg 164 77 0.5 40;
#X obj 148 18 inlet;
#X obj 116 176 outlet~;
#X connect 0 0 1 0;
#X connect 0 0 7 0;
#X connect 0 0 5 0;
#X connect 1 0 2 0;
#X connect 2 0 3 0;
#X connect 3 0 9 0;
#X connect 4 0 3 1;
#X connect 5 0 6 0;
#X connect 6 0 4 0;
#X connect 7 0 4 0;
#X connect 8 0 0 0;
#X restore 141 221 pd synth;
#X obj 324 22 vsl 15 128 0 100 0 0 empty empty empty 0 -9 0 10 -262144
-1 -1 1000 1;
#X floatatom 324 187 5 0 0 0 - - -, f 5;
#X obj 324 160 int;
#X obj 146 105 moses;
#X obj 145 79 random 100;
#X obj 151 132 bng 15 250 50 0 empty empty empty 17 7 0 10 -262144
-1 -1;
#X connect 0 0 10 0;
#X connect 1 0 4 0;
#X connect 2 0 0 0;
#X connect 4 0 5 0;
#X connect 5 0 3 0;
#X connect 5 0 3 1;
#X connect 6 0 8 0;
#X connect 7 0 9 1;
#X connect 8 0 7 0;
#X connect 9 0 11 0;
#X connect 10 0 9 0;
#X connect 11 0 1 0;
