#N canvas 55 38 1591 862 10;
#X obj 144 53 metro 300;
#X obj 144 160 random 30;
#X obj 144 32 tgl 15 0 empty empty empty 17 7 0 10 -262144 -1 -1 0
1;
#X obj 144 260 dac~;
#X obj 144 182 + 50;
#N canvas 0 22 450 300 synth 0;
#X obj 116 91 mtof;
#X floatatom 116 113 5 0 0 0 - - -, f 5;
#X obj 116 132 osc~;
#X obj 116 154 *~;
#X obj 164 129 line~;
#X obj 218 78 del 40;
#X msg 218 105 0 400;
#X msg 164 77 0.5 40;
#X obj 148 18 inlet;
#X obj 116 176 outlet~;
#X connect 0 0 1 0;
#X connect 0 0 7 0;
#X connect 0 0 5 0;
#X connect 1 0 2 0;
#X connect 2 0 3 0;
#X connect 3 0 9 0;
#X connect 4 0 3 1;
#X connect 5 0 6 0;
#X connect 6 0 4 0;
#X connect 7 0 4 0;
#X connect 8 0 0 0;
#X restore 144 221 pd synth;
#X obj 199 23 r value;
#N canvas 304 384 450 323 (subpatch) 0;
#X array array1 10 float 3 black black;
#A 0 50 100 150 200 250 300 400 500 600 800;
#X coords 0 1200 10 0 200 140 1;
#X restore 324 41 graph;
#X obj 238 173 tabread array1;
#X floatatom 237 148 5 0 0 0 - - -, f 5;
#X floatatom 237 219 5 0 0 0 - - -, f 5;
#X obj 238 195 int;
#X msg 210 276 \; array1 0 75 150 300 600 1200;
#X msg 432 267 \; array1 5 1000;
#X msg 217 316 \; array1 0 50 100 150 200 250 300 400 500 600 800 1200
;
#X msg 19 293 \; array1 5 60 120 240 480 960;
#X obj 237 240 s value;
#X obj 237 104 random 10;
#X floatatom 34 86 5 0 0 0 - - -, f 5;
#X obj 37 23 bng 15 250 50 0 empty empty empty 17 7 0 10 -262144 -1
-1;
#X floatatom 90 25 5 0 0 0 - - -, f 5;
#N canvas 728 35 450 323 counter 0;
#X obj 120 128 int;
#X obj 122 156 + 1;
#X msg 151 90 0;
#X obj 151 63 sel 10;
#X obj 53 31 inlet;
#X obj 184 17 inlet;
#X obj 76 184 outlet;
#X connect 0 0 1 0;
#X connect 0 0 3 0;
#X connect 0 0 6 0;
#X connect 1 0 0 1;
#X connect 2 0 0 0;
#X connect 3 0 2 0;
#X connect 4 0 0 0;
#X connect 5 0 3 1;
#X restore 34 55 pd counter;
#X connect 0 0 1 0;
#X connect 0 0 17 0;
#X connect 1 0 4 0;
#X connect 2 0 0 0;
#X connect 4 0 5 0;
#X connect 5 0 3 0;
#X connect 5 0 3 1;
#X connect 6 0 0 1;
#X connect 8 0 11 0;
#X connect 9 0 8 0;
#X connect 10 0 16 0;
#X connect 11 0 10 0;
#X connect 17 0 9 0;
#X connect 19 0 21 0;
#X connect 20 0 21 1;
#X connect 21 0 18 0;
